<?xml version="1.0" standalone="no"?>
<!DOCTYPE svg PUBLIC "-//W3C//DTD SVG 20010904//EN"
 "http://www.w3.org/TR/2001/REC-SVG-20010904/DTD/svg10.dtd">
<svg version="1.0" xmlns="http://www.w3.org/2000/svg"
 width="300.000000pt" height="334.000000pt" viewBox="0 0 300.000000 334.000000"
 preserveAspectRatio="xMidYMid meet">
<metadata>
Created by potrace 1.10, written by Peter Selinger 2001-2011
</metadata>
<g transform="translate(0.000000,334.000000) scale(0.100000,-0.100000)"
fill="#000000" stroke="none">
<path d="M1610 2838 c0 -7 11 -65 23 -129 20 -98 21 -120 10 -135 -7 -10 -13
-29 -13 -44 0 -21 -11 -31 -60 -58 -33 -19 -60 -37 -60 -42 0 -4 17 -16 38
-26 33 -15 46 -16 115 -6 l79 11 81 -72 c45 -40 119 -99 165 -130 45 -32 82
-60 82 -61 0 -2 -115 -47 -255 -101 -187 -72 -255 -102 -255 -114 0 -20 107
-81 141 -81 13 0 95 14 182 32 l158 32 70 -38 c69 -37 71 -38 91 -20 29 27 40
61 28 85 -9 16 -18 18 -53 14 -39 -5 -40 -4 -12 5 17 6 44 8 62 5 17 -3 52 -1
78 5 l47 11 113 -70 c147 -91 234 -134 321 -160 88 -26 110 -26 152 -1 27 16
32 26 32 56 0 52 -23 94 -93 166 -45 47 -89 79 -159 117 -88 47 -97 54 -88 72
13 23 19 24 48 3 29 -20 58 -10 77 26 25 49 21 58 -43 96 -1 0 31 54 73 119
41 65 75 123 75 130 0 6 -8 19 -17 27 -29 24 -100 61 -111 57 -5 -2 -93 -77
-194 -165 l-185 -161 -199 99 c-109 55 -199 103 -199 107 0 3 9 31 19 62 21
64 18 81 -18 104 -24 16 -27 15 -87 -20 -34 -20 -62 -35 -64 -33 -1 2 -25 46
-53 98 -41 77 -59 99 -91 118 -46 26 -51 26 -51 10z m69 -147 c-1 -121 -2
-120 -23 5 -9 50 -18 99 -22 108 -6 15 -3 15 20 5 26 -12 26 -13 25 -118z m41
39 c14 -27 20 -59 20 -104 l0 -66 -25 12 c-23 10 -24 14 -23 104 0 52 2 94 4
94 2 0 13 -18 24 -40z m60 -110 c20 -39 27 -90 13 -90 -27 1 -43 30 -43 79 0
28 2 51 5 51 2 0 14 -18 25 -40z m174 24 c9 -3 16 -14 16 -23 0 -14 -28 -110
-35 -119 -1 -1 -22 7 -47 18 -27 12 -49 30 -57 46 -6 15 -10 28 -9 29 10 11
95 55 105 55 6 0 18 -3 27 -6z m832 -70 c24 -14 46 -30 49 -34 3 -4 -48 -93
-113 -197 l-118 -189 -112 62 c-62 34 -112 66 -110 70 2 8 349 313 356 314 2
0 23 -12 48 -26z m-1012 -54 c88 -46 121 -55 95 -23 -6 7 -9 13 -6 13 2 0 59
-27 126 -60 67 -33 124 -60 127 -60 3 0 87 -43 187 -96 246 -130 539 -304 534
-318 -8 -25 -71 -56 -113 -56 -55 0 -56 -13 -4 -34 64 -26 107 -21 140 15 l29
30 26 -40 c15 -22 25 -50 23 -63 -3 -21 -7 -23 -63 -22 -43 1 -81 10 -135 32
-98 41 -311 158 -330 181 -15 18 -75 54 -235 143 -96 53 -371 251 -356 256 6
2 11 8 11 12 0 15 -132 110 -142 104 -10 -6 -28 12 -28 29 0 15 23 6 114 -43z
m-27 -40 c29 -19 53 -38 53 -41 0 -3 -49 -11 -109 -18 -84 -10 -113 -11 -130
-1 -22 11 -19 14 51 55 40 23 75 42 78 41 3 0 29 -17 57 -36z m202 -205 c2
-13 -11 -6 -48 25 -28 24 -51 47 -51 53 0 16 95 -58 99 -78z m61 -41 c0 -12
-5 -11 -25 2 -14 9 -25 23 -25 30 0 12 5 11 25 -2 14 -9 25 -23 25 -30z m703
29 c8 -7 -21 -43 -34 -43 -5 0 -3 11 3 25 11 26 19 30 31 18z m-660 -47 c17
-13 24 -36 10 -36 -10 0 -43 32 -43 42 0 12 12 10 33 -6z m681 -12 c7 -19 -22
-40 -36 -26 -9 9 -6 12 12 12 22 0 23 1 6 13 -16 12 -16 14 -3 14 9 0 18 -6
21 -13z m-621 -28 c13 -10 15 -15 5 -19 -19 -6 -38 3 -38 19 0 17 10 17 33 0z
m156 -88 c60 -35 109 -64 107 -65 -7 -8 -636 -133 -665 -133 -20 1 -56 11 -79
24 l-44 22 274 107 c150 58 279 106 286 106 7 1 62 -27 121 -61z m251 -169 c0
-12 -17 -11 -25 1 -3 5 -21 17 -40 26 -19 9 -35 22 -35 30 0 9 17 3 50 -18 28
-17 50 -35 50 -39z m343 17 c7 4 1 -5 -13 -19 -14 -14 -38 -28 -55 -31 l-30
-6 32 12 c18 7 38 19 45 26 9 9 3 8 -17 -2 -16 -9 -39 -16 -50 -16 -13 0 -5 8
23 21 23 12 43 26 43 33 1 6 3 3 6 -7 2 -9 10 -14 16 -11z m-716 6 c16 -5 20
-11 14 -21 -5 -8 -16 -11 -26 -8 -9 4 -14 11 -10 16 3 5 -5 12 -17 14 -19 3
-19 4 -3 5 11 0 30 -3 42 -6z m-37 -24 c37 -21 51 -38 32 -38 -8 0 -54 30 -62
41 -3 4 -14 9 -25 12 -17 4 -17 5 -2 6 10 0 36 -9 57 -21z m94 -23 c7 -20 -22
-41 -36 -27 -9 9 -6 12 13 12 21 1 22 2 7 11 -10 5 -18 14 -18 19 0 13 27 1
34 -15z m357 15 c10 -6 19 -17 19 -26 0 -12 -4 -12 -25 2 -38 25 -34 45 6 24z
m79 -56 c0 -11 -5 -11 -25 -2 -14 6 -25 17 -25 24 0 11 5 11 25 2 14 -6 25
-17 25 -24z m60 -31 c0 -16 -5 -16 -31 -3 -10 6 -19 17 -19 25 0 12 5 12 25 3
14 -6 25 -17 25 -25z m34 1 c9 -3 16 -13 16 -21 0 -20 -34 -12 -38 10 -4 19
-1 20 22 11z m76 -40 c0 -8 -6 -14 -12 -14 -21 0 -41 17 -34 28 8 14 46 3 46
-14z m51 -4 c5 0 9 -6 9 -14 0 -9 -8 -12 -25 -8 -14 2 -25 11 -25 19 0 10 6
13 16 9 9 -3 20 -6 25 -6z m79 1 c0 -5 -13 -14 -30 -20 -24 -8 -30 -7 -30 4 0
7 12 16 28 18 15 2 28 5 30 6 1 0 2 -3 2 -8z"/>
<path d="M2530 2376 c0 -12 102 -116 114 -116 16 0 1 24 -45 74 -51 57 -69 67
-69 42z"/>
<path d="M2090 2251 c0 -10 7 -24 15 -31 12 -10 16 -9 21 4 3 9 4 23 0 31 -8
21 -36 19 -36 -4z"/>
<path d="M2162 2208 c2 -12 11 -24 21 -26 14 -3 18 1 15 20 -2 12 -11 24 -21
26 -14 3 -18 -1 -15 -20z"/>
<path d="M2224 2185 c-6 -16 12 -45 27 -45 5 0 9 11 9 24 0 27 -28 43 -36 21z"/>
<path d="M2290 2136 c0 -29 17 -43 33 -27 8 8 9 16 1 28 -17 27 -34 27 -34 -1z"/>
<path d="M2355 2111 c-7 -13 12 -51 26 -51 14 0 7 52 -8 57 -6 2 -14 -1 -18
-6z"/>
<path d="M2420 2061 c0 -10 7 -24 15 -31 12 -10 16 -9 21 4 3 9 4 23 0 31 -8
21 -36 19 -36 -4z"/>
<path d="M2490 2021 c0 -10 7 -24 15 -31 12 -10 16 -9 21 4 3 9 4 23 0 31 -8
21 -36 19 -36 -4z"/>
<path d="M2550 1991 c0 -21 13 -41 26 -41 8 0 14 10 14 25 0 18 -5 25 -20 25
-11 0 -20 -4 -20 -9z"/>
<path d="M1780 2701 c0 -13 82 -25 116 -17 36 9 29 12 -48 21 -44 4 -68 3 -68
-4z"/>
<path d="M1473 2684 c-486 -106 -869 -508 -948 -994 -24 -153 -17 -370 15
-456 17 -44 18 -24 5 76 -29 221 14 492 108 690 38 80 124 214 161 255 16 17
36 39 45 50 16 20 141 128 199 172 43 32 146 86 233 121 68 27 111 39 267 73
28 6 55 15 58 20 8 13 -71 9 -143 -7z"/>
<path d="M2000 2660 c30 -16 62 -29 70 -30 8 0 28 -7 44 -15 15 -8 34 -15 40
-15 18 0 150 -69 238 -124 97 -61 124 -55 36 7 -128 92 -322 178 -448 200 -32
6 -30 4 20 -23z"/>
<path d="M878 2110 c-27 -17 -52 -30 -57 -30 -21 0 -25 -57 -26 -365 -1 -244
2 -328 12 -354 7 -19 12 -35 11 -36 -2 -2 -26 -13 -55 -25 -41 -17 -55 -19
-72 -10 -34 18 -101 -25 -101 -65 0 -16 -19 -32 -82 -68 -104 -59 -132 -75
-189 -109 -40 -24 -49 -26 -76 -16 -26 10 -36 8 -64 -8 -32 -19 -34 -23 -31
-70 2 -27 5 -106 8 -176 3 -80 9 -130 17 -136 7 -5 228 -134 492 -287 544
-314 530 -308 628 -256 l58 31 42 -27 c27 -17 61 -28 94 -31 49 -4 59 0 165
58 170 95 180 103 176 153 -2 34 -9 45 -36 64 l-33 22 29 15 c60 31 62 36 64
179 1 73 3 106 5 74 2 -31 7 -57 11 -57 32 0 45 91 16 108 -24 13 -9 49 29 68
71 36 67 10 67 391 0 368 -1 373 -52 419 -27 26 -977 574 -992 574 -6 0 -32
-14 -58 -30z m140 -29 c37 -21 249 -143 472 -271 363 -209 470 -279 470 -309
0 -16 -73 -56 -78 -43 -12 36 -65 77 -198 153 -81 46 -168 96 -193 110 -25 15
-134 77 -241 139 -228 132 -245 142 -328 188 l-63 35 28 18 c41 26 57 23 131
-20z m-130 -30 c15 -10 47 -29 72 -43 67 -37 434 -249 630 -363 63 -37 140
-80 170 -97 74 -41 80 -47 101 -93 17 -36 19 -72 19 -367 0 -221 -3 -329 -11
-333 -6 -4 -8 -13 -5 -21 4 -12 2 -12 -14 -4 -18 10 -19 13 -5 26 13 13 15 64
15 354 0 337 0 339 -22 364 -13 14 -210 133 -438 264 -544 313 -543 312 -558
303 -10 -6 -12 -82 -8 -352 4 -359 5 -381 19 -372 4 2 13 0 20 -5 11 -9 158
-94 767 -445 202 -116 185 -105 177 -113 -6 -6 -917 515 -948 542 -14 13 -18
12 -29 -1 -7 -8 -24 -15 -39 -15 -40 0 -595 -323 -599 -349 -4 -22 50 -57 70
-45 6 4 8 3 5 -3 -4 -7 169 -112 426 -261 510 -294 469 -272 504 -272 42 0
597 322 601 348 2 16 -13 29 -73 62 -42 23 -88 53 -103 67 -35 32 -28 29 101
-47 137 -81 138 -85 21 -152 -22 -12 -145 -83 -272 -156 -265 -151 -274 -154
-370 -101 -31 18 -61 35 -67 39 -9 7 -297 173 -395 228 -25 14 -62 36 -82 49
-21 12 -40 23 -43 23 -2 0 -37 20 -77 44 -40 25 -116 69 -168 98 -111 64 -122
83 -64 118 l36 23 -26 14 c-14 7 -26 16 -26 18 0 11 30 4 44 -11 17 -17 6 -22
216 99 36 20 98 56 139 79 41 23 69 44 62 46 -6 2 -23 -4 -37 -13 -25 -16 -26
-16 -19 7 12 38 35 47 58 23 13 -12 22 -11 71 16 30 16 63 29 73 27 10 -2 17
2 15 10 -1 6 2 12 7 12 6 0 3 16 -5 35 -11 28 -14 98 -14 355 0 202 4 328 10
341 13 24 34 24 68 0z m27 -62 c4 -11 5 -22 3 -23 -1 -1 -20 -13 -40 -25 -31
-19 -38 -20 -38 -7 0 8 14 23 31 31 17 9 29 19 26 22 -3 2 -17 -3 -31 -12 -22
-15 -26 -15 -26 -3 0 15 33 36 57 37 6 1 15 -8 18 -20z m456 -249 c239 -138
444 -262 457 -276 19 -22 22 -36 22 -110 l0 -85 -62 35 c-58 33 -63 38 -66 73
l-3 38 -246 142 c-136 77 -252 139 -260 136 -7 -3 -13 -14 -13 -24 0 -22 -1
-23 -35 -7 -20 9 -25 18 -25 50 0 27 -5 41 -16 45 -19 7 -50 -10 -47 -26 4
-16 -1 -14 -77 27 l-70 37 0 98 c0 53 2 97 3 97 2 0 199 -113 438 -250z m-451
197 c0 -7 -16 -21 -36 -31 -20 -9 -34 -20 -31 -23 4 -3 18 2 31 11 29 18 36
20 36 7 0 -9 -61 -51 -73 -51 -3 0 -5 14 -4 30 2 22 11 36 32 49 36 24 45 25
45 8z m0 -76 c0 -8 -64 -51 -76 -51 -2 0 -4 6 -4 13 0 7 15 21 33 30 38 19 47
20 47 8z m0 -40 c0 -8 -64 -51 -76 -51 -2 0 -4 6 -4 13 0 7 15 21 33 30 38 19
47 20 47 8z m0 -36 c0 -8 -18 -24 -40 -35 -53 -27 -55 -4 -2 27 45 27 42 26
42 8z m370 -210 c173 -100 370 -213 437 -251 67 -38 122 -75 123 -82 0 -7 -3
-11 -7 -9 -17 10 -801 462 -852 491 -30 17 -56 37 -59 44 -6 18 -22 27 358
-193z m-370 173 c0 -7 -18 -23 -40 -36 -32 -18 -40 -20 -40 -8 0 9 17 24 38
35 45 24 42 24 42 9z m43 -38 c20 -32 17 -44 -14 -60 -18 -10 -19 -8 -18 40 1
27 5 50 8 50 4 0 15 -14 24 -30z m-43 0 c0 -6 -16 -20 -35 -32 -20 -11 -34
-23 -31 -26 3 -2 17 3 30 12 29 19 36 20 36 6 0 -6 -16 -20 -35 -32 -20 -11
-34 -23 -31 -25 3 -3 15 2 28 11 25 18 38 20 38 7 0 -8 -64 -51 -75 -51 -3 0
-4 22 -4 50 1 44 5 52 33 69 36 23 46 25 46 11z m134 -36 c21 -8 20 -24 -1
-40 -25 -18 -28 -17 -41 10 -15 33 2 45 42 30z m400 -121 c121 -69 229 -133
239 -141 9 -8 16 -27 16 -41 -1 -26 -1 -26 -8 3 -5 25 -35 45 -240 163 -128
73 -235 132 -238 130 -2 -3 101 -65 229 -139 145 -84 234 -141 236 -152 3 -15
-4 -13 -45 11 -27 15 -136 78 -241 138 -179 103 -208 126 -185 148 3 4 8 7 11
7 3 0 104 -57 226 -127z m-460 49 c-23 -12 -27 -11 -40 5 -14 17 -14 17 -5 -3
10 -21 6 -34 -11 -34 -4 0 -8 13 -8 30 0 22 7 33 28 44 25 14 28 13 44 -7 16
-21 16 -23 -8 -35z m102 4 c10 -14 20 -23 23 -21 3 2 7 -12 8 -30 3 -33 -17
-53 -38 -39 -13 8 -11 42 2 46 8 3 7 13 -4 33 l-16 30 -1 -35 0 -35 -20 25
c-18 23 -18 26 -3 38 23 17 28 16 49 -12z m94 -21 c11 -13 10 -18 -6 -30 -33
-25 -45 -18 -42 24 1 33 4 38 18 31 9 -5 23 -16 30 -25z m-270 6 c0 -8 -64
-51 -76 -51 -2 0 -4 6 -4 13 0 7 15 21 33 30 38 19 47 20 47 8z m120 -16 c7
-14 16 -25 20 -25 3 0 7 -13 8 -30 3 -41 -30 -60 -46 -25 -10 21 -8 26 9 36
11 6 18 13 16 16 -3 2 -14 0 -26 -6 -17 -9 -22 -8 -32 11 -10 18 -8 24 7 35
24 18 29 17 44 -12z m240 -34 c0 -4 -9 -12 -20 -18 -17 -11 -21 -10 -32 10
-22 40 -18 47 18 30 19 -9 34 -19 34 -22z m-301 7 c12 -19 11 -23 -5 -35 -10
-7 -23 -12 -29 -10 -16 5 -18 49 -3 58 19 12 22 11 37 -13z m-59 2 c0 -5 -18
-19 -40 -30 -47 -24 -57 -6 -12 22 31 19 52 22 52 8z m280 -35 c0 -39 -14 -46
-30 -14 -9 15 -8 24 1 35 19 23 29 16 29 -21z m-280 3 c0 -7 -18 -23 -40 -36
-29 -16 -40 -19 -40 -9 0 7 17 23 38 35 44 26 42 25 42 10z m391 -9 c15 -30
-2 -45 -32 -29 -34 18 -35 19 -13 35 26 19 31 19 45 -6z m-144 -33 c-9 -26
-27 -15 -27 16 1 31 1 32 15 13 9 -10 14 -24 12 -29z m-156 12 c10 -18 8 -24
-7 -35 -24 -18 -29 -17 -41 10 -9 19 -8 26 6 35 23 16 29 15 42 -10z m110 -41
c-15 -15 -41 0 -41 24 l0 22 20 -23 c11 -13 20 -19 20 -14 0 6 -6 16 -12 22
-10 10 -10 15 2 22 12 7 16 4 18 -16 2 -15 -1 -31 -7 -37z m136 9 c-2 -5 -13
-16 -25 -24 -21 -14 -22 -13 -22 21 0 19 6 37 13 40 13 5 39 -22 34 -37z
m-337 21 c0 -7 -16 -21 -36 -31 -20 -9 -34 -20 -31 -23 4 -3 18 2 31 11 29 19
36 20 36 6 0 -6 -16 -20 -35 -32 -20 -11 -34 -22 -32 -25 2 -2 18 4 34 14 30
17 31 17 54 -9 13 -14 98 -68 189 -120 91 -52 290 -166 442 -254 l278 -159 0
-37 c0 -20 -4 -39 -8 -42 -8 -5 -955 535 -981 560 -8 7 -16 35 -17 63 -3 46
-2 51 29 69 39 25 47 26 47 9z m471 3 c25 -14 24 -24 -5 -38 -20 -9 -25 -7
-34 13 -16 34 1 45 39 25z m-427 -52 c-13 -21 -34 -6 -34 25 l0 32 19 -25 c11
-13 17 -28 15 -32z m148 -59 c10 -7 9 -9 -4 -9 -10 0 -18 -4 -18 -9 0 -16 -40
-23 -55 -11 -22 18 -18 35 8 47 19 9 26 8 36 -6 6 -9 1 5 -12 31 -18 34 -22
49 -14 57 8 8 16 -2 28 -40 9 -28 23 -55 31 -60z m858 98 c0 -7 -16 -21 -36
-31 -20 -9 -34 -19 -31 -22 3 -4 16 1 29 10 25 18 38 20 38 7 0 -5 -16 -19
-36 -31 -19 -12 -33 -24 -30 -27 3 -3 15 2 28 11 12 9 25 16 29 16 3 0 6 -23
6 -50 1 -49 0 -51 -38 -71 -29 -14 -39 -16 -39 -6 0 7 16 21 36 31 20 9 34 20
31 23 -4 3 -18 -2 -31 -11 -31 -19 -36 -20 -36 -3 0 7 16 21 36 31 20 9 34 19
31 22 -3 4 -16 -1 -29 -10 -33 -23 -36 -21 -34 34 1 44 5 53 31 69 36 24 45
25 45 8z m-773 -26 c2 -24 -4 -33 -34 -51 -19 -11 -37 -19 -39 -17 -7 7 8 37
16 32 4 -2 5 6 3 19 -4 19 1 26 24 34 15 6 28 11 28 11 0 1 1 -12 2 -28z m143
14 c13 -15 7 -45 -9 -45 -5 0 -11 14 -13 30 -5 33 3 38 22 15z m-294 -22 c18
-25 17 -28 -11 -41 -21 -10 -26 -9 -36 9 -6 11 -13 18 -16 16 -2 -3 3 -17 12
-31 17 -25 17 -26 -1 -20 -11 4 -27 14 -37 22 -16 14 -15 17 20 38 47 28 53
28 69 7z m388 -14 c-3 -5 0 -9 7 -9 16 0 -22 -29 -38 -30 -21 0 -27 42 -8 57
20 14 50 0 39 -18z m-150 -8 c17 -19 17 -20 -3 -30 -28 -16 -39 -14 -46 9 -13
40 19 54 49 21z m294 -51 c8 -8 10 -9 7 -2 -6 12 -3 12 16 1 23 -12 23 -12 4
-20 -30 -11 -31 -11 -43 16 -11 25 -13 25 -42 10 -28 -14 -30 -14 -40 6 -7 11
-14 18 -17 16 -2 -3 0 -14 6 -26 9 -16 8 -22 -8 -31 -24 -12 -34 -13 -27 -1 3
5 -1 11 -9 15 -19 7 -19 26 0 26 8 0 15 3 15 8 0 4 12 15 27 24 26 16 30 16
63 -5 19 -12 41 -28 48 -37z m-338 -1 c0 -4 -7 -9 -15 -13 -12 -4 -15 3 -15
32 l1 37 14 -25 c8 -14 14 -28 15 -31z m154 2 l26 -50 -22 -15 c-21 -15 -23
-14 -35 7 -17 30 -16 35 8 42 11 4 18 9 16 12 -3 2 -15 0 -26 -7 -18 -9 -23
-7 -33 15 -10 22 -9 28 3 36 26 16 35 10 63 -40z m-196 -13 c-4 -22 -5 -22
-18 5 -12 24 -12 30 1 37 16 11 23 -6 17 -42z m103 23 c-9 -6 -11 -18 -7 -35
8 -32 -9 -35 -25 -4 -10 18 -8 24 7 35 10 7 23 13 28 13 6 0 5 -4 -3 -9z
m-130 -23 c10 -18 8 -24 -7 -35 -24 -17 -27 -17 -43 9 -12 19 -11 23 5 35 24
18 31 17 45 -9z m399 -29 c0 -3 -10 -11 -23 -16 -19 -9 -26 -8 -35 8 -17 27
-15 35 11 46 18 9 24 7 34 -11 7 -11 12 -24 13 -27z m-300 -10 c0 -4 -10 -15
-22 -23 -25 -18 -17 -21 12 -6 15 8 22 5 34 -12 24 -34 3 -44 -38 -18 -44 27
-58 67 -30 87 16 12 20 11 31 -4 7 -9 13 -20 13 -24z m-145 -18 c-3 -2 -16 4
-31 14 -21 13 -24 19 -13 26 10 6 19 1 31 -14 9 -12 15 -24 13 -26z m526 27
c10 -18 8 -24 -7 -35 -19 -14 -37 -13 -34 1 1 5 -4 12 -10 16 -8 5 -7 12 5 24
22 21 32 20 46 -6z m-151 -9 c9 -17 8 -23 -7 -35 -25 -18 -30 -17 -44 8 -10
18 -8 24 7 35 24 18 31 17 44 -8z m-300 -18 c0 -10 9 -26 20 -36 26 -23 26
-39 0 -25 -11 6 -17 16 -14 22 4 7 2 8 -5 4 -6 -4 -24 0 -38 9 l-26 18 24 17
c26 21 39 18 39 -9z m154 13 c8 -21 8 -20 -10 -38 -21 -22 -29 -20 -42 9 -11
23 -9 27 11 35 31 12 34 12 41 -6z m327 9 c10 -73 8 -83 -21 -98 -31 -16 -54
-20 -31 -6 10 7 11 13 2 29 -10 18 -8 23 11 34 13 7 26 11 31 10 11 -3 8 13
-5 26 -9 9 -9 12 0 12 7 0 12 -3 13 -7z m-91 -23 c8 -16 8 -24 -4 -35 -8 -8
-19 -15 -25 -15 -10 0 -36 39 -29 44 4 4 42 25 45 26 1 0 7 -9 13 -20z m-158
-7 c1 -4 8 -14 17 -21 14 -11 14 -11 -3 -5 -13 4 -17 3 -12 -5 4 -7 -1 -10
-14 -7 -45 9 -52 26 -17 42 23 11 28 10 29 -4z m538 -5 c0 -7 -18 -23 -40 -36
-32 -18 -40 -20 -40 -8 0 9 17 24 38 35 45 24 42 24 42 9z m-740 -208 c200
-115 365 -212 368 -215 3 -3 -16 4 -43 16 -28 13 -72 22 -104 23 -41 1 -78 12
-137 39 -83 38 -132 45 -179 27 -24 -9 -26 -8 -20 7 4 10 9 37 12 59 4 33 1
46 -16 63 -11 11 -19 21 -16 21 2 0 88 -48 190 -107 102 -58 188 -104 191
-101 5 5 -498 298 -511 298 -4 0 -3 -5 1 -11 3 -6 -8 -3 -25 5 -17 9 -31 19
-31 22 0 2 9 0 21 -6 11 -7 23 -10 25 -7 3 3 -23 21 -58 40 -35 20 -56 36 -47
37 9 0 180 -94 379 -210z m-371 181 c45 -23 48 -46 10 -62 -54 -22 -117 -136
-104 -188 6 -23 5 -24 -17 -9 -52 34 -27 141 48 207 30 27 43 32 68 27 l31 -5
-29 15 c-16 9 -43 14 -62 12 -33 -4 -42 1 -27 15 12 12 43 7 82 -12z m676 -2
c5 -14 1 -25 -12 -34 -16 -13 -20 -12 -36 7 -18 21 -18 23 -1 35 26 19 42 16
49 -8z m-151 -8 c16 -17 15 -19 -6 -33 -19 -13 -26 -13 -50 -1 -29 15 -39 29
-12 19 8 -3 12 -2 9 3 -3 6 3 14 12 20 24 14 27 14 47 -8z m420 -1 c5 -5 7
-13 3 -17 -4 -3 -14 2 -23 13 -15 18 -15 18 -9 -3 4 -16 0 -25 -17 -34 -13 -6
-24 -13 -26 -14 -2 -2 4 -17 12 -34 15 -29 15 -31 -4 -41 -19 -10 -20 -8 -18
60 1 52 6 73 17 80 18 9 50 5 65 -10z m-1044 0 c0 -5 -7 -10 -16 -10 -9 0 -14
-6 -11 -13 3 -8 1 -20 -5 -28 -8 -11 -8 -10 -4 5 6 16 4 17 -10 5 -22 -18 -36
-58 -28 -82 5 -17 9 -14 25 19 28 60 75 104 109 104 11 -1 9 -4 -5 -12 -60
-33 -105 -104 -108 -168 -2 -47 -6 -44 -19 12 -18 77 -21 138 -8 138 6 0 23 9
37 20 28 22 43 25 43 10z m1210 -3 c0 -7 -16 -21 -36 -31 -20 -9 -34 -20 -31
-23 4 -3 18 2 31 11 31 19 36 20 36 3 0 -7 -16 -21 -36 -31 -20 -9 -34 -19
-31 -22 3 -4 16 1 29 10 12 9 25 16 29 16 3 0 6 -23 6 -50 1 -49 0 -51 -38
-71 -29 -14 -39 -16 -39 -6 0 7 16 21 36 31 20 9 34 20 31 23 -4 3 -18 -2 -31
-11 -31 -19 -36 -20 -36 -3 0 7 16 21 36 31 20 9 34 19 31 22 -3 4 -16 -1 -29
-10 -12 -9 -25 -16 -29 -16 -3 0 -6 23 -6 50 -1 48 1 51 36 70 44 23 41 23 41
7z m-597 -68 c15 -6 27 -15 27 -20 0 -5 6 -9 14 -9 18 0 65 -39 48 -40 -17 0
-51 18 -75 41 -11 10 -24 16 -28 13 -4 -2 -12 3 -17 12 -5 9 -12 15 -15 15
-20 -3 -28 1 -51 23 -40 36 -31 38 22 6 26 -17 59 -35 75 -41z m95 36 c7 13
11 14 17 6 4 -7 -1 -18 -11 -26 -26 -19 -30 -19 -48 7 -24 34 -19 44 8 19 22
-21 25 -21 34 -6z m128 6 c23 -18 22 -31 -2 -31 -7 0 -16 9 -19 21 -4 11 -9
18 -12 16 -2 -3 0 -14 6 -25 9 -16 6 -23 -13 -35 -22 -15 -24 -14 -36 9 -8 13
-11 25 -9 27 13 11 54 37 57 37 2 0 15 -8 28 -19z m111 -73 c-2 -18 -4 -4 -4
32 0 36 2 50 4 33 2 -18 2 -48 0 -65z m140 17 c-1 -54 -5 -65 -22 -73 -17 -8
-24 -6 -34 11 -12 18 -11 22 5 34 10 7 24 11 31 9 19 -8 15 15 -7 44 -20 26
-11 54 15 44 10 -4 14 -23 12 -69z m-159 13 c-4 -22 -5 -22 -18 5 -12 24 -12
30 1 37 16 11 23 -6 17 -42z m-270 21 c18 -28 8 -36 -23 -19 -19 10 -22 16
-14 27 15 18 22 17 37 -8z m390 -13 c9 -20 7 -25 -13 -34 -20 -9 -26 -7 -39
12 -14 22 -13 24 7 34 31 15 33 15 45 -12z m-1148 -50 c0 -36 -4 -68 -10 -71
-6 -4 -10 20 -10 64 0 41 4 71 10 71 6 0 10 -28 10 -64z m255 54 c-3 -5 -13
-10 -21 -10 -8 0 -14 -4 -14 -10 0 -5 -7 -10 -15 -10 -8 0 -15 5 -15 10 0 6 7
10 15 10 8 0 15 5 15 10 0 6 9 10 21 10 11 0 17 -4 14 -10z m741 -7 c18 -25
17 -28 -11 -41 -21 -10 -26 -9 -36 10 -10 18 -8 24 7 35 23 17 24 16 40 -4z
m-1016 -133 c5 0 12 5 15 10 8 13 35 -6 35 -24 0 -7 20 -25 45 -41 64 -40 49
-42 -26 -4 -79 39 -99 59 -99 101 0 18 -5 40 -10 48 -7 11 -10 2 -10 -32 0
-27 -4 -48 -10 -48 -5 0 -10 23 -10 50 0 36 4 50 14 50 7 0 20 7 27 17 12 14
14 7 17 -55 2 -40 7 -72 12 -72z m871 119 c18 -35 -26 -54 -52 -23 -11 14 -10
18 6 30 25 19 32 18 46 -7z m-517 -4 c15 -7 17 -5 11 5 -5 8 9 3 31 -10 46
-27 66 -45 44 -38 -17 6 -65 -15 -94 -41 -28 -24 -57 -87 -65 -142 -7 -41 -5
-51 8 -59 9 -4 14 -10 11 -12 -52 -39 -79 -58 -82 -58 -2 0 -2 16 0 35 4 32
-1 41 -39 75 -50 47 -42 51 26 10 28 -16 52 -30 55 -30 3 0 5 29 4 64 0 40 3
63 10 59 5 -4 7 1 3 10 -4 10 -2 16 5 14 6 -1 12 3 15 9 2 6 -4 11 -13 11 -20
0 -44 -55 -44 -102 0 -19 -5 -35 -10 -35 -22 0 -60 49 -60 77 1 41 35 110 72
145 33 30 63 34 112 13z m607 -17 c10 -18 8 -24 -7 -35 -24 -18 -31 -17 -44 8
-9 17 -8 23 7 35 25 18 30 17 44 -8z m-1041 -43 c0 -25 -4 -45 -10 -45 -11 0
-14 73 -3 83 11 12 13 8 13 -38z m1130 10 c0 -13 -8 -29 -19 -34 -15 -8 -20
-6 -29 14 -10 21 -8 27 10 39 26 19 38 12 38 -19z m-135 -24 c-3 -2 -16 4 -31
14 -21 13 -24 19 -13 26 10 6 19 1 31 -14 9 -12 15 -24 13 -26z m-1025 4 c0
-26 -3 -33 -15 -29 -8 4 -16 14 -16 23 -1 14 -2 14 -6 -1 -5 -22 -23 -24 -23
-3 0 11 39 42 58 45 1 0 2 -16 2 -35z m300 26 c0 -21 -13 -41 -26 -41 -8 0
-14 5 -14 10 0 6 7 10 15 10 9 0 12 6 9 15 -4 8 -1 15 5 15 6 0 11 -4 11 -9z
m951 -23 c10 -18 8 -24 -7 -35 -24 -17 -27 -17 -42 8 -11 18 -11 23 5 35 25
18 30 17 44 -8z m-672 -18 c9 -13 12 -21 6 -18 -6 4 -10 -13 -11 -43 0 -32 -6
-56 -17 -67 -11 -10 -17 -12 -17 -4 0 7 4 12 8 12 5 0 10 6 11 13 4 25 6 106
2 102 -2 -2 -11 0 -20 5 -18 9 -81 -15 -81 -31 0 -14 12 -11 33 9 19 17 20 16
15 -36 -6 -62 11 -57 19 7 7 49 23 44 23 -7 0 -58 -43 -111 -90 -112 -24 0
-23 1 8 20 23 14 32 26 28 36 -3 9 -6 28 -6 42 -1 24 -2 25 -11 9 -6 -10 -8
-29 -5 -42 4 -14 0 -28 -11 -36 -14 -13 -15 -9 -11 44 3 31 3 57 2 57 -7 0
-28 -47 -34 -77 -6 -24 -3 -37 11 -51 17 -19 16 -32 -2 -32 -21 0 -29 40 -18
89 11 55 77 139 98 127 6 -4 11 -2 11 4 0 20 42 6 59 -20z m412 12 c13 -10 36
-24 51 -31 15 -8 25 -18 22 -23 -7 -10 -102 42 -109 59 -6 18 8 16 36 -5z
m113 -4 c14 -20 14 -23 0 -31 -10 -6 -24 -3 -41 9 -25 16 -26 17 -8 30 25 19
31 18 49 -8z m214 -68 c-1 -56 -5 -73 -18 -80 -13 -7 -20 -3 -31 17 -10 18
-11 27 -3 30 6 2 19 9 28 16 14 11 14 15 2 39 -10 19 -11 29 -3 37 22 22 27
10 25 -59z m-1418 34 c0 -9 -9 -18 -20 -21 -11 -3 -20 -9 -20 -14 0 -5 -4 -9
-10 -9 -18 0 -10 27 13 43 29 21 37 21 37 1z m380 7 c0 -6 -4 -12 -10 -16 -5
-3 -7 -12 -3 -20 3 -8 0 -15 -5 -15 -6 0 -10 14 -10 30 1 18 6 30 15 30 7 0
13 -4 13 -9z m880 -15 c0 -26 -13 -28 -45 -7 -20 12 -20 12 2 8 15 -3 20 -1
16 9 -3 8 1 14 11 14 10 0 16 -9 16 -24z m43 -3 c0 -5 9 -17 19 -27 23 -25 23
-33 -3 -46 -15 -9 -24 -8 -37 2 -13 11 -14 11 -8 0 7 -11 4 -12 -13 -3 -11 7
-21 17 -21 23 0 6 -3 9 -6 5 -10 -10 -65 23 -58 34 3 6 23 0 49 -15 39 -23 44
-24 56 -9 8 8 13 28 12 42 -2 22 6 17 10 -6z m237 15 c0 -7 -18 -23 -40 -36
-32 -18 -40 -20 -40 -8 0 9 17 24 38 35 45 24 42 24 42 9z m-1451 -7 c7 -5 10
-14 7 -20 -9 -14 -1 -14 23 1 15 9 25 9 45 0 34 -15 33 -28 -6 -49 -35 -19
-81 -26 -72 -11 3 5 -2 8 -11 6 -10 -2 -20 4 -22 12 -4 12 -3 12 5 1 7 -9 12
-10 16 -2 11 17 49 14 42 -4 -6 -15 9 -21 18 -7 14 23 -45 48 -76 31 -26 -14
-22 -44 7 -57 36 -17 53 -15 92 9 32 20 83 20 83 0 0 -4 -28 -23 -61 -41 -45
-23 -58 -35 -48 -41 22 -14 42 -11 35 6 -4 13 -2 13 14 5 10 -5 21 -10 24 -10
9 0 2 24 -9 32 -14 10 38 4 54 -7 11 -6 10 -11 -4 -22 -11 -7 -27 -13 -37 -13
-10 0 -18 -6 -19 -12 -1 -7 -2 -22 -3 -33 -1 -17 -9 -20 -63 -23 -85 -4 -80
-20 5 -18 l67 1 3 31 c2 24 9 32 35 40 24 7 31 14 30 29 -6 56 -17 88 -34 98
-11 7 -19 15 -19 20 0 13 154 -70 179 -96 13 -14 25 -39 27 -55 3 -26 -2 -32
-46 -55 -28 -14 -50 -22 -50 -17 0 4 21 18 47 31 26 12 42 24 36 26 -7 3 -26
-3 -45 -13 -56 -29 -168 -106 -168 -116 0 -5 14 0 30 12 17 12 30 18 30 13 0
-5 -12 -16 -27 -24 -25 -16 -28 -15 -105 29 -43 26 -78 52 -78 60 0 8 -7 11
-17 8 -10 -3 -24 -2 -32 3 -9 6 25 7 84 4 76 -4 96 -2 90 8 -5 7 -4 10 3 5 7
-4 10 1 9 14 -1 20 -17 29 -17 9 0 -6 -9 -8 -21 -4 -15 5 -19 4 -15 -4 4 -6 1
-11 -7 -11 -8 0 -17 7 -21 15 -3 8 -2 14 2 14 4 -1 16 -1 27 0 18 1 19 2 3 12
-13 7 -26 5 -50 -7 l-32 -16 25 -15 c16 -10 18 -12 4 -7 -11 3 -43 7 -72 7
-28 0 -50 4 -47 8 2 4 -26 24 -62 44 -36 20 -63 39 -60 42 11 12 222 132 231
132 6 1 16 -3 24 -8z m1299 -15 c9 -20 7 -25 -13 -34 -20 -9 -26 -7 -38 12
-13 20 -13 24 1 34 26 17 38 14 50 -12z m152 -19 c0 -7 -16 -21 -36 -31 -20
-9 -34 -20 -31 -23 4 -3 18 2 31 11 31 19 36 20 36 3 0 -7 -16 -21 -36 -31
-20 -9 -34 -19 -31 -22 3 -4 16 1 29 10 12 9 25 16 29 16 3 0 6 -22 6 -50 1
-46 -1 -51 -34 -70 -40 -24 -43 -24 -43 -7 0 7 16 21 36 31 20 9 34 20 31 23
-4 3 -18 -2 -31 -11 -31 -19 -36 -20 -36 -3 0 7 16 21 36 31 20 9 34 19 31 22
-3 4 -16 -1 -29 -10 -12 -9 -25 -16 -29 -16 -3 0 -6 23 -6 50 -1 48 1 51 36
70 44 23 41 23 41 7z m-1762 -6 c10 -6 7 -12 -12 -25 -14 -9 -26 -23 -26 -31
0 -8 -4 -15 -10 -15 -13 0 -13 36 0 61 11 20 27 24 48 10z m122 -15 c0 -8 -13
-21 -30 -30 -27 -13 -30 -13 -30 2 0 10 10 22 23 28 31 16 37 16 37 0z m-70
-35 c0 -20 -13 -41 -25 -41 -18 0 -28 17 -19 32 5 8 10 6 15 -8 7 -17 8 -17 8
4 1 20 21 33 21 13z m1036 -27 c30 -13 62 -24 72 -24 9 -1 -3 -9 -28 -19 -25
-9 -77 -36 -115 -58 -39 -23 -83 -47 -98 -55 l-28 -14 56 -38 c30 -21 55 -40
55 -41 0 -2 -24 -17 -54 -34 l-55 -30 -113 65 c-62 36 -115 68 -117 70 -6 6 1
11 29 19 24 7 24 7 5 -9 -30 -23 -11 -19 46 9 27 14 47 30 44 35 -3 5 0 12 6
16 8 4 9 3 5 -4 -4 -7 -2 -12 5 -12 7 0 9 -10 6 -29 -6 -26 7 -51 25 -51 4 0
8 25 8 55 0 74 -13 78 -109 30 -83 -41 -135 -59 -126 -44 8 12 -2 12 -26 -1
-34 -18 -20 -3 17 19 41 25 57 27 29 4 -37 -29 11 -6 73 35 80 54 210 124 246
133 40 9 75 3 142 -27z m503 1 c11 -19 16 -35 11 -35 -6 0 -10 4 -10 8 0 4
-17 14 -37 21 -34 13 -35 15 -18 27 27 20 31 18 54 -21z m49 -42 c-3 -15 -6
-14 -17 6 -11 19 -11 25 0 32 15 9 23 -9 17 -38z m-1601 -30 c29 -18 54 -33
57 -33 3 0 35 -18 71 -40 36 -22 68 -40 70 -40 3 0 24 -12 47 -26 44 -28 205
-122 278 -162 25 -14 50 -28 55 -32 6 -4 30 -18 55 -32 25 -14 90 -51 145 -83
55 -32 110 -63 122 -69 22 -10 23 -17 23 -130 0 -90 -3 -117 -12 -113 -35 13
-974 560 -980 570 -4 7 -8 63 -8 125 0 88 3 112 13 106 6 -4 35 -23 64 -41z
m1223 -12 l0 -39 -30 11 c-21 8 -30 18 -30 33 0 21 5 24 53 33 4 0 7 -17 7
-38z m30 -12 c0 -21 -4 -39 -10 -39 -5 0 -10 21 -10 46 0 27 4 43 10 39 6 -3
10 -24 10 -46z m-172 29 c-14 -11 -15 -15 -3 -25 10 -9 14 -8 18 8 7 26 27 24
27 -2 0 -12 -8 -23 -20 -26 -11 -3 -20 -9 -20 -14 0 -5 -4 -9 -10 -9 -5 0 -10
11 -10 25 0 33 -10 32 -47 -7 -37 -39 -53 -69 -53 -98 0 -20 -3 -19 -40 11
l-39 32 72 41 c40 23 83 49 97 59 28 19 53 24 28 5z m270 -24 c41 -32 44 -74
6 -109 -31 -29 -44 -31 -44 -8 0 17 -27 53 -40 53 -4 0 -6 -10 -6 -22 1 -14
-10 -28 -29 -39 -29 -17 -31 -17 -77 10 l-48 28 25 13 c23 12 31 11 71 -8 54
-26 51 -26 51 -4 -1 9 0 41 1 71 2 53 2 53 30 46 15 -3 42 -18 60 -31z m364
-26 c-6 -7 -24 -21 -41 -31 -24 -14 -31 -15 -31 -5 0 8 17 24 37 35 39 23 54
23 35 1z m-662 -10 c0 -13 -5 -30 -10 -38 -7 -11 -10 -5 -10 23 0 20 5 37 10
37 6 0 10 -10 10 -22z m90 -7 c0 -10 -7 -21 -15 -25 -15 -5 -22 24 -8 37 12
13 23 7 23 -12z m-27 -113 c5 7 5 22 2 33 -5 16 -3 20 6 17 8 -3 14 -19 14
-39 0 -26 -4 -33 -17 -31 -9 1 -19 -2 -23 -8 -3 -5 -16 -9 -28 -9 -17 1 -18 2
-4 6 14 4 17 16 17 72 0 90 14 100 20 14 3 -40 8 -63 13 -55z m-98 46 c-4 -25
-11 -34 -25 -34 -13 0 -20 7 -20 19 0 24 16 36 24 19 3 -7 3 -3 0 10 -3 13 0
30 8 39 12 15 13 15 16 -1 2 -10 1 -33 -3 -52z m452 30 c61 -35 83 -57 69 -71
-6 -7 -61 29 -116 76 -47 40 -32 39 47 -5z m-981 0 c-4 -12 -2 -15 9 -10 27
10 16 -3 -16 -20 -17 -8 -28 -11 -25 -5 4 6 2 11 -4 11 -6 0 -8 5 -4 12 6 9 9
9 12 0 2 -7 8 -12 13 -12 6 0 7 5 4 10 -3 6 -3 15 0 20 10 16 18 12 11 -6z
m584 -39 c0 -30 -4 -55 -10 -55 -11 0 -14 93 -3 103 12 12 13 8 13 -48z m421
-53 c-35 -29 -522 -302 -537 -302 -13 0 -180 88 -203 107 -3 2 4 9 13 16 16
12 27 8 84 -30 63 -41 104 -53 116 -34 3 4 6 32 7 60 1 29 6 47 10 40 5 -8 26
-1 72 25 36 20 68 36 70 36 3 0 7 -15 9 -32 4 -46 38 -53 38 -8 0 17 4 29 8
26 4 -3 53 25 107 62 78 53 101 74 108 99 l9 31 53 -41 c46 -37 51 -43 36 -55z
m-931 34 c0 -66 19 -92 95 -132 58 -31 65 -38 39 -48 -15 -6 -284 139 -284
153 0 6 129 80 143 81 4 0 7 -24 7 -54z m46 35 c16 -15 328 -193 339 -194 12
0 7 -98 -5 -110 -9 -11 -108 44 -139 77 -15 16 -24 38 -25 65 -3 54 -26 80
-26 29 0 -60 -19 -65 -94 -22 -73 42 -77 49 -81 117 -3 46 8 59 31 38z m770
-20 c-9 -14 -185 -131 -197 -131 -5 0 -9 7 -9 15 0 27 -60 40 -80 16 -3 -3
-32 -19 -66 -35 -52 -24 -64 -26 -84 -16 -22 12 -21 13 28 41 33 18 64 28 89
28 102 -2 263 42 298 81 18 20 33 21 21 1z m-136 -33 c0 -4 -6 -8 -14 -8 -8 0
-21 -3 -30 -6 -10 -4 -16 -1 -16 8 0 10 11 15 30 15 17 0 30 -4 30 -9z m-210
-13 c17 -20 -9 -21 -36 0 -19 14 -19 14 2 15 12 0 27 -7 34 -15z m607 -30 c0
-19 -4 -35 -9 -35 -4 0 -8 16 -8 35 0 19 4 35 8 35 5 0 9 -16 9 -35z m-637 15
c17 -10 19 -9 -42 -44 -40 -22 -51 -25 -70 -15 -21 11 -21 12 -3 25 16 12 20
12 28 -1 4 -8 13 -15 20 -15 8 0 8 3 2 8 -38 26 25 68 65 42z m585 -207 c-12
-50 -24 -18 -28 75 l-3 97 -1 -105 c0 -68 -4 -105 -12 -108 -8 -3 -11 31 -11
112 l0 115 28 15 27 14 3 -96 c2 -54 0 -107 -3 -119z m-65 57 c0 -73 -4 -120
-10 -120 -6 0 -10 44 -10 113 0 100 4 127 17 127 2 0 3 -54 3 -120z m-31 -12
c-1 -62 -3 -105 -6 -95 -5 20 -12 21 -33 6 -13 -9 -12 -10 3 -5 23 7 22 -1 -2
-13 -18 -10 -19 -5 -20 89 -2 99 -2 99 26 114 15 8 29 15 31 16 1 0 1 -51 1
-112z m-70 -25 c-3 -147 -16 -165 -18 -25 -1 81 2 122 9 122 7 0 10 -33 9 -97z
m-656 31 c-22 -17 -29 -17 -55 -3 -20 11 -20 13 18 35 l39 24 8 -21 c5 -16 2
-25 -10 -35z m627 -69 c0 -70 -4 -115 -10 -115 -6 0 -10 40 -10 100 0 60 -4
100 -10 100 -6 0 -10 -43 -10 -109 0 -63 -4 -112 -10 -116 -6 -4 -10 34 -10
108 0 107 1 116 23 130 12 9 25 16 30 16 4 1 7 -51 7 -114z m-80 -159 c-7 -7
-10 28 -10 110 0 67 3 124 8 128 4 4 8 -45 10 -110 2 -71 -1 -121 -8 -128z
m-20 104 c0 -89 -3 -120 -12 -120 -10 0 -12 25 -10 100 2 69 0 100 -8 100 -8
0 -11 -34 -9 -107 1 -72 -2 -108 -10 -111 -8 -3 -11 31 -11 112 0 92 3 116 14
116 7 0 19 7 26 15 7 8 14 15 16 15 2 0 4 -54 4 -120z m-70 -40 c0 -73 -4
-120 -10 -120 -6 0 -10 44 -10 113 0 100 4 127 17 127 2 0 3 -54 3 -120z m-30
-20 c0 -73 -4 -120 -10 -120 -6 0 -10 42 -10 106 0 73 -3 103 -11 98 -7 -4 -9
-37 -8 -87 3 -57 0 -82 -9 -85 -9 -3 -12 20 -12 87 0 94 1 96 58 120 1 1 2
-53 2 -119z m-80 -104 c-7 -7 -10 18 -10 80 0 118 14 132 18 18 2 -51 -1 -91
-8 -98z m-22 49 c-5 -98 -8 -118 -24 -130 -11 -8 -22 -15 -26 -15 -5 0 -8 52
-8 115 l0 114 28 15 c15 8 29 15 31 16 2 0 1 -52 -1 -115z m428 89 c37 -22 45
-31 42 -51 -2 -20 -26 -39 -123 -95 -144 -85 -193 -95 -269 -57 -25 12 -46 26
-46 30 0 18 36 18 67 -1 19 -11 49 -20 66 -19 40 1 240 117 245 142 2 11 -9
24 -33 38 -27 16 -33 24 -23 30 19 13 25 11 74 -17z m-41 -38 c11 -8 16 -16
12 -16 -16 0 -67 31 -67 41 0 11 21 1 55 -25z m-487 -100 c2 -75 -1 -116 -8
-116 -6 0 -10 42 -10 112 0 81 -3 109 -11 101 -7 -7 -10 -47 -7 -112 2 -76 0
-101 -9 -101 -10 0 -13 31 -13 119 l0 120 28 -3 27 -3 3 -117z m32 10 c0 -66
-4 -117 -10 -121 -6 -4 -10 37 -10 114 0 74 4 121 10 121 6 0 10 -45 10 -114z
m415 82 c14 -6 25 -14 25 -17 0 -10 -197 -121 -213 -121 -7 0 -21 6 -32 13
-16 13 -8 19 86 75 57 33 105 61 106 61 1 1 14 -4 28 -11z m-204 -198 c10 0
19 -4 19 -10 0 -5 -6 -10 -12 -10 -22 0 -138 58 -138 69 0 5 25 -3 56 -20 31
-16 65 -29 75 -29z"/>
<path d="M1010 1140 c0 -5 -6 -10 -14 -10 -16 0 -76 -47 -76 -60 0 -15 27 -5
59 23 18 15 42 27 53 27 17 0 18 2 8 15 -14 17 -30 20 -30 5z"/>
<path d="M430 647 l0 -43 93 -60 c84 -56 283 -164 301 -164 4 0 6 21 4 46 l-3
46 -105 55 c-58 31 -142 80 -187 110 -45 29 -87 53 -92 53 -6 0 -11 -19 -11
-43z m60 -28 c0 -24 -4 -30 -16 -25 -9 3 -18 6 -20 6 -2 0 -4 16 -4 35 0 33 2
35 20 25 13 -7 20 -21 20 -41z m208 -98 c55 -28 62 -35 62 -61 0 -17 -3 -30
-7 -30 -10 0 -163 86 -215 120 -31 20 -38 31 -38 57 l0 33 68 -44 c37 -24 95
-58 130 -75z m115 -84 c6 -38 5 -39 -17 -31 -10 4 -16 18 -16 40 0 43 26 36
33 -9z"/>
<path d="M842 674 c3 -46 5 -49 58 -81 72 -43 80 -42 80 10 0 42 0 42 -71 80
l-70 39 3 -48z m34 11 c4 -8 10 -12 15 -9 5 3 23 -9 39 -26 17 -18 27 -24 23
-15 -4 12 -3 16 4 12 6 -4 11 -23 11 -43 0 -32 -1 -34 -16 -20 -17 14 -21 16
-42 16 -11 0 -60 74 -60 90 0 15 20 12 26 -5z"/>
<path d="M1040 561 c0 -33 5 -44 33 -64 37 -29 91 -57 107 -57 7 0 10 16 8 42
-3 40 -6 44 -68 80 -36 21 -68 38 -72 38 -5 0 -8 -18 -8 -39z m69 -43 c28 -47
12 -50 -24 -5 -16 20 -23 24 -19 12 4 -11 4 -17 -1 -13 -4 4 -10 24 -12 45 -4
38 -4 38 15 18 10 -11 29 -37 41 -57z m37 1 c8 -16 17 -29 20 -29 2 0 0 9 -6
20 -8 16 -8 18 4 14 16 -6 18 -76 2 -71 -10 3 -64 85 -65 99 -2 18 31 -7 45
-33z"/>
<path d="M1700 494 c0 -47 4 -73 10 -69 6 3 10 37 10 76 0 39 -4 69 -10 69 -6
0 -10 -32 -10 -76z"/>
<path d="M1308 334 c-5 -4 -8 -48 -7 -98 0 -70 3 -85 10 -67 11 28 8 177 -3
165z"/>
<path d="M2742 2116 c6 -14 17 -27 24 -30 12 -4 11 0 -1 24 -19 36 -40 41 -23
6z"/>
<path d="M2894 1528 c1 -240 -25 -357 -124 -554 -108 -212 -276 -386 -489
-503 -89 -48 -230 -104 -296 -115 -16 -3 -43 -10 -60 -14 -16 -5 -35 -7 -41
-5 -6 2 -14 -3 -17 -12 -9 -22 45 -20 141 5 401 106 728 408 857 795 48 142
63 244 60 404 -2 138 -8 181 -24 181 -4 0 -7 -82 -7 -182z"/>
</g>
</svg>
