<?xml version="1.0" standalone="no"?>
<!DOCTYPE svg PUBLIC "-//W3C//DTD SVG 20010904//EN"
 "http://www.w3.org/TR/2001/REC-SVG-20010904/DTD/svg10.dtd">
<svg version="1.0" xmlns="http://www.w3.org/2000/svg"
 width="300.000000pt" height="541.000000pt" viewBox="0 0 300.000000 541.000000"
 preserveAspectRatio="xMidYMid meet">
<metadata>
Created by potrace 1.10, written by Peter Selinger 2001-2011
</metadata>
<g transform="translate(0.000000,541.000000) scale(0.100000,-0.100000)"
fill="#000000" stroke="none">
<path d="M1286 5339 c-37 -29 -56 -71 -56 -124 0 -61 23 -105 55 -105 39 0 98
98 99 163 1 40 -3 52 -23 68 -30 24 -42 24 -75 -2z m44 -18 c0 -5 -4 -20 -9
-33 -4 -13 -5 -32 -1 -43 8 -21 -7 -75 -20 -75 -14 0 -31 28 -34 58 -4 26 -2
29 17 24 18 -4 20 -2 10 9 -16 17 -17 41 -1 57 14 14 38 16 38 3z"/>
<path d="M1723 5118 c-17 -18 -36 -44 -43 -57 -16 -31 -5 -117 20 -159 42 -69
166 -116 244 -91 22 7 42 14 44 15 1 1 -20 36 -48 78 -28 42 -73 115 -101 161
-32 56 -56 85 -67 85 -10 0 -32 -15 -49 -32z m72 -18 c4 -6 2 -16 -3 -23 -5
-7 -11 -22 -14 -33 -5 -20 -3 -21 26 -13 38 11 36 11 36 0 0 -5 -13 -12 -30
-16 -34 -7 -36 -15 -16 -53 18 -34 64 -68 107 -79 33 -9 53 -33 26 -33 -9 0
-17 -5 -19 -11 -6 -19 -102 9 -137 40 -47 42 -63 90 -51 148 15 67 55 105 75
73z m65 -96 c0 -8 -43 -43 -52 -44 -15 0 -8 23 10 36 18 14 42 18 42 8z m3
-55 c-13 -13 -26 -18 -34 -14 -9 6 -7 11 6 22 11 7 26 13 34 13 12 0 11 -5 -6
-21z"/>
<path d="M1476 4811 c-3 -5 10 -35 29 -67 61 -100 111 -300 98 -390 -6 -44 2
-55 25 -32 37 37 -11 291 -80 420 -39 72 -59 91 -72 69z"/>
<path d="M1178 4788 c-33 -19 -38 -20 -52 -5 -9 9 -23 14 -31 11 -12 -5 -34
-54 -51 -112 -3 -10 -8 -10 -22 -1 -33 21 -50 5 -57 -54 -11 -87 14 -131 30
-54 4 17 10 34 14 37 3 3 11 14 17 25 6 11 17 20 25 20 8 0 21 14 29 31 22 45
47 66 69 59 12 -4 21 0 26 12 7 16 9 15 15 -7 4 -16 1 -34 -9 -50 l-16 -25 27
20 c18 14 26 26 23 40 -4 17 -3 16 6 -2 9 -16 21 -23 43 -23 l31 -1 -29 -23
-28 -23 25 0 c15 0 32 7 40 16 38 44 22 76 -32 65 -30 -6 -33 -5 -31 17 5 57
-4 61 -62 27z"/>
<path d="M2309 4640 c-70 -37 -95 -132 -65 -250 17 -70 27 -168 17 -175 -5 -2
-16 14 -25 38 -9 23 -33 69 -55 102 -22 34 -44 84 -50 115 -22 103 -88 164
-176 164 -69 0 -115 -26 -115 -64 0 -47 52 -92 150 -128 125 -46 129 -50 180
-138 45 -79 147 -354 131 -354 -4 0 -16 9 -26 20 -10 12 -34 30 -52 41 -21 13
-45 45 -68 87 -36 69 -70 99 -137 123 -72 25 -150 -27 -147 -98 2 -62 77 -122
153 -124 28 -1 74 -2 102 -3 41 -1 62 -8 100 -35 98 -69 95 -63 129 -256 8
-43 12 -81 10 -84 -8 -7 -45 43 -50 69 -26 116 -58 157 -143 179 -96 24 -148
-13 -130 -94 16 -72 53 -97 179 -118 78 -14 86 -18 120 -55 36 -41 36 -41 47
-179 7 -77 12 -213 12 -304 1 -132 3 -160 13 -144 14 24 16 408 3 625 -7 123
-6 160 9 244 18 97 19 101 63 140 80 74 121 190 88 254 -15 29 -21 32 -61 32
-37 0 -52 -6 -80 -32 -28 -27 -37 -45 -46 -93 -13 -69 -7 -169 11 -190 10 -12
10 -32 1 -92 -17 -111 -17 -111 -41 31 -6 38 -25 108 -41 155 -29 80 -30 93
-25 180 4 52 11 101 15 109 5 9 5 26 1 38 -6 14 0 55 16 120 37 144 38 147 51
88 13 -58 -2 -128 -34 -162 -15 -15 -27 -52 -19 -59 12 -12 60 59 77 114 20
64 12 124 -21 163 -21 24 -25 24 -71 0z m1 -135 c-19 -69 -38 -125 -43 -125
-5 0 -8 38 -5 88 3 70 8 92 23 108 11 12 27 30 34 42 8 12 17 19 20 17 2 -3
-11 -61 -29 -130z m-291 5 c69 -65 76 -86 14 -47 -47 29 -70 38 -106 43 -42 6
-49 13 -45 47 7 71 22 66 137 -43z m-6 78 c12 -13 25 -22 29 -21 10 4 61 -48
54 -54 -3 -3 1 -15 9 -27 33 -46 12 -45 -32 1 -27 27 -68 66 -92 86 -43 36
-44 37 -18 37 15 0 37 -10 50 -22z m505 -346 c19 19 15 5 -24 -79 -19 -43 -42
-103 -50 -132 -17 -65 -40 -95 -31 -41 4 19 7 69 8 110 2 80 11 110 34 110 7
0 17 9 20 21 5 14 10 17 19 10 9 -7 16 -7 24 1z m38 -59 c-4 -57 -15 -84 -73
-174 l-23 -34 0 27 c0 37 80 238 95 238 2 0 3 -26 1 -57z m-535 -14 c5 -11 14
-19 20 -19 6 0 6 7 -1 20 -18 33 7 23 27 -10 10 -17 23 -28 29 -26 7 3 15 -3
18 -12 3 -9 11 -25 18 -34 24 -33 -2 -30 -84 10 -46 23 -96 46 -111 51 -15 6
-27 15 -27 20 0 14 32 23 44 11 12 -12 27 -13 25 -2 -5 27 25 21 42 -9z m27
-98 c45 -24 82 -46 82 -50 0 -3 -38 -2 -85 3 -72 8 -85 13 -85 28 0 10 -7 18
-15 18 -16 0 -35 30 -35 54 0 19 12 15 138 -53z m149 -314 c45 -44 81 -82 79
-85 -5 -4 -146 42 -177 59 -15 8 -18 13 -10 19 9 5 9 9 -3 13 -24 10 -19 26 7
20 l22 -5 -22 16 c-19 14 -21 20 -11 36 15 23 14 24 115 -73z m33 43 c30 -31
50 -60 50 -73 0 -12 -4 -17 -8 -12 -4 6 -35 35 -69 64 -35 30 -63 58 -63 62 0
24 45 3 90 -41z"/>
<path d="M1098 4617 c-18 -18 -44 -46 -57 -62 -38 -46 -141 -208 -147 -232 -9
-35 -19 -27 -31 25 -5 26 -13 55 -17 64 -5 11 0 24 18 39 14 13 26 29 26 37 0
8 6 12 14 9 9 -4 17 2 21 14 4 10 11 16 17 13 5 -3 2 8 -6 25 -31 58 -76 29
-76 -49 0 -25 -3 -29 -27 -27 l-28 2 1 -65 c1 -44 10 -84 26 -123 23 -55 24
-61 11 -130 -17 -99 -17 -177 1 -177 10 0 15 23 21 82 11 136 54 191 202 260
78 37 100 59 71 72 -14 6 -8 11 69 59 45 28 50 42 20 61 -13 8 -24 1 -58 -37
-24 -26 -49 -47 -56 -47 -7 0 -13 -7 -13 -15 0 -8 5 -15 10 -15 19 0 10 -20
-12 -29 -43 -17 -123 -40 -126 -36 -10 9 63 119 89 134 19 12 25 21 19 27 -7
7 2 25 26 52 19 23 32 42 27 42 -10 0 -98 -114 -133 -174 -13 -21 -41 -75 -63
-120 -42 -86 -60 -90 -32 -7 26 78 141 259 205 321 3 3 11 13 19 23 22 28 5
19 -31 -16z"/>
<path d="M1280 4641 c0 -5 -14 -14 -30 -21 -17 -7 -33 -17 -37 -23 -3 -6 -1
-7 6 -3 14 9 61 18 61 12 0 -2 -23 -19 -51 -37 -63 -40 -50 -50 20 -15 58 30
86 63 69 83 -12 15 -38 18 -38 4z"/>
<path d="M485 4240 c-17 -52 51 -195 126 -265 80 -75 97 -54 23 28 -54 60 -93
132 -109 201 -12 54 -29 69 -40 36z"/>
<path d="M1230 4031 c0 -6 5 -13 10 -16 15 -9 2 -25 -19 -25 -21 0 -92 -73
-114 -116 -57 -111 -6 -242 115 -294 62 -27 114 -30 181 -11 59 17 102 58 136
131 32 70 31 126 -4 194 -25 47 -25 51 -9 63 23 17 11 28 -14 14 -12 -6 -40
-11 -63 -11 -32 0 -40 -3 -32 -11 6 -6 9 -18 6 -27 -6 -15 7 -15 48 2 12 6 20
-3 33 -35 9 -23 15 -44 12 -46 -2 -2 2 -16 9 -30 11 -20 11 -31 2 -47 -6 -12
-12 -25 -12 -31 -5 -45 -60 -108 -115 -131 -48 -20 -157 -8 -218 25 -29 16
-28 23 3 15 30 -8 34 10 5 28 -11 7 -20 21 -20 31 0 11 -5 15 -11 11 -6 -3
-16 0 -21 7 -10 14 -7 2 9 -37 5 -14 3 -14 -15 2 -14 11 -18 23 -13 33 4 9 7
39 6 66 -2 54 9 81 52 133 l28 33 54 -22 c49 -21 52 -24 47 -50 -3 -16 -1 -31
3 -34 10 -5 20 61 12 74 -4 4 -17 11 -31 14 -14 3 -34 13 -45 21 -19 15 -18
15 18 16 24 0 40 -5 43 -15 4 -8 11 -15 16 -15 6 0 8 6 5 14 -3 8 -1 17 6 19
7 2 -4 11 -23 19 -19 8 -41 22 -49 31 -15 19 -31 22 -31 8z"/>
<path d="M1367 4023 c-3 -4 -8 -25 -12 -45 -6 -30 -4 -39 10 -44 23 -9 33 4
37 51 2 30 -1 40 -14 43 -9 2 -18 -1 -21 -5z"/>
<path d="M1355 3880 c-20 -22 -14 -26 14 -8 14 9 23 8 42 -5 26 -19 49 -22 49
-8 0 5 -13 12 -30 16 -16 4 -32 11 -35 16 -9 14 -20 11 -40 -11z"/>
<path d="M1249 3810 c-1 -11 -2 -25 -3 -32 -1 -6 4 -13 10 -15 7 -2 13 11 16
32 3 24 0 35 -9 35 -7 0 -14 -9 -14 -20z"/>
<path d="M1177 3806 c-10 -25 -9 -74 2 -80 14 -9 23 46 13 74 -7 20 -9 21 -15
6z"/>
<path d="M600 3752 c-75 -37 -116 -180 -105 -367 3 -60 12 -135 20 -165 7 -30
16 -77 18 -105 2 -27 8 -59 13 -70 4 -11 8 -35 8 -54 0 -20 8 -43 18 -53 11
-11 18 -33 18 -58 0 -25 5 -43 14 -46 8 -3 17 -20 20 -37 4 -18 16 -63 27
-102 64 -211 86 -263 192 -445 86 -147 90 -153 121 -163 16 -5 37 -18 48 -29
17 -17 22 -18 29 -7 5 8 4 15 -1 17 -6 2 -10 12 -10 22 0 24 -25 43 -48 35
-17 -5 -25 6 -51 70 -17 41 -37 98 -43 127 -12 59 -20 715 -9 788 7 45 -10
331 -21 360 -3 8 -11 35 -18 60 -15 56 -65 157 -93 189 -22 24 -75 51 -99 51
-7 0 -29 -8 -48 -18z m90 -34 c30 -18 47 -39 73 -93 35 -70 59 -138 73 -205 5
-19 8 -251 9 -515 0 -264 4 -490 8 -502 5 -13 5 -23 0 -23 -8 0 -59 131 -79
205 -6 22 -16 39 -22 38 -7 -2 -12 4 -12 13 0 9 5 12 12 8 8 -5 9 -2 4 12 -5
10 -10 26 -12 34 -2 8 -10 44 -18 80 -28 120 -55 441 -58 680 -1 98 -4 135
-10 115 -11 -42 -9 -338 4 -465 6 -58 12 -130 14 -160 5 -67 13 -130 21 -150
3 -8 5 -25 4 -36 -2 -20 28 -149 44 -186 4 -10 3 -18 -2 -18 -11 0 -47 115
-72 235 -11 50 -26 115 -35 145 -12 45 -15 49 -15 24 -1 -17 6 -51 14 -74 20
-57 19 -83 -2 -45 -27 50 -61 191 -68 286 -3 37 -8 77 -11 90 -11 49 -15 87
-18 190 -1 58 -6 111 -10 117 -4 7 -2 10 6 7 10 -4 14 10 15 51 1 31 8 62 14
70 6 8 8 14 5 14 -4 0 0 7 8 16 9 8 16 23 16 31 0 9 3 13 6 10 4 -3 16 0 28 8
25 19 20 19 66 -7z"/>
<path d="M1790 3698 c-25 -27 -27 -103 -3 -138 82 -124 151 -120 145 8 -5 121
-83 193 -142 130z m50 -43 c0 -15 9 -31 25 -41 18 -12 25 -25 25 -48 0 -41
-24 -44 -57 -8 -25 27 -30 44 -12 40 6 -2 14 3 17 11 3 9 0 11 -7 6 -18 -11
-41 26 -30 47 14 27 39 22 39 -7z"/>
<path d="M1270 3685 c0 -8 -9 -19 -20 -25 -22 -12 -27 -30 -7 -30 6 1 22 16
34 35 17 27 19 35 8 35 -8 0 -15 -7 -15 -15z"/>
<path d="M2126 3368 c-2 -7 -9 -33 -15 -58 -19 -72 -52 -152 -83 -197 -32 -47
-33 -53 -15 -53 46 0 137 196 137 294 0 26 -18 36 -24 14z"/>
<path d="M1472 3300 c-9 -17 -22 -28 -29 -26 -22 9 -36 -23 -31 -69 5 -39 3
-44 -16 -47 -23 -3 -24 -29 -4 -82 9 -23 9 -31 0 -34 -7 -2 -12 -9 -12 -16 0
-18 82 -128 130 -173 30 -30 52 -67 86 -149 25 -60 50 -113 55 -118 19 -20 18
2 -2 55 -11 30 -32 87 -46 127 l-25 73 30 67 c25 57 30 80 31 150 0 68 -2 82
-15 82 -12 0 -14 5 -9 18 13 30 10 56 -6 60 -12 2 -27 -15 -48 -55 -17 -31
-29 -62 -27 -68 2 -5 12 9 22 32 11 24 22 43 26 43 4 0 12 -17 19 -39 8 -28 8
-43 0 -59 -14 -26 -14 -35 0 -26 8 5 9 -9 4 -47 -4 -30 -11 -55 -16 -57 -5 -2
-9 -16 -9 -31 0 -15 -3 -31 -7 -34 -10 -10 -29 50 -64 203 -17 74 -33 137 -35
139 -10 11 22 -176 50 -291 8 -32 11 -58 7 -58 -4 0 -21 26 -36 58 -16 31 -36
68 -45 82 -9 14 -19 34 -22 45 -3 11 -9 29 -13 40 -5 15 -1 14 19 -8 31 -33
33 -25 7 24 -19 35 -19 36 1 48 11 7 17 19 14 27 -3 8 -3 27 0 42 7 36 58 59
80 37 8 -7 14 -19 14 -25 0 -6 5 -8 10 -5 6 3 10 1 10 -4 0 -23 18 -10 23 17
6 28 -17 57 -38 48 -6 -2 -17 5 -23 15 -18 28 -40 23 -60 -11z"/>
<path d="M1129 3213 c-57 -48 -88 -155 -56 -195 24 -31 50 -30 91 4 60 50 83
130 54 193 -15 33 -48 33 -89 -2z m61 -19 c0 -3 -14 -26 -32 -50 -26 -36 -30
-48 -21 -66 9 -20 7 -23 -13 -24 -16 -1 -24 3 -24 15 0 29 31 106 47 119 17
12 43 16 43 6z"/>
<path d="M2020 2930 c-15 -15 -20 -33 -20 -69 0 -28 4 -52 9 -56 6 -3 8 12 6
35 -3 31 1 46 16 61 50 50 144 -4 179 -103 27 -75 -41 -182 -140 -219 -79 -30
-92 -32 -138 -19 -77 20 -154 135 -136 204 7 29 58 83 88 92 22 7 48 -19 40
-41 -4 -10 24 -31 31 -23 7 7 -31 78 -42 78 -6 0 -13 5 -15 11 -5 15 -57 3
-83 -19 -89 -75 -86 -167 6 -267 73 -79 146 -91 270 -44 100 38 179 147 164
228 -11 60 -53 126 -95 150 -49 27 -113 28 -140 1z"/>
<path d="M2085 2860 c4 -12 1 -29 -6 -38 -8 -9 -1 -6 14 7 16 14 27 19 27 12
0 -7 -10 -21 -22 -32 l-23 -19 28 10 c36 13 47 13 47 0 0 -5 -11 -12 -25 -16
-32 -8 -33 -23 -1 -17 13 3 27 0 30 -6 5 -7 -2 -11 -16 -11 -13 0 -30 -5 -38
-10 -11 -7 -7 -10 18 -10 17 0 32 -4 32 -10 0 -5 -11 -10 -24 -10 -40 0 -56
-11 -56 -36 0 -13 5 -24 10 -24 6 0 9 5 8 11 -2 6 3 14 10 16 6 3 12 -2 12
-11 0 -9 4 -16 9 -16 13 0 41 47 41 70 0 11 5 20 10 20 23 0 -3 75 -36 108
-38 37 -58 42 -49 12z"/>
<path d="M1853 2788 c-32 -41 -16 -99 44 -159 31 -33 38 -36 66 -28 38 11 53
24 37 34 -6 4 -20 -1 -30 -10 -12 -11 -20 -13 -25 -6 -3 6 1 14 9 17 9 3 16
13 16 22 0 12 -5 11 -23 -6 -27 -26 -37 -28 -37 -7 0 8 6 15 14 15 7 0 19 7
26 15 18 21 3 19 -30 -5 -16 -11 -31 -16 -34 -11 -4 5 10 19 29 31 43 27 40
38 -4 16 -34 -18 -51 -20 -51 -7 0 5 14 14 30 20 40 13 38 18 -5 13 -21 -3
-35 0 -35 7 0 6 15 12 33 12 30 2 30 2 5 6 -16 2 -28 9 -28 14 0 6 8 8 19 4
12 -3 21 0 25 10 7 19 -37 21 -51 3z"/>
<path d="M1258 2708 c-30 -35 -68 -79 -84 -98 -16 -19 -54 -65 -86 -101 -61
-69 -68 -88 -42 -110 14 -12 25 -5 83 56 36 39 93 103 126 143 33 41 70 86 82
101 25 30 21 71 -6 71 -9 0 -42 -28 -73 -62z"/>
<path d="M2490 2733 c-8 -3 -33 -14 -55 -25 -25 -13 -41 -16 -43 -9 -12 35
-87 -12 -97 -60 -4 -18 -16 -35 -30 -41 -23 -10 -45 -46 -45 -73 0 -8 -7 -11
-20 -8 -29 8 -50 -14 -50 -51 0 -36 -8 -50 -32 -59 -23 -8 -23 -55 -2 -126 14
-48 14 -56 -2 -99 -10 -26 -30 -63 -46 -83 -27 -36 -37 -69 -19 -69 14 0 20
-36 12 -73 -5 -18 -4 -44 2 -57 9 -24 10 -24 16 -5 5 11 9 47 10 80 2 63 17
125 30 125 11 0 39 70 39 99 1 37 163 289 215 335 7 6 23 24 37 41 22 27 23
28 3 11 -13 -11 -23 -16 -23 -12 0 4 -14 -9 -31 -29 -18 -20 -46 -51 -63 -69
-41 -44 -48 -53 -79 -106 -15 -25 -38 -58 -51 -75 l-25 -30 -1 48 c0 28 4 47
11 47 6 0 8 -7 5 -16 -3 -9 -2 -12 5 -9 6 4 7 19 4 36 -4 18 -3 29 4 29 6 0
11 15 11 34 0 38 24 70 46 62 10 -4 14 2 14 19 0 28 20 45 20 18 1 -12 5 -8
14 12 l14 30 10 -25 11 -25 0 29 c1 47 23 107 37 102 7 -3 15 2 18 11 10 26
20 5 19 -40 l-1 -42 9 36 c7 24 19 41 37 49 15 7 35 16 45 22 26 13 90 20 104
10 8 -5 10 -17 5 -37 -6 -21 -4 -38 7 -57 23 -40 6 -51 -90 -54 -104 -3 -116
-14 -15 -14 59 0 75 -3 69 -12 -4 -7 -8 -17 -8 -23 0 -6 -38 -11 -87 -13 -103
-3 -120 -17 -21 -16 38 0 79 -2 92 -5 23 -6 23 -7 6 -25 -27 -27 -89 -64 -111
-66 -37 -4 -79 0 -94 10 -13 9 -13 12 1 23 8 6 18 21 22 32 10 29 -34 -25 -90
-109 -43 -66 -44 -70 -27 -84 18 -14 18 -14 -3 -9 -14 3 -29 -3 -44 -19 -12
-13 -20 -26 -18 -28 3 -3 28 2 56 10 34 10 54 22 58 35 4 10 14 19 24 19 34 0
141 42 141 55 0 24 -16 25 -56 5 -21 -11 -45 -20 -54 -20 -8 0 -28 -9 -44 -19
-26 -17 -56 -19 -56 -2 0 3 13 21 29 40 17 19 28 38 25 43 -7 11 51 10 103 -2
38 -9 47 -7 95 21 55 32 98 67 98 80 0 4 -9 11 -20 14 -28 9 -25 16 25 54 53
39 61 77 20 87 -23 6 -24 8 -10 27 18 26 19 69 3 85 -12 12 -89 15 -118 5z"/>
<path d="M450 2604 c-15 -37 -12 -140 5 -213 16 -68 71 -181 88 -181 10 0 11
-2 -29 120 -22 71 -27 103 -27 193 0 83 -3 107 -14 107 -7 0 -18 -12 -23 -26z"/>
<path d="M1512 2568 c-29 -29 -1 -150 44 -189 39 -34 62 -33 84 3 25 41 25 65
1 120 -27 62 -97 98 -129 66z m73 -90 c4 -24 15 -48 24 -55 13 -10 10 -11 -16
-3 -18 5 -33 6 -33 2 0 -4 -6 4 -13 18 -35 66 -23 146 15 100 9 -11 19 -39 23
-62z"/>
<path d="M1438 2369 c-13 -7 -17 -21 -15 -62 5 -81 70 -170 113 -153 10 4 29
-17 62 -69 26 -40 52 -74 58 -74 5 -1 20 -21 32 -46 12 -25 26 -45 30 -45 15
0 32 71 22 91 -17 31 -11 44 9 22 11 -12 25 -23 31 -25 7 -2 2 -20 -14 -48
-14 -25 -26 -54 -26 -65 0 -12 8 -4 19 22 11 23 29 48 40 55 12 7 21 22 21 33
0 20 -37 52 -53 47 -5 -1 -6 2 -2 8 3 5 1 19 -6 31 -13 25 0 20 37 -13 21 -19
22 -19 28 8 5 18 2 32 -9 43 -8 10 -15 26 -15 36 0 17 1 17 20 0 17 -16 20
-16 20 -2 0 9 -4 19 -10 22 -16 10 -12 28 5 21 8 -3 15 -2 15 2 0 5 7 17 16
28 14 18 15 17 11 -13 -3 -32 5 -43 18 -23 3 6 14 10 23 10 12 -1 6 -10 -21
-33 -45 -39 -48 -53 -6 -32 51 27 56 11 6 -24 -26 -17 -47 -38 -47 -46 0 -7
-3 -21 -7 -31 -5 -13 3 -11 40 11 64 37 84 26 23 -13 -28 -18 -53 -32 -57 -32
-4 0 -10 -11 -13 -25 -4 -14 -11 -25 -16 -25 -14 0 -62 -87 -58 -106 2 -11 13
-1 36 30 17 26 32 51 32 56 0 6 7 10 15 10 24 0 17 -27 -20 -76 -32 -41 -47
-94 -27 -94 4 0 22 29 40 65 17 36 36 65 40 65 22 0 17 -17 -24 -80 -49 -76
-60 -116 -16 -54 16 21 36 45 45 53 9 7 17 21 17 31 0 24 11 32 26 19 15 -12
25 2 22 31 -1 8 0 24 1 35 2 17 4 15 19 -10 16 -29 17 -29 20 -7 2 14 -3 29
-13 36 -15 11 -18 32 -19 132 -1 123 -10 155 -45 174 -28 14 -75 -5 -104 -43
-34 -44 -97 -172 -97 -196 0 -11 5 -23 10 -26 6 -3 10 -17 10 -31 0 -13 -4
-24 -10 -24 -5 0 -10 10 -10 22 0 12 -6 29 -14 37 -18 20 -10 191 9 191 24 0
67 58 72 99 7 50 -15 81 -59 81 -25 0 -32 -7 -54 -53 -19 -43 -22 -60 -15 -83
12 -34 19 -214 9 -214 -4 0 -10 10 -14 23 -3 12 -16 35 -28 52 -11 16 -25 37
-31 46 -5 9 -33 50 -61 90 -66 96 -67 98 -51 95 12 -1 37 -25 76 -72 5 -6 15
-30 22 -53 15 -51 35 -40 25 14 -5 23 -23 54 -49 82 -50 55 -86 75 -109 62z
m309 -58 c1 -18 -5 -35 -17 -46 -11 -10 -17 -21 -15 -25 3 -4 -3 -14 -12 -21
-15 -13 -16 -9 -9 41 4 33 14 60 23 68 24 17 28 15 30 -17z m-247 -72 c46 -69
50 -86 17 -64 -32 20 -83 125 -62 125 2 0 22 -27 45 -61z m413 -238 c-2 -6 4
-11 12 -11 13 0 14 -4 5 -21 -12 -22 -37 -35 -47 -25 -3 3 -1 12 6 20 9 11 8
15 -5 20 -13 5 -14 9 -4 21 14 17 36 14 33 -4z"/>
<path d="M1125 2359 c-11 -18 5 -79 20 -79 8 0 15 -6 16 -12 0 -7 4 -4 9 7 7
17 9 15 9 -12 1 -18 5 -33 11 -33 5 0 16 -16 24 -35 18 -43 25 -44 24 -5 -1
16 -5 27 -9 24 -8 -4 -39 46 -39 64 0 4 15 8 34 9 31 1 35 -2 41 -33 10 -54
22 -31 24 46 2 62 0 70 -17 70 -11 0 -25 -14 -36 -37 l-18 -38 -32 38 c-32 38
-50 45 -61 26z"/>
<path d="M1077 2283 c-15 -14 -6 -41 23 -68 21 -20 28 -34 24 -50 -4 -17 3
-30 33 -54 20 -17 40 -31 44 -31 3 0 4 14 1 30 -4 28 -13 35 -36 31 -5 -1 -6
5 -3 14 4 8 3 15 -2 15 -11 0 -31 46 -31 72 0 28 -37 57 -53 41z"/>
<path d="M1308 2243 c-17 -19 -14 -77 4 -100 7 -9 4 -11 -11 -8 -12 2 -21 -1
-21 -6 0 -6 -4 -8 -9 -5 -11 7 -37 -53 -33 -77 3 -15 -1 -17 -17 -12 -17 5
-21 2 -21 -14 0 -15 6 -21 23 -21 12 0 39 -16 60 -36 54 -53 62 -104 17 -104
-11 0 -24 -9 -30 -20 -11 -20 -10 -20 27 -5 67 29 80 28 100 -5 17 -29 33 -39
33 -21 0 17 -58 82 -65 71 -3 -5 -11 -10 -17 -10 -7 0 -6 5 2 14 13 17 8 29
-54 127 -30 47 -37 66 -29 78 18 29 47 24 68 -11 l20 -33 3 33 c2 20 9 32 18
32 16 0 19 26 4 35 -6 4 -17 1 -25 -5 -12 -10 -15 -9 -15 9 0 12 5 31 11 43
13 24 4 68 -15 68 -7 0 -20 -8 -28 -17z"/>
<path d="M1071 2116 c-8 -10 -10 -33 -5 -76 l7 -62 -24 12 c-20 10 -22 10 -11
-1 17 -19 15 -29 -8 -29 -12 0 -17 -5 -14 -14 8 -22 -17 -31 -31 -12 -10 14
-12 9 -8 -29 4 -28 2 -45 -5 -45 -29 0 -137 134 -125 154 3 5 12 1 20 -9 13
-18 13 -18 13 1 0 27 37 56 61 49 11 -4 19 -2 19 4 0 6 -5 11 -12 11 -6 0 -19
7 -28 15 -9 8 -25 12 -39 8 -18 -5 -21 -10 -16 -30 5 -21 3 -24 -13 -19 -11 4
-24 0 -32 -9 -17 -21 3 -97 24 -89 8 3 18 -7 26 -25 8 -19 20 -31 31 -31 14 0
19 -7 19 -30 0 -27 2 -30 25 -24 21 5 25 3 25 -15 0 -12 -6 -21 -15 -21 -8 0
-15 -5 -15 -11 0 -7 7 -8 18 -4 9 4 25 10 35 12 14 4 15 8 6 20 -36 43 77 183
149 183 30 0 32 2 26 26 -5 19 -3 25 4 20 8 -4 10 -2 6 8 -11 29 -33 25 -53
-10 -12 -20 -27 -34 -34 -31 -14 4 -21 32 -13 54 5 13 9 13 22 2 14 -11 15 -9
12 22 -3 37 -27 50 -47 25z"/>
<path d="M1410 2106 c-13 -35 -18 -103 -9 -118 5 -8 9 5 9 33 0 29 6 51 15 59
12 10 15 9 15 -6 0 -12 3 -15 10 -8 7 7 6 19 -2 37 -16 33 -26 34 -38 3z"/>
<path d="M2500 2123 c-8 -3 -28 -17 -43 -31 -24 -23 -30 -25 -48 -14 -27 17
-58 6 -65 -24 -6 -25 -18 -31 -29 -14 -10 16 -45 12 -52 -6 -3 -9 3 -21 16
-30 16 -12 20 -23 17 -49 -4 -30 -2 -34 22 -37 17 -2 27 -9 27 -19 0 -9 6 -23
12 -31 9 -11 10 -30 3 -71 -5 -32 -12 -62 -16 -68 -3 -6 9 -24 29 -40 19 -16
38 -43 43 -61 6 -25 10 -5 14 87 5 112 6 120 25 120 13 0 21 8 23 22 2 12 23
38 48 58 29 24 44 44 44 60 0 13 5 27 10 30 16 10 11 45 -7 53 -12 4 -18 18
-18 37 0 31 -20 41 -55 28z m36 -71 c16 -41 -1 -80 -58 -134 -60 -58 -82 -106
-74 -167 3 -33 3 -39 -4 -21 l-8 25 -1 -27 c-1 -16 -5 -28 -11 -28 -14 0 -24
48 -12 63 31 39 21 122 -20 158 -10 9 -18 22 -18 28 0 7 -4 9 -10 6 -13 -8
-13 -2 2 30 6 14 17 25 25 25 7 0 13 4 13 10 0 5 10 14 21 21 17 9 23 8 30 -2
6 -11 14 -8 33 10 35 33 42 22 15 -23 -31 -52 -6 -44 28 9 15 25 30 45 33 45
3 0 10 -12 16 -28z"/>
<path d="M2395 1990 c-18 -34 -19 -50 -4 -50 6 0 9 7 6 15 -4 8 -2 17 2 20 9
5 22 45 15 45 -2 0 -10 -13 -19 -30z"/>
<path d="M1481 2096 c-7 -8 -11 -29 -9 -46 l3 -31 19 36 c13 24 16 39 9 46 -7
7 -14 5 -22 -5z"/>
<path d="M575 2093 c-45 -11 -85 -70 -85 -125 0 -20 17 -62 42 -108 35 -62 43
-71 46 -51 2 13 -2 27 -8 31 -8 5 -7 9 3 13 13 5 14 10 4 31 -9 20 -17 24 -37
20 l-25 -6 25 22 c18 16 21 23 11 27 -11 5 -11 7 0 14 10 6 5 9 -16 9 -29 1
-29 1 -11 15 11 8 30 15 43 15 27 0 29 8 7 38 -24 34 -6 42 21 10 22 -25 24
-26 30 -9 3 11 13 25 22 32 14 12 15 10 9 -19 -9 -36 -2 -40 27 -14 19 16 20
16 14 0 -3 -10 0 -21 7 -25 7 -5 15 -14 17 -21 3 -10 8 -10 24 2 17 12 18 16
5 32 -49 58 -111 82 -175 67z"/>
<path d="M1527 2052 c-20 -22 -24 -53 -5 -34 18 18 31 14 25 -8 -6 -24 18 -27
31 -4 10 19 -7 64 -24 64 -6 0 -18 -8 -27 -18z"/>
<path d="M2154 2043 c0 -10 -4 -29 -8 -43 -4 -14 -4 -20 1 -15 19 24 54 36 69
24 8 -6 14 -7 14 -2 0 10 -54 53 -67 53 -5 0 -9 -8 -9 -17z"/>
<path d="M2010 2005 c-11 -20 -11 -27 1 -41 12 -15 14 -14 20 3 10 25 11 63 1
63 -5 0 -15 -11 -22 -25z"/>
<path d="M1605 2000 c-8 -14 4 -33 43 -65 40 -34 41 -25 0 31 -35 48 -34 48
-43 34z"/>
<path d="M750 1980 c-15 -28 5 -57 26 -39 18 15 18 33 0 48 -12 10 -17 8 -26
-9z"/>
<path d="M2187 1994 c-13 -14 -8 -46 7 -41 9 4 12 0 9 -13 -3 -12 2 -20 16
-25 26 -8 26 -12 1 -71 -11 -26 -19 -48 -18 -50 2 -1 15 8 30 21 16 13 23 27
18 30 -15 9 -12 28 4 22 12 -5 12 0 4 26 -5 18 -12 42 -15 55 -3 12 -11 22
-19 22 -7 0 -17 7 -22 15 -4 9 -11 12 -15 9z"/>
<path d="M577 1983 c-3 -2 -3 -13 0 -24 4 -15 11 -18 27 -13 29 9 31 13 18 26
-13 13 -38 19 -45 11z"/>
<path d="M1535 1960 c-7 -11 50 -70 66 -70 5 0 36 -13 69 -30 64 -32 70 -34
70 -22 0 11 -179 132 -194 132 -3 0 -8 -5 -11 -10z"/>
<path d="M783 1908 c-23 -49 -22 -118 2 -94 22 22 45 85 34 92 -6 3 -9 15 -6
25 9 34 -9 20 -30 -23z"/>
<path d="M2140 1940 c0 -5 -7 -10 -15 -10 -8 0 -15 -9 -15 -21 0 -11 5 -17 10
-14 6 4 7 11 4 17 -4 7 -2 8 5 4 12 -8 41 10 41 25 0 5 -7 9 -15 9 -8 0 -15
-4 -15 -10z"/>
<path d="M620 1931 c-15 -5 -24 -14 -24 -24 1 -9 -2 -17 -8 -17 -5 0 -6 -4 -3
-10 10 -17 32 -11 38 10 6 24 20 25 41 4 22 -21 20 -1 -1 24 -13 14 -25 18
-43 13z"/>
<path d="M722 1910 c-13 -27 -7 -60 9 -60 5 0 9 9 9 19 0 11 5 23 10 26 14 9
12 32 -3 38 -8 3 -18 -7 -25 -23z"/>
<path d="M237 1923 c-11 -10 -8 -103 2 -103 6 0 13 5 16 11 5 6 13 3 22 -10 8
-12 11 -26 8 -31 -8 -13 3 -50 15 -50 6 0 5 12 0 28 -9 25 -9 26 5 8 8 -11 15
-25 15 -32 0 -7 5 -16 11 -20 14 -8 8 15 -33 124 -29 75 -43 93 -61 75z"/>
<path d="M2008 1908 c-7 -17 1 -38 14 -38 6 0 8 7 4 15 -8 22 2 18 15 -6 8
-15 8 -19 0 -15 -19 12 -12 -8 14 -39 l24 -30 0 35 c0 27 -8 41 -34 63 -22 18
-34 23 -37 15z"/>
<path d="M831 1855 c-11 -19 -17 -35 -13 -35 14 0 32 24 32 41 0 10 6 20 13
22 8 4 8 6 0 6 -6 1 -20 -15 -32 -34z"/>
<path d="M1956 1882 c-5 -9 34 -75 41 -69 5 6 -24 77 -31 77 -3 0 -7 -4 -10
-8z"/>
<path d="M2130 1865 c-13 -14 -20 -25 -16 -25 5 0 3 -6 -3 -14 -10 -12 -9 -13
8 -9 17 4 47 60 38 70 -2 1 -14 -8 -27 -22z"/>
<path d="M1226 1861 c-20 -22 -20 -28 -2 -47 21 -20 29 -17 23 8 -4 12 -2 27
4 34 17 20 -7 25 -25 5z"/>
<path d="M1520 1872 c0 -23 32 -40 94 -51 71 -12 146 -44 146 -61 0 -6 -16 -4
-37 5 -62 23 -114 34 -193 40 -73 5 -76 4 -77 -17 0 -13 1 -17 4 -10 5 14 39
16 47 3 4 -5 22 -5 43 0 49 11 66 11 58 0 -3 -5 -1 -12 5 -16 5 -3 10 -1 10 4
0 12 27 15 32 4 2 -5 31 -17 66 -29 50 -17 62 -18 62 -7 0 45 -41 72 -174 117
-88 29 -86 29 -86 18z"/>
<path d="M410 1855 c-11 -14 -7 -22 25 -55 43 -44 55 -49 56 -22 0 13 2 12 9
-5 10 -24 30 -32 30 -12 0 8 5 8 15 -1 9 -7 15 -8 15 -2 0 16 -103 112 -121
112 -9 0 -22 -7 -29 -15z"/>
<path d="M1055 1839 c-9 -41 0 -47 18 -10 8 16 12 32 9 35 -12 13 -21 5 -27
-25z"/>
<path d="M2572 1853 c-19 -14 -28 -14 -43 -5 -22 14 -24 11 -33 -52 -5 -35 -4
-37 9 -20 8 11 15 24 15 30 0 7 7 14 15 18 23 9 18 -18 -16 -85 -16 -33 -29
-65 -27 -71 2 -6 19 20 37 56 18 37 46 79 62 94 48 42 32 71 -19 35z"/>
<path d="M164 1845 c-4 -10 3 -29 16 -48 13 -17 23 -37 23 -44 0 -7 4 -13 9
-13 4 0 8 -4 8 -10 0 -18 -22 -10 -27 10 -3 10 -14 22 -25 26 -44 14 -34 -26
14 -56 29 -18 33 -18 36 -4 3 13 11 9 38 -17 32 -31 44 -59 26 -59 -5 0 -17 9
-27 20 -17 19 -65 28 -65 13 0 -14 70 -53 107 -61 20 -4 38 -13 41 -20 2 -7
-2 -10 -12 -6 -10 4 -16 1 -16 -9 0 -8 21 -24 48 -36 26 -12 58 -28 72 -36 14
-8 26 -10 28 -5 2 5 23 -10 47 -32 24 -23 41 -46 38 -52 -3 -6 -3 -8 2 -4 9 8
66 -21 78 -40 5 -7 13 -10 18 -7 5 4 7 11 3 16 -3 5 0 16 6 24 11 13 8 14 -19
9 -24 -5 -31 -3 -29 7 2 10 -5 13 -22 11 -24 -3 -24 -3 -8 14 14 14 20 15 32
5 9 -8 16 -8 20 -2 4 6 -8 14 -26 19 -24 6 -35 5 -41 -4 -5 -9 -20 0 -51 32
-40 41 -46 43 -55 27 -10 -16 -19 -10 -81 57 -38 41 -70 78 -70 82 0 3 -20 30
-45 59 -25 29 -45 58 -45 63 0 13 62 -52 110 -114 44 -58 66 -80 81 -80 7 0 9
-3 6 -7 -8 -7 21 -43 35 -43 19 0 3 21 -87 115 -52 55 -103 116 -112 135 -10
20 -30 46 -45 59 -25 20 -29 21 -34 6z"/>
<path d="M710 1825 c0 -21 47 -68 60 -60 15 9 12 25 -4 19 -8 -3 -18 7 -26 25
-13 33 -30 41 -30 16z"/>
<path d="M1318 1806 l-27 -34 24 12 c13 6 26 20 29 31 8 29 3 27 -26 -9z"/>
<path d="M1875 1785 c-53 -53 -69 -85 -42 -85 7 0 23 20 37 44 21 39 28 44 52
41 19 -2 28 1 28 11 0 8 5 14 11 14 8 0 8 5 -1 15 -7 8 -16 15 -21 15 -5 0
-33 -25 -64 -55z"/>
<path d="M2616 1800 c-31 -47 -29 -49 10 -14 16 16 30 22 32 15 2 -6 13 -11
25 -12 21 0 21 -1 2 -9 -26 -11 -130 -109 -123 -116 3 -3 19 7 34 21 16 15 36
32 44 40 8 7 41 18 73 25 33 6 57 17 57 24 0 15 -42 36 -70 36 -11 0 -20 7
-20 15 0 29 -37 15 -64 -25z"/>
<path d="M1166 1803 c-4 -9 -2 -21 4 -27 15 -15 12 -29 -6 -22 -13 5 -15 2 -9
-21 4 -16 7 -35 7 -44 0 -9 10 -27 24 -40 28 -26 29 -24 9 25 -9 20 -13 41
-10 46 4 6 0 10 -7 10 -9 0 -9 3 -2 8 13 8 17 82 5 82 -5 0 -12 -8 -15 -17z"/>
<path d="M2253 1798 c-11 -13 -24 -36 -28 -53 l-8 -30 -6 25 c-5 17 -9 21 -15
12 -10 -16 -26 -72 -21 -72 9 0 125 83 137 97 10 12 9 18 -7 29 -25 18 -28 18
-52 -8z"/>
<path d="M360 1759 c0 -32 3 -40 14 -36 9 4 17 -2 21 -14 10 -29 26 -23 19 9
-19 87 -54 114 -54 41z"/>
<path d="M1020 1780 c0 -13 7 -20 20 -20 27 0 35 -22 22 -59 -6 -16 -8 -39 -5
-51 5 -20 7 -19 25 11 15 24 24 30 43 27 21 -4 23 -3 14 14 -7 13 -16 17 -30
13 -15 -5 -22 0 -30 22 -5 15 -21 36 -34 46 -24 17 -25 17 -25 -3z"/>
<path d="M2027 1769 c12 -23 17 -26 28 -16 11 10 11 15 -1 28 -8 9 -20 16 -27
16 -11 0 -11 -5 0 -28z"/>
<path d="M2107 1765 c-9 -19 -17 -43 -16 -53 0 -9 9 3 20 27 24 54 20 77 -4
26z"/>
<path d="M690 1762 c0 -10 29 -51 52 -74 27 -27 22 -11 -14 38 -32 44 -38 50
-38 36z"/>
<path d="M1556 1763 c-11 -11 -7 -20 12 -27 22 -8 55 -28 76 -45 13 -11 22
-11 41 -3 21 10 26 8 36 -10 8 -15 13 -17 19 -8 6 9 14 8 34 -5 21 -14 29 -15
41 -5 9 7 18 10 22 6 4 -3 -3 -13 -15 -22 -12 -8 -22 -20 -22 -27 0 -6 15 3
33 21 26 27 29 34 17 42 -9 6 -18 6 -24 0 -16 -16 -33 -11 -39 10 -3 11 -14
20 -24 20 -11 0 -46 9 -78 20 -31 11 -62 17 -67 14 -5 -3 -19 1 -32 10 -13 8
-26 12 -30 9z"/>
<path d="M1902 1717 c-26 -62 -28 -100 -7 -117 9 -7 14 -19 11 -27 -7 -18 5
-16 32 6 27 23 28 33 5 30 -37 -3 -48 0 -35 13 8 8 8 17 1 30 -8 14 -5 24 9
43 11 13 22 22 24 19 3 -2 3 7 0 21 -7 41 -17 37 -40 -18z"/>
<path d="M500 1721 c0 -25 27 -34 35 -13 6 16 7 16 16 0 12 -22 29 -23 29 -3
0 8 -12 17 -27 21 -16 3 -34 7 -40 10 -7 2 -13 -5 -13 -15z"/>
<path d="M1520 1710 c-6 -11 -20 -20 -30 -20 -31 0 -24 -18 10 -25 39 -9 63
-41 49 -67 -6 -11 -9 -21 -7 -22 2 -1 16 -7 31 -14 31 -13 33 -17 42 -84 3
-27 9 -48 13 -48 11 0 7 151 -4 158 -6 4 -14 19 -18 35 -3 15 -13 27 -21 27
-8 0 -26 10 -40 22 -23 20 -24 23 -8 40 9 10 11 18 5 18 -6 0 -16 -9 -22 -20z"/>
<path d="M430 1709 c0 -5 5 -7 10 -4 6 3 10 0 10 -9 0 -8 -6 -16 -12 -19 -21
-7 -6 -15 46 -22 35 -6 47 -5 42 4 -4 6 -19 11 -33 11 -21 0 -23 3 -14 14 10
12 8 17 -8 25 -25 14 -41 14 -41 0z"/>
<path d="M614 1705 c11 -8 24 -15 29 -15 5 0 20 -9 34 -20 32 -25 54 -27 27
-2 -19 17 -88 52 -102 52 -4 0 2 -7 12 -15z"/>
<path d="M2680 1700 c-38 -21 -36 -26 4 -10 46 17 30 -13 -21 -40 -26 -14 -49
-32 -51 -40 -3 -11 2 -9 19 6 26 22 73 44 92 44 7 0 4 -5 -7 -11 -15 -9 -16
-13 -5 -20 30 -19 46 -10 44 24 -2 40 -14 67 -29 67 -6 -1 -27 -9 -46 -20z"/>
<path d="M800 1681 c0 -5 11 -23 25 -38 22 -25 24 -26 24 -8 0 11 -11 28 -24
38 -14 10 -25 13 -25 8z"/>
<path d="M2112 1678 c-17 -17 -15 -28 4 -28 8 0 12 -4 9 -10 -3 -5 -2 -10 4
-10 14 0 33 38 26 50 -8 14 -28 13 -43 -2z"/>
<path d="M1995 1649 c-9 -17 -14 -33 -11 -36 3 -3 8 2 12 11 5 12 10 14 20 5
27 -22 46 11 20 37 -20 20 -23 18 -41 -17z"/>
<path d="M1110 1667 c0 -22 53 -224 61 -232 6 -5 9 -4 9 4 0 24 -52 216 -61
226 -5 5 -9 6 -9 2z"/>
<path d="M2215 1651 c-3 -6 -15 -11 -26 -11 -23 0 -24 -6 -4 -26 14 -14 19
-11 16 9 -2 11 9 8 25 -8 8 -8 21 -12 29 -9 9 4 15 0 16 -10 3 -35 4 -39 16
-43 22 -8 25 19 4 41 -12 12 -21 30 -21 39 0 9 -4 17 -9 17 -5 0 -16 3 -24 6
-8 3 -18 1 -22 -5z"/>
<path d="M1444 1622 c-50 -36 -124 -120 -124 -140 0 -8 1 -13 3 -11 1 2 40 43
87 92 46 48 81 87 78 87 -3 0 -23 -13 -44 -28z"/>
<path d="M1670 1592 c0 -28 5 -54 10 -57 8 -5 9 10 4 47 -9 70 -14 74 -14 10z"/>
<path d="M1215 1620 c-3 -5 -3 -21 1 -36 l7 -26 13 32 c8 18 14 34 14 36 0 8
-29 4 -35 -6z"/>
<path d="M1313 1592 c-23 -41 -46 -51 -37 -17 3 14 2 25 -3 25 -15 0 -46 -68
-47 -106 -1 -43 20 -58 30 -20 3 14 11 26 16 26 6 0 7 -7 4 -16 -3 -9 -9 -28
-13 -42 -6 -24 -5 -25 8 -12 8 8 20 44 27 79 6 35 19 72 28 82 10 11 14 22 11
25 -4 4 -14 -7 -24 -24z m-43 -64 c0 -7 -7 -22 -15 -32 -14 -19 -15 -18 -15
12 0 22 5 32 15 32 8 0 15 -6 15 -12z"/>
<path d="M2664 1595 c-10 -8 -17 -15 -14 -15 3 -1 21 -3 39 -6 41 -5 60 -27
31 -34 -18 -4 -16 -8 15 -33 47 -38 61 -26 33 26 -42 80 -64 92 -104 62z"/>
<path d="M2464 1588 c-4 -7 -15 -24 -23 -38 l-16 -25 24 16 c25 16 48 59 31
59 -5 0 -12 -6 -16 -12z"/>
<path d="M502 1570 c-18 -15 -21 -23 -13 -37 5 -10 12 -17 15 -15 14 5 27 1
21 -7 -3 -6 3 -9 12 -9 20 2 93 -20 108 -32 6 -5 19 -2 29 6 11 7 18 15 15 16
-32 20 -50 25 -72 21 -19 -4 -29 0 -33 11 -3 9 -16 16 -29 16 -12 0 -28 7 -35
15 -10 12 -10 15 4 15 9 0 16 5 16 10 0 15 -12 12 -38 -10z"/>
<path d="M746 1571 c18 -11 35 -24 38 -30 4 -6 14 -11 23 -11 13 0 13 3 2 16
-15 18 -62 44 -81 44 -7 0 1 -9 18 -19z"/>
<path d="M997 1565 c-17 -24 -17 -25 3 -45 11 -11 24 -20 30 -20 10 0 80 -67
80 -76 0 -4 -8 -3 -17 0 -13 5 -11 0 6 -18 14 -15 31 -26 38 -26 8 0 11 -4 8
-10 -3 -5 -2 -10 4 -10 23 0 15 28 -21 69 -21 24 -38 48 -38 52 0 5 -16 16
-36 24 -34 14 -36 17 -31 50 7 41 -1 44 -26 10z"/>
<path d="M679 1554 c-11 -14 -9 -19 11 -35 17 -13 34 -17 50 -13 30 7 51 24
30 24 -8 0 -26 9 -40 20 -31 24 -34 24 -51 4z"/>
<path d="M1515 1560 c-3 -5 -29 -22 -57 -36 -45 -23 -88 -54 -75 -54 19 0 139
63 143 75 8 19 -1 31 -11 15z"/>
<path d="M1960 1547 c-19 -12 -41 -27 -48 -34 -7 -7 -23 -13 -35 -13 l-22 0
23 -18 23 -18 -23 -29 c-12 -17 -31 -36 -41 -44 -15 -11 -16 -15 -6 -22 8 -5
19 -9 25 -9 10 0 44 67 44 88 0 19 72 93 86 88 6 -2 14 4 17 15 6 23 1 23 -43
-4z"/>
<path d="M2312 1513 c2 -10 8 -18 13 -18 6 0 17 -5 25 -10 8 -5 23 -8 33 -7 9
2 17 0 17 -4 0 -15 -54 -64 -70 -64 -18 0 -40 -19 -40 -33 0 -5 7 -3 16 4 9 8
22 14 29 14 16 0 85 59 85 73 0 15 -31 31 -48 25 -8 -3 -20 4 -28 16 -18 25
-37 28 -32 4z"/>
<path d="M355 1490 c-3 -6 5 -14 18 -19 21 -8 24 -15 21 -53 -6 -80 5 -119 37
-131 16 -7 29 -19 29 -28 0 -35 30 -29 45 8 17 40 13 57 -5 24 -13 -25 -30
-28 -30 -6 0 9 -7 18 -15 21 -8 4 -15 15 -15 25 0 10 -5 19 -11 19 -7 0 -10
14 -7 35 2 19 0 36 -6 38 -5 2 -7 11 -3 21 4 9 11 14 17 11 5 -3 10 -4 10 0 0
6 -61 45 -72 45 -4 0 -10 -5 -13 -10z"/>
<path d="M2010 1492 c0 -5 -13 -21 -28 -38 -15 -16 -39 -45 -52 -64 -13 -19
-28 -38 -33 -41 -5 -3 -10 -22 -12 -42 -4 -43 -11 -57 -30 -57 -7 0 -15 -6
-18 -14 -3 -8 -29 -26 -59 -40 -45 -23 -48 -26 -20 -21 89 14 92 16 146 83 29
37 60 73 69 81 19 15 47 8 47 -13 0 -8 20 5 46 31 25 24 43 47 40 50 -3 3 -19
-9 -36 -27 -19 -20 -34 -30 -38 -23 -4 6 -17 14 -30 17 -19 6 -30 0 -60 -33
-43 -47 -57 -52 -40 -16 6 14 15 25 20 25 4 0 8 5 8 11 0 9 54 81 88 117 15
16 15 22 2 22 -5 0 -10 -4 -10 -8z"/>
<path d="M806 1482 c-2 -4 0 -14 5 -22 8 -12 12 -12 16 -2 7 18 33 15 33 -4 0
-9 5 -14 11 -12 6 2 10 7 10 11 -1 4 -1 14 -1 22 0 10 -10 15 -34 15 -19 0
-37 -4 -40 -8z"/>
<path d="M2700 1464 c0 -8 5 -12 10 -9 6 3 10 2 10 -4 0 -5 3 -16 6 -25 5 -13
0 -15 -27 -11 l-34 5 32 -11 c21 -8 38 -24 48 -45 10 -22 23 -34 35 -34 24 0
26 13 5 30 -9 7 -13 20 -11 27 6 15 -20 73 -38 85 -19 13 -36 9 -36 -8z"/>
<path d="M742 1462 c-19 -13 -1 -47 26 -49 19 -2 22 1 20 27 -2 30 -19 38 -46
22z"/>
<path d="M913 1434 c-3 -8 -11 -13 -18 -10 -7 2 -22 -2 -33 -9 -10 -8 -22 -11
-26 -8 -3 3 -6 -2 -6 -13 0 -10 -3 -30 -7 -43 -8 -31 14 -19 27 15 10 26 72
57 95 48 18 -7 20 7 3 24 -16 16 -27 15 -35 -4z"/>
<path d="M2502 1443 c-6 -3 -10 -9 -7 -14 3 -4 -3 -14 -15 -21 -31 -19 -24
-28 9 -12 41 20 53 61 13 47z"/>
<path d="M684 1425 c-4 -8 -3 -22 0 -30 3 -9 0 -18 -7 -21 -8 -3 -12 -28 -13
-72 -1 -61 0 -64 9 -32 6 19 14 37 18 40 13 9 22 130 9 130 -6 0 -13 -7 -16
-15z"/>
<path d="M1446 1423 c-5 -12 3 -24 24 -41 26 -20 30 -30 25 -51 -4 -19 -3 -22
5 -11 8 12 10 11 10 -7 0 -13 5 -23 10 -23 16 0 0 80 -22 118 -22 35 -42 41
-52 15z"/>
<path d="M970 1417 c0 -9 6 -20 13 -24 8 -4 16 -16 20 -25 3 -10 13 -18 22
-18 21 0 19 -19 -2 -26 -10 -3 -31 -12 -48 -19 l-30 -14 41 0 c30 -1 46 5 62
22 l22 24 -25 13 c-14 7 -25 19 -25 25 0 6 -11 22 -25 35 -20 19 -25 20 -25 7z"/>
<path d="M1318 1399 c-10 -10 -18 -25 -18 -31 0 -7 -8 -26 -18 -43 -10 -16
-24 -50 -31 -75 -8 -25 -16 -39 -18 -32 -4 10 -8 10 -19 1 -11 -9 -11 -15 -3
-25 6 -8 16 -14 22 -14 14 0 36 32 37 52 0 23 47 125 59 130 12 4 26 58 15 57
-5 0 -17 -9 -26 -20z"/>
<path d="M1584 1412 c-6 -4 -15 -18 -19 -32 -7 -22 -6 -23 8 -12 25 21 32 -6
8 -32 -27 -28 -28 -45 -1 -21 34 31 36 7 2 -28 -21 -21 -32 -43 -32 -62 0 -27
0 -28 20 -10 11 10 20 26 20 35 0 19 29 61 30 43 0 -7 5 -13 10 -13 15 0 12
40 -5 56 -8 9 -15 31 -15 50 0 34 -6 40 -26 26z"/>
<path d="M1190 1345 c0 -22 4 -34 10 -30 6 3 10 17 10 30 0 13 -4 27 -10 30
-6 4 -10 -8 -10 -30z"/>
<path d="M1702 1327 c-12 -29 -22 -58 -22 -65 0 -6 -4 -12 -9 -12 -5 0 -19
-15 -31 -32 l-22 -33 7 29 6 28 -33 -34 c-18 -19 -40 -37 -48 -40 -8 -3 -12
-9 -8 -13 4 -4 19 0 33 9 14 9 25 12 25 6 0 -16 36 -11 52 8 8 9 14 24 13 32
0 8 5 21 12 28 7 7 13 20 13 28 0 8 4 14 8 14 11 0 35 51 27 58 -2 3 0 11 6
18 5 7 6 15 1 18 -5 3 -18 -18 -30 -47z"/>
<path d="M2220 1371 c0 -6 -13 -18 -30 -28 -44 -26 -37 -34 10 -11 36 18 55
48 30 48 -5 0 -10 -4 -10 -9z"/>
<path d="M737 1333 c-5 -47 0 -58 21 -41 12 11 16 11 20 0 3 -10 8 -8 18 5 20
27 17 33 -15 33 -24 0 -29 4 -26 20 2 11 0 20 -4 20 -5 0 -11 -17 -14 -37z"/>
<path d="M2630 1361 c0 -6 10 -17 21 -25 14 -10 19 -21 15 -32 -3 -9 -1 -23 6
-31 7 -9 11 -30 9 -49 -2 -30 0 -34 23 -34 29 0 42 16 38 47 -3 17 3 24 22 29
33 8 34 32 1 40 -14 3 -25 10 -25 15 0 9 -81 49 -99 49 -6 0 -11 -4 -11 -9z
m98 -43 c15 -15 16 -41 0 -36 -6 2 -18 14 -26 26 -12 19 -12 22 0 22 8 0 19
-5 26 -12z"/>
<path d="M1141 1328 c-10 -16 -10 -23 -2 -26 6 -2 11 -22 11 -45 0 -27 -3 -37
-9 -29 -7 11 -9 10 -14 -3 -7 -16 18 -33 30 -21 10 10 15 115 6 131 -7 12 -11
11 -22 -7z"/>
<path d="M1392 1267 c-45 -46 -82 -87 -82 -90 0 -17 31 -4 50 21 12 15 44 51
72 80 27 28 48 57 46 62 -2 6 -40 -27 -86 -73z"/>
<path d="M2308 1336 c-16 -12 -16 -14 5 -25 17 -9 35 -9 82 3 l60 15 -56 -3
c-31 -2 -62 -6 -68 -10 -14 -9 -10 16 4 26 7 5 7 8 0 8 -5 -1 -18 -7 -27 -14z"/>
<path d="M2575 1331 c-11 -5 -24 -6 -28 -4 -11 7 -57 -6 -57 -15 0 -4 16 -6
35 -4 27 3 35 1 35 -12 0 -9 -6 -16 -12 -16 -9 0 -8 -4 2 -10 13 -9 11 -13
-10 -30 -14 -11 -32 -20 -41 -20 -8 0 -75 -15 -147 -34 -73 -19 -135 -34 -137
-35 -3 0 -30 -5 -61 -11 -31 -7 -67 -10 -80 -7 -13 2 -24 1 -24 -2 0 -3 -17
-6 -38 -6 -20 1 -55 -3 -77 -7 -166 -33 -571 -44 -730 -20 -42 7 -64 6 -74 -1
-10 -8 -16 -7 -25 4 -14 19 -96 79 -108 79 -4 0 -8 -9 -8 -21 0 -11 4 -17 10
-14 11 7 55 -14 46 -22 -3 -3 4 -19 15 -35 24 -32 16 -55 -7 -23 -15 19 -15
19 -9 -7 5 -18 3 -28 -4 -28 -7 0 -8 -8 -1 -25 15 -39 -12 -30 -43 15 -17 24
-17 24 -17 -32 0 -31 5 -60 10 -63 6 -4 1 -15 -14 -26 -13 -11 -27 -33 -31
-50 -4 -17 -13 -33 -21 -36 -18 -7 -18 -57 0 -72 7 -6 16 -26 20 -44 l6 -32
15 28 c13 25 12 29 -11 52 -13 13 -24 31 -24 39 0 27 20 27 44 1 22 -24 25
-25 34 -8 8 13 4 24 -14 46 -40 48 -17 90 26 47 17 -17 21 -18 26 -5 4 9 -1
24 -10 34 -20 22 -20 35 -1 51 12 10 18 10 30 0 13 -11 14 -8 9 18 -8 37 17
55 56 40 30 -12 68 -17 186 -22 51 -2 96 -6 100 -9 24 -13 383 9 512 33 29 5
56 9 60 8 8 -2 133 18 212 34 30 6 69 13 85 14 17 1 50 9 75 17 79 26 150 35
150 21 0 -15 -76 -174 -90 -188 -5 -5 -7 0 -3 13 3 11 9 21 14 21 5 0 9 4 9
10 0 5 -7 7 -15 4 -8 -4 -22 0 -31 7 -12 10 -18 9 -32 -5 -16 -16 -15 -17 11
-11 40 10 36 -17 -8 -51 -42 -31 -44 -43 -9 -36 40 7 27 -27 -18 -51 -46 -23
-49 -39 -8 -30 23 4 30 2 30 -10 0 -16 -52 -51 -66 -45 -4 2 -10 -7 -15 -20
-8 -20 -6 -21 11 -12 10 5 21 10 24 10 21 0 -23 -60 -46 -64 -7 -1 -18 -5 -24
-8 -6 -4 -31 -8 -57 -10 -26 -2 -47 -6 -47 -10 0 -5 -10 -8 -22 -8 -13 0 -52
-9 -88 -20 -86 -27 -255 -40 -536 -41 -142 0 -351 14 -394 26 -8 2 -34 5 -57
7 -24 1 -43 5 -43 9 0 4 -8 7 -17 7 -10 -1 -52 6 -93 16 -60 14 -82 24 -112
54 -21 20 -38 42 -38 49 0 8 -13 13 -34 13 -39 0 -59 28 -26 37 11 3 20 8 20
12 0 18 -28 40 -55 43 -40 4 -49 38 -10 38 39 0 28 30 -15 44 -24 8 -36 18
-38 34 -3 18 1 22 22 22 30 0 31 5 11 40 -10 18 -14 20 -15 8 0 -9 -6 -21 -13
-25 -8 -4 -19 -17 -24 -27 -10 -18 -14 -14 -38 34 -40 80 -77 200 -60 200 3 0
14 -9 25 -20 11 -11 30 -20 42 -20 19 1 18 3 -9 15 -18 8 -33 18 -33 24 0 9
-70 54 -76 48 -9 -9 72 -245 113 -327 69 -137 157 -265 190 -278 222 -85 739
-134 1069 -103 210 20 514 85 514 110 0 4 15 24 34 44 41 45 95 147 170 323
60 141 67 171 39 159 -77 -33 -358 -94 -578 -125 -192 -28 -528 -37 -727 -21
-79 7 -146 15 -149 19 -4 4 -3 17 1 28 8 20 12 21 57 11 27 -6 182 -10 353
-11 319 -1 403 6 665 55 123 23 382 85 404 97 8 4 20 30 27 57 19 72 19 72
-21 56z"/>
<path d="M2095 1294 c-47 -28 -75 -33 -55 -9 7 8 8 15 3 15 -5 0 -29 -20 -52
-45 -46 -49 -40 -55 34 -30 24 8 32 13 20 14 -17 1 -17 3 -5 11 19 12 43 13
36 1 -3 -4 6 -6 19 -3 14 2 25 9 25 14 0 5 -4 6 -10 3 -5 -3 -10 -1 -10 5 0 6
11 16 25 22 14 6 25 15 25 20 0 12 -11 9 -55 -18z"/>
<path d="M584 1245 c-23 -47 -28 -65 -18 -65 8 0 14 5 14 11 0 11 23 67 41
102 5 9 6 17 2 17 -5 0 -22 -29 -39 -65z"/>
<path d="M820 1272 c0 -25 4 -32 20 -32 11 0 20 -5 20 -12 0 -6 3 -9 6 -5 3 3
-6 23 -20 44 l-26 38 0 -33z"/>
<path d="M1063 1293 c-20 -7 -15 -26 12 -52 l25 -23 0 23 c-1 30 -21 57 -37
52z"/>
<path d="M2217 1292 c-21 -4 -12 -22 11 -22 9 1 31 7 47 14 l30 14 -35 -2
c-19 0 -43 -2 -53 -4z"/>
<path d="M1511 1263 c-1 -12 -5 -24 -11 -28 -10 -6 -2 -35 10 -35 12 0 18 44
9 66 -7 18 -8 17 -8 -3z"/>
<path d="M776 1254 c-9 -24 -7 -54 4 -54 6 0 10 16 10 35 0 38 -4 44 -14 19z"/>
<path d="M903 1244 c-13 -14 -23 -27 -23 -28 0 -2 23 -2 52 0 44 2 54 6 65 28
l14 26 -43 0 c-34 0 -48 -6 -65 -26z"/>
<path d="M693 1210 c-18 -41 -20 -57 -11 -67 9 -11 14 -6 25 27 8 23 13 53 11
67 -3 23 -6 19 -25 -27z"/>
<path d="M1020 1231 c-5 -11 -10 -22 -10 -24 0 -5 67 -47 75 -47 6 0 -10 45
-25 68 -18 27 -26 28 -40 3z"/>
<path d="M903 1193 c-18 -2 -39 -13 -47 -24 -11 -16 -18 -18 -40 -10 -14 6
-26 16 -27 23 0 11 -3 6 -20 -36 -2 -5 14 -10 36 -10 36 -1 40 -3 37 -24 l-2
-23 30 21 c16 12 30 30 30 41 0 25 49 46 62 27 6 -10 8 -8 8 5 0 17 -3 18 -67
10z"/>
<path d="M1452 1191 c-11 -6 -11 -10 0 -18 23 -18 61 -27 56 -12 -7 20 -42 39
-56 30z"/>
<path d="M1430 1137 c0 -10 -12 -13 -45 -10 -24 2 -52 0 -61 -5 -12 -7 12 -12
84 -17 55 -4 106 -4 113 1 7 4 31 7 54 7 30 0 32 1 10 4 -16 3 -35 12 -42 21
-12 16 -14 16 -27 0 -17 -22 -66 -24 -66 -3 0 8 -4 15 -10 15 -5 0 -10 -6 -10
-13z"/>
<path d="M903 1107 c-51 -31 -75 -63 -57 -76 15 -10 10 -42 -8 -55 -26 -19
-27 -78 -1 -98 36 -30 103 -17 103 21 0 10 3 21 7 25 10 9 11 126 2 126 -4 0
-19 -16 -33 -35 -15 -20 -32 -33 -37 -29 -9 5 30 67 58 89 11 9 30 66 22 64
-2 0 -28 -15 -56 -32z m29 -24 c-7 -3 -25 -17 -38 -32 l-26 -26 7 25 c11 35
45 64 59 49 8 -8 7 -13 -2 -16z m8 -151 c0 -5 -11 -19 -25 -32 -21 -20 -28
-22 -50 -12 -18 8 -25 19 -25 40 0 45 17 54 61 31 22 -11 39 -23 39 -27z"/>
<path d="M1230 1132 c0 -10 61 -23 69 -16 7 7 -2 11 -36 19 -20 4 -33 3 -33
-3z"/>
<path d="M720 1102 c0 -5 20 -15 44 -22 51 -14 83 -10 51 7 -31 17 -95 27 -95
15z"/>
<path d="M2157 1001 c-35 -37 -32 -85 5 -117 16 -13 36 -24 44 -24 18 0 18
-15 -2 -34 -16 -17 -11 -76 6 -76 5 0 12 -9 15 -20 8 -24 21 -26 29 -4 4 10
-3 23 -19 36 -14 11 -25 26 -25 33 0 23 20 28 39 11 36 -32 43 -11 11 32 -22
29 -19 62 6 62 7 0 17 -8 23 -17 5 -10 13 -14 17 -10 4 4 0 21 -9 36 -31 53
-15 81 25 44 17 -15 18 -15 18 9 0 31 -35 44 -57 22 -13 -12 -16 -12 -29 0 -8
8 -14 19 -14 25 0 6 -3 11 -7 12 -5 0 -18 2 -30 3 -14 2 -32 -8 -46 -23z m71
-13 c16 -16 15 -60 -1 -83 -10 -13 -21 -16 -40 -11 -24 6 -27 11 -27 50 0 26
5 46 13 49 22 9 43 7 55 -5z"/>
<path d="M648 1014 c-3 -3 -1 -21 5 -40 l11 -35 21 27 c13 16 27 24 33 20 19
-12 14 -45 -12 -71 -30 -30 -18 -59 13 -31 22 20 51 15 51 -9 0 -9 -12 -27
-26 -40 -23 -21 -25 -27 -14 -40 12 -14 16 -13 36 12 19 24 24 26 38 14 21
-18 20 -24 -10 -60 l-25 -30 22 -31 c28 -37 32 -38 24 -2 -3 16 0 42 6 58 11
27 19 87 10 79 -9 -10 -42 18 -37 30 3 8 -1 21 -9 29 -8 8 -15 19 -15 25 0 6
-4 11 -10 11 -5 0 -7 6 -4 13 7 20 -30 61 -58 62 -13 1 -29 4 -35 8 -5 4 -13
4 -15 1z"/>
<path d="M1095 944 l-16 -25 33 3 c28 2 34 -1 36 -19 3 -18 -3 -23 -38 -30
-39 -8 -58 -31 -22 -26 9 2 26 -4 36 -12 26 -20 11 -35 -42 -42 -29 -4 -43
-12 -50 -29 -10 -21 -9 -23 21 -26 20 -2 32 -8 32 -18 0 -11 -11 -15 -42 -14
-24 0 -43 -4 -43 -9 0 -6 -8 -19 -17 -30 -17 -19 -17 -20 2 -10 11 6 36 13 56
17 20 3 44 15 54 26 17 19 17 21 2 38 -16 17 -15 19 18 35 35 17 39 23 35 65
-1 13 6 32 14 41 20 22 14 42 -24 69 l-28 21 -17 -25z"/>
<path d="M1280 946 c0 -10 -10 -26 -22 -36 l-23 -18 23 -31 c16 -22 21 -38 16
-56 -4 -18 -1 -32 12 -46 14 -16 15 -22 5 -32 -11 -9 -14 -9 -18 1 -3 7 -14
22 -26 33 -34 32 -90 3 -102 -52 -8 -34 6 -56 43 -70 31 -12 69 11 78 46 8 33
24 32 56 -5 14 -16 28 -27 31 -23 4 3 18 -2 33 -11 32 -22 37 -17 21 17 -9 20
-21 27 -47 29 -27 2 -35 7 -35 23 0 11 9 21 22 25 30 7 16 27 -22 32 -36 4
-49 38 -15 38 36 0 22 42 -17 52 -39 10 -45 38 -8 38 28 0 31 16 10 44 -14 18
-15 18 -15 2z m-34 -220 c9 -36 -12 -66 -45 -66 -36 0 -46 22 -26 61 20 38 62
41 71 5z"/>
<path d="M1328 954 c-3 -3 -3 -14 -1 -25 5 -19 7 -19 24 -3 15 14 21 14 34 4
21 -17 19 -27 -10 -54 -25 -23 -24 -46 1 -25 8 6 21 9 29 5 19 -7 20 -55 0
-62 -8 -4 -15 -15 -15 -25 0 -20 15 -26 25 -9 3 6 15 10 26 10 26 0 26 -43 -1
-61 l-20 -14 20 -30 20 -30 1 25 c1 14 1 28 0 33 0 4 4 7 10 7 6 0 9 6 6 14
-3 7 -1 18 4 23 6 6 3 18 -9 34 -20 26 -52 106 -52 130 0 36 -69 76 -92 53z"/>
<path d="M2023 950 c-24 -10 -29 -26 -14 -48 6 -10 10 -7 15 12 9 38 46 36 46
-3 0 -16 -7 -34 -15 -41 -17 -14 -20 -50 -5 -50 6 0 10 6 10 14 0 17 39 48 52
40 22 -14 -4 -84 -31 -84 -11 0 -16 -32 -5 -42 3 -4 15 3 26 14 15 15 22 17
34 7 20 -16 18 -27 -11 -53 -22 -20 -23 -25 -10 -42 13 -19 14 -19 21 1 4 11
12 26 18 33 16 22 17 51 2 75 -8 12 -14 34 -14 48 1 29 -61 123 -83 126 -8 1
-24 -2 -36 -7z"/>
<path d="M1526 928 c-18 -30 -28 -88 -16 -88 6 0 10 -6 10 -14 0 -17 45 -29
68 -18 9 5 28 6 42 2 l25 -7 -27 -8 c-15 -4 -30 -15 -33 -25 -6 -20 8 -65 24
-75 6 -3 11 -16 11 -28 l0 -21 16 22 c15 22 15 25 -5 46 -12 12 -21 29 -21 38
0 25 28 29 49 7 17 -19 19 -19 25 -3 5 12 -2 26 -19 41 -14 13 -25 33 -25 43
0 28 43 26 63 -2 16 -23 16 -23 16 -2 1 12 -6 27 -14 34 -8 7 -15 18 -15 26 0
19 20 28 33 15 17 -17 27 -13 27 9 0 14 -7 20 -22 20 -26 -1 -58 -22 -58 -39
0 -6 -4 -11 -9 -11 -5 0 -18 -3 -28 -6 -14 -6 -16 -4 -6 6 10 10 7 18 -10 36
-30 32 -81 32 -101 2z m82 -35 c4 -40 -13 -73 -36 -73 -26 0 -42 20 -42 51 0
48 10 60 44 57 27 -3 31 -7 34 -35z"/>
<path d="M1787 926 c-11 -28 -8 -34 12 -29 28 7 34 -24 8 -42 -12 -8 -29 -15
-39 -15 -10 0 -18 -6 -18 -13 0 -9 10 -12 30 -9 18 3 30 0 30 -7 0 -19 -41
-53 -57 -47 -9 4 -21 -1 -29 -11 -20 -27 -17 -33 17 -33 24 0 30 -4 27 -17 -2
-12 -14 -19 -38 -21 -21 -2 -44 -13 -58 -28 -28 -29 -27 -29 54 -3 64 21 66
22 61 52 -4 29 -1 37 31 73 8 8 11 21 8 30 -3 8 1 28 9 44 15 28 14 31 -13 61
-25 28 -30 30 -35 15z"/>
<path d="M1942 921 c-26 -22 -27 -39 -8 -76 8 -15 12 -33 10 -40 -3 -6 2 -18
11 -25 8 -7 15 -24 15 -37 0 -27 57 -86 74 -76 5 3 18 -5 28 -18 l20 -24 -6
25 c-3 14 -6 31 -6 38 0 6 -12 12 -26 12 -33 0 -64 17 -64 35 0 10 10 15 30
15 20 0 30 5 30 15 0 12 -9 15 -35 13 -37 -2 -62 13 -51 31 4 6 19 11 32 11
36 0 25 24 -12 28 -34 4 -54 19 -54 39 0 11 8 14 30 11 32 -5 40 11 17 31 -11
8 -19 6 -35 -8z"/>
<path d="M1847 732 c-23 -25 -21 -64 3 -94 31 -41 56 -41 87 -3 27 34 38 65
23 65 -5 0 -10 10 -12 23 -2 18 -10 23 -44 25 -29 2 -45 -2 -57 -16z m74 -12
c23 -13 25 -53 3 -74 -21 -22 -40 -20 -58 6 -37 52 0 97 55 68z"/>
<path d="M2371 691 c-15 -9 -10 -11 53 -26 24 -5 27 -8 15 -16 -10 -8 -8 -9 9
-4 24 7 65 -2 58 -13 -2 -4 12 -8 31 -9 19 -1 42 -8 52 -17 15 -14 20 -16 40
-16 5 0 12 -9 16 -19 3 -10 14 -21 24 -24 19 -5 38 -68 26 -87 -10 -17 -108
-86 -150 -107 -22 -11 -60 -26 -85 -33 -25 -8 -47 -17 -50 -20 -17 -19 -135
-63 -164 -62 -19 1 -38 -4 -42 -9 -10 -17 113 -2 158 19 21 9 38 20 38 25 0 4
10 7 23 7 13 0 27 4 32 9 6 5 35 16 65 25 53 16 141 67 188 109 52 48 6 154
-87 201 -25 13 -82 33 -126 46 -44 12 -87 23 -95 25 -8 3 -21 1 -29 -4z"/>
<path d="M2238 574 c-41 -42 -355 -93 -618 -101 -299 -9 -692 34 -832 92 -31
12 -19 -9 18 -35 20 -13 46 -40 59 -60 23 -37 145 -110 184 -110 26 0 37 -17
14 -22 -14 -3 -13 -5 5 -10 13 -4 21 -4 18 -1 -3 3 -1 14 4 23 8 14 5 19 -13
24 -12 3 -23 6 -24 6 -7 2 -101 48 -121 58 -34 20 -16 35 19 16 17 -8 33 -13
36 -10 3 3 -11 11 -30 19 -19 8 -38 20 -41 26 -9 15 86 2 96 -13 5 -7 8 -6 8
4 0 9 3 11 8 5 4 -5 18 -11 32 -11 53 -3 156 -16 170 -23 20 -9 418 -7 560 3
63 5 124 13 135 19 18 9 19 9 5 -8 -14 -17 -14 -18 8 -6 13 7 30 10 38 7 22
-8 75 5 67 17 -4 7 5 8 25 4 18 -4 32 -3 32 1 0 12 107 55 119 48 5 -3 11 1
15 9 3 8 15 15 26 15 11 0 20 7 20 15 0 20 -22 19 -42 -1z"/>
<path d="M1131 338 c-1 -10 -9 -18 -18 -18 -16 -1 -16 -2 1 -11 14 -9 20 -8
26 1 4 7 13 9 19 6 6 -4 11 -2 11 3 0 6 -6 11 -14 11 -8 0 -17 6 -19 13 -3 7
-6 5 -6 -5z"/>
<path d="M1161 301 c-11 -7 -10 -10 5 -15 11 -3 24 -6 29 -7 6 0 15 -5 20 -9
22 -18 233 -71 300 -75 39 -2 61 -2 50 1 -11 2 -62 14 -112 26 -51 11 -93 25
-93 29 0 5 7 5 17 2 10 -4 14 -2 10 4 -5 8 -73 16 -130 15 -9 -1 -15 3 -12 8
7 11 -2 16 -40 24 -16 3 -36 2 -44 -3z"/>
<path d="M1850 208 c0 -5 34 -8 75 -8 41 0 75 4 75 8 0 4 -34 8 -75 7 -41 0
-75 -3 -75 -7z"/>
</g>
</svg>
