<?xml version="1.0" standalone="no"?>
<!DOCTYPE svg PUBLIC "-//W3C//DTD SVG 20010904//EN"
 "http://www.w3.org/TR/2001/REC-SVG-20010904/DTD/svg10.dtd">
<svg version="1.0" xmlns="http://www.w3.org/2000/svg"
 width="300.000000pt" height="182.000000pt" viewBox="0 0 300.000000 182.000000"
 preserveAspectRatio="xMidYMid meet">
<metadata>
Created by potrace 1.10, written by Peter Selinger 2001-2011
</metadata>
<g transform="translate(0.000000,182.000000) scale(0.100000,-0.100000)"
fill="#000000" stroke="none">
<path d="M1585 1789 c-754 -27 -1378 -214 -1516 -453 l-29 -51 0 -273 c0 -234
2 -278 16 -305 75 -144 285 -262 629 -352 187 -49 521 -105 627 -105 l37 0 3
-114 3 -114 220 210 c121 116 220 215 220 219 0 4 -99 111 -220 237 l-220 229
-3 -114 c-2 -102 -4 -114 -20 -109 -9 2 -53 7 -97 11 -214 18 -538 86 -728
151 -121 43 -317 138 -317 155 0 12 155 93 250 130 286 113 708 185 1188 205
l172 7 0 223 c0 123 -3 223 -7 222 -5 0 -98 -4 -208 -9z m183 -217 c2 -141 0
-183 -10 -187 -7 -2 -86 -6 -174 -9 -89 -3 -168 -8 -175 -10 -8 -3 -72 -10
-144 -16 -71 -6 -159 -15 -195 -21 -56 -8 -185 -31 -200 -34 -3 -1 -23 -5 -45
-10 -74 -14 -220 -53 -282 -74 -34 -12 -69 -21 -78 -21 -8 0 -15 -4 -15 -10 0
-5 -7 -10 -15 -10 -26 0 -226 -102 -238 -121 -17 -28 -30 -24 -74 23 -58 64
-68 95 -53 170 19 99 59 145 195 227 92 56 188 98 295 130 41 12 86 27 100 32
14 5 36 12 50 14 14 3 45 10 70 15 181 39 449 78 594 86 56 4 102 8 104 9 1 1
66 1 145 1 l142 -1 3 -183z m-1643 -517 c58 -58 118 -109 130 -112 23 -4 145
-70 140 -75 -3 -3 16 -9 42 -13 26 -4 53 -11 58 -15 6 -5 13 -9 17 -9 39 -6
68 -15 68 -21 0 -3 6 -7 13 -8 23 -2 46 -8 53 -14 3 -4 12 -4 20 -1 8 3 14 1
14 -3 0 -5 16 -10 36 -12 20 -1 41 -5 48 -9 6 -4 19 -8 29 -9 9 -1 18 -3 20
-4 1 -1 16 -4 32 -6 17 -2 39 -5 50 -8 11 -2 44 -7 73 -11 28 -4 52 -11 52
-15 0 -4 16 -7 36 -6 20 1 37 -1 39 -5 3 -3 41 -7 85 -7 45 -1 89 -6 98 -10 9
-5 33 -6 52 -3 l35 6 5 72 c5 68 17 103 27 76 3 -7 9 -13 14 -13 5 0 37 -30
72 -66 103 -109 160 -170 195 -208 19 -20 37 -36 41 -36 12 0 42 -60 36 -71
-7 -10 -25 -28 -239 -234 -62 -60 -117 -104 -125 -103 -12 3 -16 18 -18 66 -1
35 -4 69 -6 76 -6 15 -49 26 -117 31 -70 5 -163 15 -180 20 -8 3 -31 7 -50 9
-70 10 -235 42 -235 47 0 1 -10 3 -23 4 -54 6 -353 102 -385 124 -12 9 -27 16
-34 17 -18 3 -115 60 -143 85 -14 11 -36 31 -50 43 -34 29 -80 92 -73 99 3 3
-2 13 -11 22 -14 14 -16 44 -15 208 0 183 1 191 17 167 9 -14 35 -43 57 -65z"/>
<path d="M2255 1546 c-11 -7 -41 -15 -67 -18 -55 -6 -108 -41 -108 -71 0 -11
9 -30 19 -41 l20 -21 -157 -43 c-86 -24 -191 -54 -232 -67 -73 -23 -75 -25
-78 -57 -4 -45 24 -176 41 -197 7 -9 33 -131 56 -271 32 -188 47 -258 59 -268
10 -7 51 -34 92 -60 41 -25 92 -61 112 -79 21 -18 64 -45 95 -61 32 -15 113
-63 180 -106 l123 -78 87 80 c49 44 102 94 118 112 17 17 45 38 63 47 18 9 38
25 43 37 6 11 39 50 74 86 l62 65 27 225 c14 124 26 235 26 247 0 12 7 26 15
30 21 12 47 142 43 217 l-3 61 -150 31 c-82 18 -166 35 -186 38 -28 5 -38 12
-43 31 -4 14 -18 32 -32 41 -24 16 -28 16 -80 -5 -40 -17 -64 -21 -94 -16 -37
6 -40 9 -40 40 0 76 -35 106 -85 71z m70 -103 c6 -56 14 -105 18 -109 9 -9
117 10 154 28 16 7 36 29 45 48 l18 34 10 -30 c6 -16 24 -38 40 -48 24 -13 30
-24 30 -50 0 -44 -20 -58 -83 -64 -42 -3 -69 2 -134 28 -73 28 -85 30 -106 18
-158 -87 -191 -95 -376 -101 l-144 -3 37 29 c20 16 36 33 36 38 0 4 -16 11
-35 15 -90 16 -29 24 194 24 131 0 246 3 255 6 18 7 22 39 6 49 -6 4 -8 10 -6
14 16 26 -97 111 -148 111 -30 0 -30 0 -9 15 12 8 43 18 70 22 26 3 57 12 68
20 41 28 49 14 60 -94z m-140 7 c41 -20 106 -79 75 -68 -8 3 -41 13 -72 22
-58 17 -93 40 -83 57 9 14 35 11 80 -11z m355 -20 c0 -6 -11 -22 -24 -35 -22
-22 -52 -33 -131 -49 l-30 -6 39 35 c22 20 60 42 85 50 57 17 61 17 61 5z
m-162 -6 l23 -7 -22 -23 c-30 -32 -39 -30 -39 6 0 32 2 33 38 24z m-170 -60
c70 -17 91 -28 78 -41 -11 -12 -186 -3 -242 11 l-49 13 45 12 c25 7 50 14 55
16 20 7 48 5 113 -11z m593 -29 c74 -15 135 -28 137 -30 1 -1 -29 -21 -68 -43
l-71 -41 -80 21 c-55 15 -76 25 -69 32 14 14 13 69 -2 85 -11 11 -10 13 3 8 9
-3 76 -17 150 -32z m-791 -5 c18 -6 9 -8 -35 -8 -44 0 -53 2 -35 8 14 4 30 8
35 8 6 0 21 -4 35 -8z m373 -49 c25 -11 48 -24 51 -29 3 -6 52 -10 114 -9 105
1 203 -15 231 -36 10 -9 12 -28 7 -82 -16 -173 -16 -174 -49 -191 l-30 -16 6
83 c4 46 7 101 7 121 0 32 5 40 31 53 17 9 29 19 26 21 -3 3 -19 -2 -37 -11
-30 -16 -37 -15 -143 11 -62 15 -120 31 -129 36 -23 11 -23 3 2 -32 43 -60 70
-134 70 -190 l0 -55 -51 53 c-28 28 -55 52 -61 52 -6 0 -35 -18 -65 -40 l-53
-41 40 63 c57 88 59 99 19 177 -43 85 -42 81 -36 81 3 0 25 -9 50 -19z m-53
-14 c-1 -7 -61 -40 -136 -74 l-135 -62 -57 20 c-31 11 -64 18 -72 16 -8 -1 16
-13 53 -26 38 -13 70 -28 72 -35 2 -6 6 -57 9 -113 l6 -102 -67 28 -68 28 -13
109 c-16 134 -15 134 104 134 94 0 161 19 238 65 51 32 66 34 66 12z m625 -44
c-3 -38 -11 -91 -17 -119 -10 -48 -14 -53 -77 -92 -36 -22 -67 -39 -69 -38 -1
2 1 54 4 116 l7 112 66 43 c91 60 94 59 86 -22z m-1135 43 l34 -13 -26 -17
c-26 -17 -30 -17 -85 2 l-58 19 35 11 c45 13 58 13 100 -2z m-95 -39 c36 -13
60 -28 60 -37 0 -11 11 -14 45 -12 25 2 54 5 65 7 11 3 15 3 9 0 -10 -5 -8
-31 11 -187 l5 -47 -107 44 -108 43 -16 48 c-13 40 -33 164 -26 164 1 0 29
-10 62 -23z m638 -22 c26 -55 21 -91 -21 -152 -6 -10 -38 -3 -136 30 l-128 43
124 56 c68 32 128 57 134 58 6 0 18 -16 27 -35z m245 -26 c45 -12 81 -23 80
-24 -2 -1 -33 -21 -70 -43 l-67 -40 -15 37 c-8 20 -25 51 -38 70 l-22 34 24
-6 c14 -4 62 -17 108 -28z m92 -155 c-8 -90 -14 -121 -26 -129 -9 -5 -62 -39
-117 -76 l-102 -65 1 128 c0 115 -1 128 -17 128 -10 0 -25 3 -34 6 -14 6 -13
8 5 21 19 13 22 12 48 -19 44 -52 61 -68 76 -68 19 0 28 31 24 75 -2 34 0 37
72 79 41 24 76 43 78 41 1 -1 -2 -56 -8 -121z m-492 42 c61 -21 112 -40 112
-42 0 -3 -7 -15 -16 -28 -22 -35 -1 -41 36 -10 27 23 36 25 63 17 30 -8 32
-12 39 -68 7 -57 0 -185 -9 -185 -9 0 -338 133 -344 139 -4 3 -10 55 -14 115
-5 88 -4 108 7 104 7 -3 64 -22 126 -42z m-283 -161 c11 -74 57 -497 53 -500
-2 -2 -35 17 -73 41 -39 25 -76 49 -84 53 -8 5 -29 97 -57 257 -24 137 -44
252 -44 255 0 4 45 -12 100 -34 92 -38 100 -43 105 -72z m945 -130 l-30 -239
-47 -48 c-26 -26 -48 -46 -49 -45 -2 2 3 77 12 167 8 91 17 204 20 251 l7 86
56 35 c31 20 57 35 58 34 1 -1 -11 -109 -27 -241z m-114 4 c-8 -85 -18 -199
-22 -254 -7 -100 -23 -148 -52 -160 -8 -3 -16 -4 -17 -3 -1 2 1 48 6 103 4 55
13 175 20 266 l12 165 31 21 c17 11 32 20 34 18 1 -1 -4 -71 -12 -156z m-751
125 c57 -23 65 -29 70 -57 10 -68 45 -530 40 -535 -8 -9 -70 26 -95 53 -19 20
-25 55 -51 281 -16 143 -31 265 -34 272 -6 16 -5 16 70 -14z m664 -284 c-24
-304 -6 -260 -161 -402 l-88 -80 0 301 c0 236 3 299 13 296 6 -2 66 31 132 74
66 43 121 77 122 76 1 0 -7 -120 -18 -265z m-391 175 l122 -49 0 -308 0 -308
-87 57 c-49 31 -107 68 -131 82 -23 14 -44 35 -47 46 -2 11 -11 114 -20 230
-9 116 -19 236 -22 268 l-6 58 34 -14 c19 -7 89 -35 157 -62z"/>
</g>
</svg>
