<svg xmlns="http://www.w3.org/2000/svg" xmlns:xlink="http://www.w3.org/1999/xlink" version="1.1" viewBox="71 0.5 32.51 26"><title>Group 2</title><defs><path id="path-1" points="0 0 32.5079365 0 32.5079365 10 0 10" d="M0 0L32.508 0L32.508 10L0 10Z"/></defs><g id="New-HomePage" stroke="none" stroke-width="1" fill="none" fill-rule="evenodd"><g id="Artboard" transform="translate(-73 -57)"><g id="Group-2" transform="translate(74 57.5)"><g id="Group-4" transform="translate(70)"><path id="Fill-1" fill="#131B1F" points="12.6607625 10 8.12698413 5.49901363 3.59320577 10 2.03174603 8.05123259 8.12698413 2 14.2222222 8.05123259" d="M12.661 10L8.127 5.499L3.593 10L2.032 8.051L8.127 2L14.222 8.051Z"/><path id="Fill-2" fill="#131B1F" points="25.1588953 0 25.1588953 4.76990323 20.3174603 4.76990323 20.3174603 7.23009677 25.1588953 7.23009677 25.1588953 12 27.6665015 12 27.6665015 7.23009677 32.5079365 7.23009677 32.5079365 4.76990323 27.6665015 4.76990323 27.6665015 0" d="M25.159 0L25.159 4.77L20.317 4.77L20.317 7.23L25.159 7.23L25.159 12L27.667 12L27.667 7.23L32.508 7.23L32.508 4.77L27.667 4.77L27.667 0Z"/><g id="Group" transform="translate(0 16)"><mask id="mask-2" fill="white"><use href="#path-1"/></mask><g id="Clip-4"/><path d="M16.67 10c-1.91 0 -3.85 -0.277 -5.769 -0.824 -4.942 -1.41 -8.26 -4.162 -8.621 -4.471L0 2.754 2.1 0l2.278 1.95c0.12 0.103 3.037 2.565 7.392 3.808 1.635 0.466 3.283 0.702 4.9 0.702 4.107 0 7.963 -1.517 11.46 -4.51L30.409 0l2.099 2.754 -2.279 1.95C26.122 8.218 21.56 10 16.67 10" id="Fill-3" fill="#FFA41B" mask="url(#mask-2)"/></g></g></g></g></g></svg>