<?xml version="1.0" standalone="no"?>
<!DOCTYPE svg PUBLIC "-//W3C//DTD SVG 20010904//EN"
 "http://www.w3.org/TR/2001/REC-SVG-20010904/DTD/svg10.dtd">
<svg version="1.0" xmlns="http://www.w3.org/2000/svg"
 width="300.000000pt" height="290.000000pt" viewBox="0 0 300.000000 290.000000"
 preserveAspectRatio="xMidYMid meet">
<metadata>
Created by potrace 1.10, written by Peter Selinger 2001-2011
</metadata>
<g transform="translate(0.000000,290.000000) scale(0.100000,-0.100000)"
fill="#000000" stroke="none">
<path d="M1220 2844 l-25 -15 25 7 c28 7 35 12 29 18 -2 2 -15 -2 -29 -10z"/>
<path d="M1273 2853 c9 -2 23 -2 30 0 6 3 -1 5 -18 5 -16 0 -22 -2 -12 -5z"/>
<path d="M1335 2850 c-3 -5 -1 -10 4 -10 6 0 11 5 11 10 0 6 -2 10 -4 10 -3 0
-8 -4 -11 -10z"/>
<path d="M2269 2832 c7 -5 21 -8 30 -5 10 2 41 0 70 -5 29 -5 49 -6 44 -1 -5
5 -42 11 -83 15 -49 4 -70 2 -61 -4z"/>
<path d="M1400 2826 c0 -11 39 -50 45 -44 3 2 -6 15 -20 28 -14 13 -25 20 -25
16z"/>
<path d="M2155 2820 c-13 -5 -14 -9 -5 -9 8 0 24 4 35 9 13 5 14 9 5 9 -8 0
-24 -4 -35 -9z"/>
<path d="M1150 2795 c-11 -13 -10 -14 4 -9 9 3 16 10 16 15 0 13 -6 11 -20 -6z"/>
<path d="M2100 2800 c-9 -6 -10 -10 -3 -10 6 0 15 5 18 10 8 12 4 12 -15 0z"/>
<path d="M2455 2800 c3 -5 8 -10 11 -10 2 0 4 5 4 10 0 6 -5 10 -11 10 -5 0
-7 -4 -4 -10z"/>
<path d="M2496 2786 c10 -8 21 -12 24 -10 5 6 -21 24 -34 24 -6 0 -1 -6 10
-14z"/>
<path d="M2055 2780 c-3 -5 -2 -10 4 -10 5 0 13 5 16 10 3 6 2 10 -4 10 -5 0
-13 -4 -16 -10z"/>
<path d="M2557 2759 c7 -7 15 -10 18 -7 3 3 -2 9 -12 12 -14 6 -15 5 -6 -5z"/>
<path d="M1966 2725 c-11 -8 -16 -15 -10 -15 5 0 18 7 28 15 11 8 16 15 10 15
-5 0 -18 -7 -28 -15z"/>
<path d="M1096 2705 c-3 -9 -5 -33 -5 -53 2 -33 2 -32 9 13 8 53 6 66 -4 40z"/>
<path d="M1808 2694 c-4 -3 0 -20 8 -36 9 -17 13 -32 10 -35 -3 -4 -13 10 -21
30 -8 21 -19 37 -24 37 -12 0 25 -77 42 -87 7 -4 20 -20 30 -35 l17 -27 -36
-11 c-19 -7 -50 -9 -68 -6 -28 5 -36 2 -49 -18 -18 -27 -13 -62 11 -71 8 -3
44 5 79 17 78 28 97 21 101 -43 3 -42 22 -82 22 -46 0 10 8 17 20 17 24 0 28
-37 6 -54 -8 -6 -16 -25 -18 -43 -3 -36 26 -72 129 -160 113 -97 123 -107 116
-131 -3 -12 -10 -22 -15 -22 -6 0 -8 9 -5 20 3 14 -3 27 -21 41 -15 11 -46 38
-68 59 -50 47 -103 80 -126 80 -13 0 -18 8 -18 30 0 37 -15 40 -18 3 -2 -28
25 -62 45 -56 7 3 21 -5 33 -17 11 -11 25 -18 30 -15 6 4 10 -1 10 -9 0 -9 5
-16 12 -16 7 0 22 -10 33 -22 l21 -23 -20 -18 c-21 -18 -21 -18 4 -3 24 15 54
9 55 -11 2 -27 19 -53 35 -53 20 0 30 19 30 55 0 13 5 27 10 30 6 4 8 11 4 16
-3 6 -11 3 -18 -6 -10 -15 -14 -14 -39 9 -16 15 -25 31 -21 38 4 7 3 8 -5 4
-6 -4 -23 4 -39 18 -56 52 -97 86 -104 86 -14 0 -8 16 23 58 l31 43 44 -38
c24 -21 58 -50 76 -64 29 -24 31 -28 18 -45 -14 -18 -13 -18 8 0 12 11 22 23
22 27 0 4 -42 40 -94 80 -96 73 -156 143 -156 182 0 12 -18 39 -40 61 -36 36
-60 85 -60 126 0 8 -5 22 -11 30 -8 11 -9 8 -4 -15 8 -36 -6 -25 -20 16 -6 17
-14 27 -17 23z m76 -189 c2 -5 -9 -11 -25 -12 -15 -1 -46 -11 -68 -22 -28 -15
-40 -17 -44 -8 -7 19 -3 31 11 33 6 1 10 -2 6 -7 -9 -14 9 -10 41 10 32 19 72
23 79 6z m123 -176 c6 -6 9 -19 5 -27 -8 -21 -34 -52 -44 -52 -12 0 -9 48 4
70 15 23 20 24 35 9z"/>
<path d="M2670 2680 c0 -5 5 -10 11 -10 5 0 7 5 4 10 -3 6 -8 10 -11 10 -2 0
-4 -4 -4 -10z"/>
<path d="M1895 2670 c-3 -5 -1 -10 4 -10 6 0 11 5 11 10 0 6 -2 10 -4 10 -3 0
-8 -4 -11 -10z"/>
<path d="M1750 2665 c0 -3 9 -24 21 -46 11 -23 18 -43 16 -45 -2 -3 -16 0 -30
5 -17 7 -28 7 -32 1 -4 -6 0 -10 8 -10 8 0 26 -9 41 -21 l26 -20 0 20 c0 12 4
21 9 21 14 0 7 25 -11 44 -9 9 -20 25 -23 36 -6 18 -25 29 -25 15z"/>
<path d="M1600 2619 l-23 -42 -13 32 c-8 19 -18 30 -25 26 -8 -5 -8 -10 0 -18
18 -18 13 -50 -17 -113 -16 -32 -43 -94 -62 -136 -30 -70 -109 -178 -130 -178
-16 0 -171 -105 -160 -108 5 -2 25 6 43 17 19 11 38 17 42 13 5 -4 5 -2 2 5
-5 7 6 16 27 23 19 6 37 17 40 25 8 22 31 8 60 -36 l27 -40 37 44 c21 23 47
53 59 66 11 12 23 35 26 49 7 38 0 41 -10 4 -4 -16 -31 -55 -60 -86 l-52 -56
-27 36 -27 35 21 22 c41 43 57 63 71 90 8 15 18 27 23 27 5 0 7 4 4 9 -8 13
79 209 99 223 7 5 7 8 0 8 -5 0 -4 4 4 9 15 10 51 3 51 -10 0 -5 -5 -9 -12 -9
-6 0 -9 -3 -5 -6 3 -4 0 -21 -7 -38 -17 -42 -30 -116 -17 -96 6 8 18 38 27 65
9 28 32 66 50 85 38 40 47 66 11 32 -16 -15 -27 -18 -37 -12 -13 8 -12 12 4
27 18 17 18 17 11 -7 l-7 -25 21 27 c25 31 28 46 5 27 -15 -12 -16 -11 -10 9
5 13 3 22 -3 22 -6 0 -11 -6 -11 -12 0 -14 -39 -68 -40 -55 0 4 7 21 15 37 24
46 2 35 -25 -11z"/>
<path d="M1480 2629 c0 -5 5 -7 10 -4 6 3 10 8 10 11 0 2 -4 4 -10 4 -5 0 -10
-5 -10 -11z"/>
<path d="M2720 2632 c1 -11 30 -47 31 -36 0 5 4 0 9 -11 6 -14 9 -16 9 -4 1 8
-10 25 -24 37 -14 12 -25 19 -25 14z"/>
<path d="M1100 2596 c0 -8 4 -17 9 -20 5 -4 7 3 4 14 -6 23 -13 26 -13 6z"/>
<path d="M1466 2573 c-6 -14 -5 -15 5 -6 7 7 10 15 7 18 -3 3 -9 -2 -12 -12z"/>
<path d="M1130 2542 c6 -13 14 -21 18 -18 3 4 -2 14 -12 24 -18 16 -18 16 -6
-6z"/>
<path d="M1311 2539 c0 -14 -10 -35 -22 -48 -12 -12 -19 -24 -17 -27 3 -2 15
7 27 20 16 17 21 32 18 52 -4 28 -4 28 -6 3z"/>
<path d="M1374 2528 c-45 -33 -51 -40 -34 -36 8 2 20 9 28 15 7 7 21 17 30 22
9 5 14 12 11 15 -3 4 -19 -4 -35 -16z"/>
<path d="M1405 2513 c-28 -24 -28 -25 -5 -18 23 7 24 7 10 -10 -14 -17 -14
-18 10 -5 16 8 20 15 12 18 -10 3 -10 7 -1 18 21 25 5 23 -26 -3z"/>
<path d="M1035 2519 c-4 -5 -19 -7 -34 -4 -39 8 -81 -26 -81 -67 0 -17 -7 -36
-16 -42 -21 -16 -8 -46 20 -46 27 0 41 -25 55 -98 6 -29 18 -69 26 -88 14 -35
17 -36 51 -31 39 7 114 51 114 67 0 6 -11 15 -24 19 -47 18 -35 74 14 69 22
-3 25 1 23 26 -3 36 -7 41 -30 26 -16 -10 -16 -11 0 -6 11 3 17 0 17 -10 0 -9
-7 -14 -17 -12 -37 7 -73 -71 -42 -91 27 -16 24 -28 -12 -50 -55 -34 -78 -10
-97 99 -11 60 -8 74 15 66 8 -3 11 -2 8 4 -3 5 3 14 14 19 11 6 21 21 23 33 2
15 10 23 23 23 11 1 31 7 43 14 27 15 53 10 100 -19 29 -18 31 -22 20 -40 -7
-11 -17 -19 -23 -19 -24 3 -36 -2 -30 -11 12 -19 53 -10 74 16 24 31 16 55
-26 76 -16 8 -38 21 -50 28 -19 12 -28 12 -55 1 -65 -26 -74 -25 -91 7 -8 17
-12 33 -9 36 13 13 32 4 46 -21 13 -24 15 -25 16 -7 0 36 -48 61 -65 33z m-33
-49 c-3 -11 0 -11 12 0 14 11 16 9 16 -13 0 -32 -10 -58 -20 -52 -4 3 -13 -2
-20 -10 -15 -18 -46 -20 -56 -3 -4 6 3 20 17 31 16 13 18 18 7 14 -22 -8 -23
2 -2 31 17 24 51 26 46 2z m53 -47 c-4 -10 -8 -24 -8 -30 0 -7 -2 -11 -5 -8
-3 2 -16 -5 -30 -15 -27 -22 -42 -25 -42 -11 0 5 9 13 20 16 11 4 18 11 14 16
-3 5 0 8 7 7 7 -2 18 7 24 20 11 26 31 30 20 5z"/>
<path d="M541 2493 c-57 -24 -89 -53 -104 -97 -2 -5 -12 -3 -24 4 -25 16 -55
6 -51 -17 1 -10 -1 -24 -5 -30 -21 -33 38 -46 66 -15 10 10 14 22 10 25 -6 6
11 11 30 8 4 0 7 6 7 14 0 28 32 66 49 60 8 -3 12 -3 8 1 -10 11 60 44 93 44
35 0 74 -28 61 -44 -13 -15 -70 -20 -85 -7 -18 15 -56 9 -58 -9 -4 -41 -3 -57
9 -79 9 -20 9 -30 -3 -52 -20 -39 -18 -57 11 -95 14 -18 30 -45 35 -59 13 -35
2 -122 -17 -129 -12 -5 -14 4 -13 47 3 64 -6 87 -33 87 -28 0 -87 -22 -87 -33
0 -4 -4 -5 -10 -2 -5 3 -10 1 -10 -5 0 -6 -4 -8 -10 -5 -5 3 -10 1 -10 -5 0
-7 -5 -10 -12 -8 -7 3 -12 24 -13 51 0 25 3 41 7 34 5 -8 8 -7 8 5 0 9 -6 18
-12 21 -8 2 8 26 40 61 41 43 51 60 43 70 -6 7 -10 15 -8 17 1 2 -4 -2 -10
-10 -7 -8 -13 -20 -13 -26 0 -6 -18 -29 -40 -50 -38 -37 -40 -42 -40 -100 0
-44 -6 -67 -20 -85 -25 -32 -25 -65 0 -90 24 -24 40 -26 40 -4 0 55 68 121
144 140 l29 7 -5 -53 c-8 -81 -2 -93 41 -85 47 9 54 14 41 30 -8 10 -8 25 0
53 12 47 5 72 -39 132 -29 41 -30 42 -14 76 17 35 17 37 -14 120 -5 14 35 26
43 12 4 -5 20 -8 36 -6 16 3 31 1 34 -4 3 -4 13 -8 23 -8 14 0 20 -11 25 -46
11 -84 8 -104 -22 -132 -28 -27 -32 -62 -7 -62 8 0 26 5 42 12 15 6 53 12 83
13 30 2 56 8 58 14 2 6 10 11 18 11 20 0 77 30 70 37 -6 6 -123 -34 -142 -49
-18 -14 -46 38 -39 72 5 21 1 34 -14 49 -30 30 -41 56 -41 98 0 30 -7 46 -28
66 -40 39 -76 41 -151 10z m-135 -140 c-10 -10 -19 5 -10 18 6 11 8 11 12 0 2
-7 1 -15 -2 -18z m345 -135 c6 -13 8 -20 4 -16 -5 4 -14 3 -21 -3 -8 -7 -14
-7 -19 1 -3 5 -1 10 4 10 6 0 11 7 11 15 0 21 7 19 21 -7z m-379 -168 c-21
-37 -36 -24 -21 18 9 25 14 30 24 22 11 -9 10 -16 -3 -40z"/>
<path d="M2355 2511 c-45 -11 -73 -32 -90 -68 -21 -43 -35 -124 -35 -198 0
-60 1 -62 34 -78 34 -16 35 -15 41 4 4 12 13 19 23 16 17 -3 77 21 70 28 -2 3
-17 1 -34 -4 -36 -10 -68 3 -84 35 -25 45 6 224 39 224 4 0 13 -11 19 -24 6
-13 24 -28 41 -34 40 -14 39 -3 -2 23 -18 11 -32 27 -32 35 0 22 60 25 101 5
50 -23 58 -46 49 -134 -9 -98 -9 -100 -1 -141 6 -27 3 -40 -11 -55 -10 -11
-24 -31 -31 -45 -7 -14 -10 -17 -8 -8 3 9 0 18 -6 20 -7 3 -6 9 3 18 22 23 20
241 -3 263 -12 12 -19 14 -24 6 -4 -7 3 -19 14 -28 19 -14 21 -21 12 -51 -5
-19 -9 -62 -8 -95 1 -34 -4 -74 -12 -92 -13 -29 -12 -38 0 -75 17 -48 40 -62
40 -24 0 14 10 45 21 69 24 50 41 52 79 12 24 -25 60 -140 60 -188 0 -41 22
-29 39 20 20 55 5 89 -75 174 -70 75 -83 112 -65 184 26 103 1 169 -76 201
-35 15 -43 16 -88 5z m-69 -319 c-3 -2 -13 -1 -23 2 -15 6 -15 8 -3 16 10 7
11 10 3 10 -7 0 -13 6 -13 13 1 6 10 1 21 -12 11 -13 17 -26 15 -29z"/>
<path d="M1635 2465 c-4 -16 -12 -35 -17 -42 -5 -6 -6 -27 -3 -46 5 -24 2 -38
-9 -50 -9 -8 -16 -25 -16 -36 0 -12 -4 -21 -10 -21 -5 0 -10 -12 -10 -26 0
-17 -4 -23 -12 -18 -7 4 -10 4 -6 0 3 -4 0 -25 -7 -47 -8 -22 -14 -42 -14 -44
0 -3 -7 -26 -17 -50 -9 -25 -14 -48 -11 -52 8 -7 33 51 77 177 39 112 66 158
98 166 15 4 20 10 14 16 -6 6 -18 6 -32 -2 -29 -16 -34 -8 -20 34 6 20 10 44
7 53 -3 13 -6 9 -12 -12z"/>
<path d="M585 2470 c-3 -5 -1 -10 4 -10 6 0 11 5 11 10 0 6 -2 10 -4 10 -3 0
-8 -4 -11 -10z"/>
<path d="M2830 2470 c0 -5 5 -10 11 -10 5 0 7 5 4 10 -3 6 -8 10 -11 10 -2 0
-4 -4 -4 -10z"/>
<path d="M1344 2436 c-38 -38 -57 -69 -23 -40 13 12 46 31 73 43 27 12 47 24
43 27 -3 3 -14 1 -25 -5 -10 -5 -23 -7 -28 -2 -5 4 -23 -6 -40 -23z"/>
<path d="M648 2453 c7 -3 16 -2 19 1 4 3 -2 6 -13 5 -11 0 -14 -3 -6 -6z"/>
<path d="M2850 2445 c0 -5 5 -17 10 -25 5 -8 10 -10 10 -5 0 6 -5 17 -10 25
-5 8 -10 11 -10 5z"/>
<path d="M1840 2420 c0 -5 10 -10 23 -10 18 0 19 2 7 10 -19 13 -30 13 -30 0z"/>
<path d="M1768 2413 c7 -3 16 -2 19 1 4 3 -2 6 -13 5 -11 0 -14 -3 -6 -6z"/>
<path d="M2301 2398 c-11 -30 -4 -36 14 -12 17 23 19 34 5 34 -6 0 -14 -10
-19 -22z"/>
<path d="M1563 2393 c4 -6 0 -24 -8 -39 -8 -16 -15 -38 -14 -49 0 -13 5 -8 13
15 7 19 16 42 20 51 4 10 2 20 -5 25 -7 4 -10 3 -6 -3z"/>
<path d="M1740 2332 c0 -64 2 -72 26 -91 14 -11 27 -31 29 -44 5 -22 1 -25
-41 -31 -29 -4 -70 -22 -117 -52 -68 -44 -136 -104 -117 -104 5 0 12 5 15 10
4 6 11 8 16 5 5 -4 9 -2 9 3 0 11 102 82 119 82 7 0 9 5 5 11 -5 9 1 10 22 5
19 -4 24 -3 15 3 -11 7 -10 10 7 15 11 4 32 5 46 2 15 -3 24 -1 21 4 -3 5 -1
11 5 15 5 3 10 15 10 26 0 10 4 19 8 19 5 0 17 7 28 15 18 15 18 15 -8 9 -18
-4 -35 0 -52 13 -21 15 -25 26 -26 71 0 40 4 52 15 52 8 0 15 5 15 10 0 6 -4
10 -9 10 -5 0 -16 3 -25 6 -14 5 -16 -4 -16 -64z"/>
<path d="M580 2383 c1 -16 30 -46 37 -39 5 4 0 14 -10 21 -13 10 -15 14 -5 18
8 4 7 6 -4 6 -10 1 -18 -2 -18 -6z"/>
<path d="M1792 2361 c-6 -17 -7 -33 -2 -36 9 -5 25 53 17 61 -3 3 -9 -9 -15
-25z"/>
<path d="M1840 2380 c0 -5 7 -10 15 -10 8 0 15 5 15 10 0 6 -7 10 -15 10 -8 0
-15 -4 -15 -10z"/>
<path d="M640 2373 c0 -19 22 -63 32 -63 12 0 10 6 -12 42 -11 18 -20 28 -20
21z"/>
<path d="M670 2370 c19 -13 30 -13 30 0 0 6 -10 10 -22 10 -19 0 -20 -2 -8
-10z"/>
<path d="M2326 2355 c-9 -14 -14 -31 -10 -37 4 -6 13 3 21 22 17 41 11 49 -11
15z"/>
<path d="M2375 2360 c3 -5 8 -10 11 -10 2 0 4 5 4 10 0 6 -5 10 -11 10 -5 0
-7 -4 -4 -10z"/>
<path d="M2885 2360 c3 -5 8 -10 11 -10 2 0 4 5 4 10 0 6 -5 10 -11 10 -5 0
-7 -4 -4 -10z"/>
<path d="M2901 2320 c0 -8 4 -22 9 -30 12 -18 12 -2 0 25 -6 13 -9 15 -9 5z"/>
<path d="M486 2303 c-6 -14 -5 -15 5 -6 7 7 10 15 7 18 -3 3 -9 -2 -12 -12z"/>
<path d="M1216 2304 c-3 -9 -6 -35 -6 -60 0 -36 -5 -47 -29 -65 -16 -12 -32
-32 -35 -45 -6 -21 -13 -24 -49 -24 -24 0 -48 5 -55 12 -9 9 -12 7 -12 -10 0
-17 -6 -22 -27 -22 -59 -1 -105 -40 -149 -125 -23 -44 -45 -91 -48 -105 -7
-24 -7 -25 9 -5 9 11 30 48 47 83 17 34 32 61 34 60 1 -2 14 -56 29 -122 15
-65 29 -124 31 -131 4 -9 -8 -14 -38 -17 -24 -3 -44 -4 -46 -2 -7 5 31 54 38
49 4 -3 10 4 13 15 6 23 -5 26 -23 6 -6 -8 -17 -13 -25 -10 -16 6 -26 -51 -11
-66 5 -5 29 -10 53 -10 49 0 56 -17 22 -51 -19 -19 -29 -21 -81 -15 -53 5 -59
4 -48 -9 13 -16 105 -21 126 -7 6 4 17 24 24 44 15 40 14 48 -30 247 l-23 103
23 18 c13 10 41 21 61 24 20 3 39 13 43 21 4 11 21 15 66 15 57 0 60 1 60 25
0 14 6 25 13 25 36 0 52 28 57 99 5 67 -1 90 -14 55z"/>
<path d="M1820 2305 c-8 -9 -8 -15 -2 -15 12 0 26 19 19 26 -2 2 -10 -2 -17
-11z"/>
<path d="M622 2288 c3 -7 13 -15 24 -17 16 -3 17 -1 5 13 -16 19 -34 21 -29 4z"/>
<path d="M2335 2290 c-3 -5 1 -10 9 -10 8 0 18 5 21 10 3 6 -1 10 -9 10 -8 0
-18 -4 -21 -10z"/>
<path d="M356 2264 c-14 -15 -26 -34 -25 -43 0 -13 1 -14 6 -1 3 8 17 27 31
43 33 35 23 36 -12 1z"/>
<path d="M2915 2250 c3 -5 8 -10 11 -10 2 0 4 5 4 10 0 6 -5 10 -11 10 -5 0
-7 -4 -4 -10z"/>
<path d="M395 2229 c-11 -16 -1 -19 13 -3 7 8 8 14 3 14 -5 0 -13 -5 -16 -11z"/>
<path d="M2530 2222 c0 -8 26 -41 59 -75 32 -34 66 -75 74 -92 9 -17 16 -23
17 -14 0 22 -51 91 -84 112 -15 10 -36 32 -46 50 -11 18 -20 26 -20 19z"/>
<path d="M2932 2210 c0 -14 2 -19 5 -12 2 6 2 18 0 25 -3 6 -5 1 -5 -13z"/>
<path d="M618 2198 c5 -5 16 -8 23 -6 8 3 3 7 -10 11 -17 4 -21 3 -13 -5z"/>
<path d="M2389 2190 c-33 -10 -81 -57 -67 -66 6 -4 14 0 19 7 23 39 35 49 56
49 13 0 23 5 23 10 0 6 -1 10 -2 9 -2 0 -15 -4 -29 -9z"/>
<path d="M2370 2130 c0 -11 4 -20 9 -20 17 0 19 15 5 28 -12 11 -14 9 -14 -8z"/>
<path d="M704 2116 c-3 -14 -18 -36 -33 -47 -20 -17 -22 -20 -7 -18 19 4 63
75 53 86 -3 3 -9 -6 -13 -21z"/>
<path d="M952 2124 c-13 -9 -30 -13 -38 -10 -9 3 -12 1 -9 -4 3 -6 0 -10 -8
-10 -8 0 -20 -7 -27 -16 -8 -8 -23 -20 -34 -26 -20 -11 -20 -10 -3 9 9 11 17
23 17 28 0 15 -40 -27 -68 -72 -24 -38 -31 -43 -64 -43 -21 0 -38 5 -38 10 0
6 18 10 41 10 43 0 46 14 3 23 -31 6 -70 -29 -53 -49 15 -18 67 -22 89 -7 18
13 19 12 12 -9 -4 -13 -6 -32 -6 -43 1 -11 3 -33 4 -50 3 -55 19 4 19 75 1 36
5 71 9 77 4 7 54 35 110 62 56 28 102 53 102 56 0 11 -37 4 -58 -11z"/>
<path d="M2165 2109 c-4 -6 -5 -12 -2 -15 2 -3 7 2 10 11 7 17 1 20 -8 4z"/>
<path d="M2336 2099 c-11 -30 -23 -119 -17 -124 3 -4 11 24 18 61 11 62 11 97
-1 63z"/>
<path d="M1910 2073 c-14 -7 -18 -13 -10 -13 17 0 47 17 40 23 -3 2 -16 -2
-30 -10z"/>
<path d="M2947 2018 c8 -95 13 -99 13 -10 0 39 -4 73 -9 77 -6 3 -8 -23 -4
-67z"/>
<path d="M1810 2066 c0 -2 11 -6 25 -8 13 -3 22 -1 19 3 -5 9 -44 13 -44 5z"/>
<path d="M2498 2053 c7 -3 16 -2 19 1 4 3 -2 6 -13 5 -11 0 -14 -3 -6 -6z"/>
<path d="M1303 1990 c-32 -30 -53 -60 -54 -73 0 -12 -6 -65 -13 -117 -12 -90
-6 -155 20 -229 12 -36 14 5 3 73 -9 61 -9 98 1 184 l13 107 48 47 c27 26 49
50 49 53 0 14 -19 1 -67 -45z"/>
<path d="M1666 2003 c-11 -59 -18 -476 -8 -469 6 3 11 43 12 89 2 115 2 111
14 119 8 6 8 8 0 8 -7 0 -10 44 -9 140 1 77 0 140 -1 140 -1 0 -5 -12 -8 -27z"/>
<path d="M1375 2010 c-12 -19 6 -67 33 -93 53 -50 106 -55 163 -16 14 10 28
17 30 14 2 -2 15 5 29 15 30 24 11 26 -31 4 -17 -8 -33 -13 -37 -10 -3 3 -13
-1 -23 -10 -21 -19 -105 -16 -101 4 1 6 -4 12 -11 12 -18 0 -37 43 -32 69 4
22 -9 29 -20 11z"/>
<path d="M235 1970 c-21 -22 -37 -41 -34 -43 2 -2 23 16 46 39 22 24 38 44 34
44 -4 0 -24 -18 -46 -40z"/>
<path d="M1910 2000 c-24 -15 1 -44 41 -47 40 -4 66 21 48 44 -13 15 -67 17
-89 3z m85 -15 c0 -5 -19 -11 -42 -13 -38 -3 -53 5 -38 20 10 9 80 3 80 -7z"/>
<path d="M2019 1945 c-5 -137 -4 -220 2 -240 4 -11 9 -49 13 -83 3 -35 11 -72
16 -83 8 -15 7 -21 -3 -25 -8 -3 -101 -4 -206 -2 -123 2 -191 -1 -191 -7 0 -5
14 -271 30 -590 16 -319 30 -595 30 -612 0 -26 4 -33 20 -33 27 0 25 -28 -2
-39 -13 -5 -41 -17 -63 -27 -37 -18 -83 -19 -730 -24 l-690 -5 715 2 c393 1
757 5 809 8 l93 6 -5 40 c-4 30 -2 39 10 39 12 0 14 18 9 118 -3 64 -8 290
-11 502 -6 397 -11 502 -26 479 -8 -13 -5 -464 6 -866 l6 -213 -31 -1 c-16 -1
-40 -2 -52 -2 -20 -1 -23 4 -23 40 0 23 -3 39 -7 36 -5 -2 -8 31 -8 74 -1 43
-3 101 -5 128 -2 28 -6 106 -10 175 -3 69 -8 166 -11 215 -2 50 -7 135 -9 190
-2 55 -7 155 -11 223 l-6 122 180 0 180 0 6 -37 c4 -21 8 -56 11 -78 2 -22 9
-62 15 -90 12 -52 39 -208 45 -260 2 -16 13 -79 25 -140 22 -110 47 -257 55
-327 6 -43 23 -93 31 -86 7 7 -26 224 -101 665 -35 207 -62 379 -60 384 3 4
-2 54 -10 111 -9 57 -16 152 -17 212 -1 134 -15 207 -19 101z m-186 -1695 c-6
-21 -33 -28 -33 -8 0 6 -3 8 -6 5 -4 -4 -1 -13 6 -22 11 -13 7 -15 -26 -14
-22 0 -33 3 -26 6 6 2 12 16 12 29 0 21 4 24 39 24 34 0 38 -3 34 -20z"/>
<path d="M2098 2003 c7 -3 16 -2 19 1 4 3 -2 6 -13 5 -11 0 -14 -3 -6 -6z"/>
<path d="M1598 1993 c7 -3 16 -2 19 1 4 3 -2 6 -13 5 -11 0 -14 -3 -6 -6z"/>
<path d="M2430 1980 c30 -3 66 -4 80 0 14 4 -10 7 -55 7 -75 0 -77 0 -25 -7z"/>
<path d="M347 1919 c-17 -45 -87 -288 -87 -300 0 -4 19 -9 43 -11 23 -3 48 -6
55 -9 9 -3 28 36 59 119 44 118 63 147 63 99 0 -13 3 -27 7 -31 4 -4 6 -24 4
-44 -4 -45 8 -37 19 12 4 20 4 36 -1 38 -6 2 -23 41 -39 88 l-30 85 -2 -50
c-1 -27 -2 -63 -3 -80 -1 -38 -29 -98 -40 -88 -4 5 -5 2 0 -5 4 -8 2 -26 -5
-40 -34 -75 -36 -77 -67 -80 -31 -3 -32 -2 -29 30 4 42 40 172 65 235 11 28
16 55 11 62 -5 9 -13 -1 -23 -30z"/>
<path d="M2309 1943 c0 -10 -3 -45 -6 -78 -3 -33 -2 -57 1 -54 4 4 9 33 12 65
3 33 7 65 9 72 3 6 0 12 -5 12 -6 0 -10 -8 -11 -17z"/>
<path d="M2388 1945 c32 -12 50 -14 70 -6 l27 9 -30 1 c-16 1 -48 4 -70 7
l-40 5 43 -16z"/>
<path d="M2471 1896 c-13 -33 -4 -209 11 -200 5 3 8 15 7 27 -5 52 2 108 11
102 6 -3 10 -19 10 -35 0 -16 8 -37 19 -47 26 -25 151 -365 144 -392 -3 -12
-1 -21 6 -21 6 0 11 11 11 24 0 38 12 38 40 0 14 -18 28 -34 33 -34 10 0 9 18
-3 25 -5 3 -15 15 -21 27 -8 15 -8 19 1 13 6 -4 17 1 25 11 13 18 14 18 34 0
12 -11 21 -14 21 -7 0 6 -17 24 -38 39 -37 26 -41 34 -85 182 -26 85 -49 178
-53 206 -6 51 -18 83 -28 73 -3 -3 1 -31 8 -62 15 -63 16 -61 -36 -75 -25 -7
-39 -7 -47 1 -14 14 -14 25 2 30 6 2 4 3 -5 2 -11 -2 -18 3 -18 14 0 10 -3 21
-7 25 -5 4 -13 29 -19 54 l-11 47 -12 -29z m170 -169 c2 -26 7 -53 14 -72 5
-16 5 -17 -4 -5 -7 9 -11 11 -11 3 0 -7 6 -16 13 -20 14 -8 50 -111 50 -141 0
-10 11 -30 24 -45 25 -31 23 -47 -8 -47 -21 0 -33 24 -93 180 -21 52 -41 105
-47 118 -5 13 -7 27 -4 31 7 13 65 11 66 -2z"/>
<path d="M172 1890 c-18 -29 -15 -38 4 -12 9 13 14 25 12 27 -2 2 -9 -5 -16
-15z"/>
<path d="M2124 1828 c61 -66 74 -87 70 -105 -4 -13 -2 -23 4 -23 19 0 20 27 1
66 -10 21 -18 35 -19 30 0 -5 -10 4 -22 20 -13 16 -26 30 -30 32 -4 2 -6 9 -4
15 1 7 1 8 -2 4 -2 -4 -15 4 -29 18 -14 14 -30 25 -35 25 -5 0 24 -37 66 -82z"/>
<path d="M1758 1893 c7 -3 16 -2 19 1 4 3 -2 6 -13 5 -11 0 -14 -3 -6 -6z"/>
<path d="M1845 1890 l-40 -7 37 -2 c20 0 40 4 43 9 3 6 5 9 3 9 -2 -1 -21 -5
-43 -9z"/>
<path d="M1717 1879 c7 -7 15 -10 18 -7 3 3 -2 9 -12 12 -14 6 -15 5 -6 -5z"/>
<path d="M1760 1866 c0 -2 9 -6 20 -9 11 -3 18 -1 14 4 -5 9 -34 13 -34 5z"/>
<path d="M2941 1854 c0 -11 3 -14 6 -6 3 7 2 16 -1 19 -3 4 -6 -2 -5 -13z"/>
<path d="M1828 1853 c7 -3 16 -2 19 1 4 3 -2 6 -13 5 -11 0 -14 -3 -6 -6z"/>
<path d="M1873 1853 c9 -2 23 -2 30 0 6 3 -1 5 -18 5 -16 0 -22 -2 -12 -5z"/>
<path d="M785 1809 c-9 -14 -2 -20 14 -10 8 6 9 11 3 15 -6 3 -14 1 -17 -5z"/>
<path d="M2927 1799 c4 -13 8 -18 11 -10 2 7 -1 18 -6 23 -8 8 -9 4 -5 -13z"/>
<path d="M1171 1774 c-2 -35 -68 -84 -113 -84 -18 0 -20 2 -8 10 13 8 13 10
-1 10 -9 0 -24 -9 -34 -20 -18 -20 -17 -20 16 -20 73 1 158 62 146 107 -4 15
-5 15 -6 -3z"/>
<path d="M766 1768 c-12 -37 -13 -59 -5 -64 5 -3 10 3 10 13 1 10 3 28 4 41 2
24 -3 30 -9 10z"/>
<path d="M1140 1760 c0 -5 -17 -18 -37 -29 -21 -11 -32 -20 -25 -21 21 0 69
28 75 45 4 8 2 15 -3 15 -6 0 -10 -4 -10 -10z"/>
<path d="M2378 1763 c12 -2 30 -2 40 0 9 3 -1 5 -23 4 -22 0 -30 -2 -17 -4z"/>
<path d="M1748 1753 c6 -2 18 -2 25 0 6 3 1 5 -13 5 -14 0 -19 -2 -12 -5z"/>
<path d="M1790 1748 c0 -4 16 -8 35 -8 19 0 35 2 35 4 0 2 -16 6 -35 8 -19 2
-35 0 -35 -4z"/>
<path d="M1965 1740 c-11 -5 -32 -9 -47 -9 -16 -1 -28 -5 -28 -10 0 -4 23 -4
50 2 28 5 50 14 50 18 0 5 -1 9 -2 8 -2 0 -12 -4 -23 -9z"/>
<path d="M90 1726 c0 -8 -3 -23 -6 -33 -5 -15 -4 -15 7 2 17 25 20 45 8 45 -5
0 -9 -6 -9 -14z"/>
<path d="M1800 1718 c0 -5 15 -8 34 -8 19 0 37 3 39 8 3 4 -12 7 -34 7 -21 0
-39 -3 -39 -7z"/>
<path d="M446 1638 c-19 -35 -39 -74 -45 -88 -17 -40 -214 -1117 -208 -1134 8
-20 177 -71 197 -59 14 9 110 429 174 760 23 121 21 154 -3 71 -8 -24 -16 -50
-19 -58 -3 -8 -7 -22 -8 -30 -4 -24 -30 -147 -54 -254 -12 -54 -23 -107 -25
-117 -2 -11 -6 -23 -9 -28 -3 -5 -8 -26 -12 -47 -8 -55 -11 -73 -24 -129 -6
-27 -12 -64 -14 -82 -4 -47 -22 -63 -59 -56 -18 3 -36 10 -41 14 -6 5 -20 9
-33 9 -13 0 -23 5 -23 10 0 6 -7 10 -15 10 -8 0 -13 6 -11 13 3 6 7 25 10 40
4 18 11 25 19 21 9 -5 9 -4 1 5 -7 8 -5 40 8 114 10 56 21 116 24 132 3 17 7
39 10 50 11 54 25 133 28 161 2 17 9 41 15 53 7 12 10 25 7 29 -8 13 24 187
35 190 5 2 7 8 4 13 -3 4 2 48 11 96 9 48 18 97 19 108 5 41 25 101 39 120 9
11 16 27 16 36 0 9 7 19 15 23 8 3 15 13 15 21 0 14 10 16 63 11 34 -3 95 -5
136 -5 59 -1 72 -4 68 -15 -3 -8 -2 -16 3 -18 4 -2 15 -25 23 -53 14 -49 16
-254 2 -410 -2 -33 -7 -109 -10 -170 -3 -60 -10 -159 -15 -220 -6 -60 -9 -117
-8 -125 1 -8 -2 -67 -7 -130 -5 -63 -8 -120 -7 -127 3 -16 -39 -26 -104 -26
-66 0 -73 5 -69 51 2 20 6 78 9 127 4 50 9 119 12 155 3 36 7 103 8 150 2 47
6 153 10 235 5 111 4 144 -4 125 -10 -22 -38 -376 -56 -712 -7 -133 -2 -158
35 -158 13 0 15 -11 13 -69 l-4 -68 177 -8 c97 -4 178 -5 179 -3 2 1 7 29 11
62 5 46 4 57 -7 54 -7 -3 -12 -16 -10 -32 3 -24 1 -25 -23 -14 -15 7 -24 17
-21 25 3 7 1 13 -4 13 -6 0 -10 -6 -10 -13 0 -8 -11 -19 -24 -25 -24 -11 -24
-10 -19 26 3 28 2 33 -6 22 -6 -8 -11 -28 -12 -45 -1 -63 -8 -66 -71 -36 -32
16 -60 26 -63 23 -11 -11 -4 -24 10 -18 9 3 15 0 15 -8 0 -9 -10 -12 -32 -9
-18 2 -38 4 -44 5 -6 1 -11 6 -12 12 0 6 -5 27 -10 47 -5 21 -6 42 -2 49 4 7
37 15 74 17 37 3 69 11 73 16 8 13 49 688 59 965 6 177 5 210 -10 260 -28 92
-26 91 -162 97 -65 3 -129 8 -141 11 -18 3 -28 -6 -57 -58z m430 -1394 c-3 -9
-6 -22 -6 -30 0 -16 -26 -19 -35 -3 -7 11 22 49 38 49 5 0 6 -7 3 -16z m42 4
c22 -22 14 -48 -13 -48 -20 0 -24 4 -21 23 3 12 5 25 5 30 1 11 15 9 29 -5z"/>
<path d="M2174 1631 c-40 -137 -40 -143 -10 -438 33 -326 82 -722 90 -731 4
-3 12 0 19 8 10 10 9 11 -1 5 -10 -5 -13 -2 -11 11 1 11 0 46 -4 79 -4 33 -9
88 -12 122 -6 71 -15 158 -29 268 -2 11 -6 54 -11 95 -4 41 -9 83 -11 93 -6
33 -19 201 -19 250 0 26 -3 47 -7 47 -12 0 -9 38 3 46 6 3 8 16 5 27 -7 27 32
147 48 147 15 0 76 -56 98 -91 13 -21 14 -29 5 -40 -10 -11 -9 -11 5 -1 14 11
19 8 37 -17 12 -16 21 -36 21 -44 0 -8 6 -20 14 -26 18 -15 59 7 51 27 -3 9 4
8 26 -3 52 -27 54 -11 3 23 l-49 32 -3 -35 c-4 -39 -22 -48 -22 -11 0 26 -18
51 -98 141 -39 45 -62 62 -87 66 -34 6 -35 6 -51 -50z"/>
<path d="M2425 1648 c30 -36 95 -75 95 -58 0 6 -9 29 -20 50 -19 37 -24 40
-61 40 l-41 0 27 -32z"/>
<path d="M2881 1624 c0 -11 3 -14 6 -6 3 7 2 16 -1 19 -3 4 -6 -2 -5 -13z"/>
<path d="M943 1605 c-9 -25 4 -29 17 -6 7 15 7 21 0 21 -6 0 -13 -7 -17 -15z"/>
<path d="M54 1586 c-3 -8 -4 -23 -2 -33 3 -11 6 -6 9 15 6 34 2 42 -7 18z"/>
<path d="M2867 1593 c-14 -23 -37 -86 -28 -78 12 12 43 85 37 85 -3 0 -7 -3
-9 -7z"/>
<path d="M263 1567 c-6 -12 -19 -48 -28 -79 -13 -45 -26 -65 -57 -90 -23 -18
-36 -34 -30 -36 6 -2 8 -11 5 -20 -6 -15 -3 -14 15 2 27 23 28 27 5 19 -16 -6
-16 -5 -4 10 7 9 18 14 25 10 6 -3 8 -3 4 2 -5 5 1 14 11 21 11 8 27 40 36 71
9 32 22 68 28 80 6 13 8 25 5 28 -2 3 -9 -5 -15 -18z"/>
<path d="M342 1563 c3 -10 -53 -154 -64 -167 -12 -14 -10 -74 3 -82 7 -4 10 5
8 27 -1 19 2 43 6 54 36 89 65 166 65 170 0 3 -4 5 -10 5 -5 0 -9 -3 -8 -7z"/>
<path d="M656 1555 c-3 -8 -1 -15 4 -15 6 0 10 7 10 15 0 8 -2 15 -4 15 -2 0
-6 -7 -10 -15z"/>
<path d="M916 1537 c-56 -135 -68 -232 -116 -962 -6 -88 -13 -177 -15 -197
l-5 -37 57 -6 c32 -3 84 -9 115 -13 l57 -8 5 60 c13 138 56 796 56 849 0 69
15 75 23 10 3 -27 42 -210 86 -408 110 -494 113 -510 117 -514 2 -2 16 1 33 7
l30 10 17 -56 c9 -31 21 -61 25 -66 4 -5 38 1 76 12 37 11 85 24 106 27 74 14
37 29 -65 27 -18 0 -29 6 -33 19 -7 20 -25 27 -25 9 0 -5 4 -10 10 -10 5 0 7
-7 4 -15 -4 -10 0 -15 15 -15 12 0 21 -5 21 -12 0 -6 -3 -8 -6 -5 -4 3 -15 2
-26 -4 -30 -16 -71 -3 -65 21 3 11 2 18 -3 15 -4 -3 -15 5 -23 18 -14 22 -13
24 20 46 25 16 38 20 46 12 8 -8 8 -11 -1 -11 -7 0 -12 -4 -12 -10 0 -5 9 -10
20 -10 22 0 25 7 10 30 -6 9 -5 17 1 21 7 4 -27 219 -92 592 l-103 585 -115 6
c-64 4 -142 9 -173 12 l-57 5 -15 -34z m197 1 c45 -1 88 -3 95 -5 17 -7 15
-23 -3 -23 -8 0 -29 -6 -47 -14 -52 -23 -71 -29 -103 -33 -42 -6 -135 6 -135
18 0 6 4 8 9 5 5 -4 7 4 3 16 -3 14 -1 19 6 14 8 -4 10 -2 6 8 -4 11 4 15 33
18 21 2 42 2 46 0 4 -2 45 -4 90 -4z m141 -23 c-4 -8 -1 -15 5 -15 6 0 11 -4
11 -9 0 -5 -15 -9 -32 -9 -18 0 -55 -11 -83 -23 -39 -18 -69 -23 -137 -23 -53
-1 -91 4 -98 10 -9 9 9 11 72 7 77 -5 89 -3 165 27 46 18 80 37 77 41 -3 5 2
9 10 9 10 0 13 -6 10 -15z m19 -84 c6 -24 5 -36 -4 -41 -8 -6 -8 -10 3 -16 12
-8 38 -133 38 -181 0 -31 -146 -68 -167 -41 -6 7 -19 41 -28 75 -17 62 -17 62
-64 72 -25 5 -48 8 -50 5 -2 -2 10 -7 27 -10 28 -6 30 -8 25 -43 -7 -54 -10
-60 -30 -59 -10 1 -35 -2 -55 -6 -26 -5 -38 -3 -38 4 0 6 -3 9 -7 7 -14 -8
-53 12 -53 28 0 8 3 15 8 15 4 0 5 26 4 57 -2 32 -1 55 3 51 4 -4 16 -3 27 3
20 11 118 -7 118 -21 0 -4 6 -7 13 -8 6 -1 26 -4 42 -7 17 -3 1 6 -35 21 -40
17 -85 27 -117 28 -29 0 -53 4 -53 8 0 4 6 8 14 8 9 0 12 8 8 27 -5 26 -5 26
39 18 24 -4 64 -7 89 -7 49 1 160 32 160 45 0 5 17 7 37 5 33 -3 38 -7 46 -37z
m-352 -256 c21 -12 34 -13 48 -5 24 12 68 13 75 1 8 -13 -102 -23 -124 -11
-10 5 -28 10 -39 10 -12 0 -21 5 -21 10 0 15 27 12 61 -5z m389 -25 c-45 -35
-168 -52 -177 -25 -2 6 21 10 55 10 39 0 70 7 97 21 47 25 61 21 25 -6z m-398
-1 c2 -6 15 -11 28 -10 103 8 95 11 98 -41 2 -26 -2 -56 -8 -68 -8 -15 -8 -20
2 -20 11 0 -33 -21 -127 -59 -19 -8 -65 2 -65 14 0 3 13 4 28 3 29 -2 142 41
142 54 0 4 -12 3 -27 -3 -14 -5 -33 -7 -42 -4 -8 3 -12 3 -8 -1 13 -13 -15
-34 -44 -34 -31 0 -32 2 -30 70 2 82 10 110 31 110 10 0 20 -5 22 -11z m418
-28 c-5 -11 -19 -23 -30 -26 -11 -3 -20 -11 -20 -16 0 -12 14 -11 27 2 14 14
32 4 31 -19 0 -9 3 -40 7 -69 7 -60 -3 -70 -73 -74 -23 -2 -42 -7 -42 -11 0
-11 79 2 113 19 17 9 27 10 27 3 0 -17 -60 -38 -130 -45 -58 -7 -63 -6 -46 7
15 12 16 17 6 23 -9 6 -11 4 -5 -5 5 -8 4 -11 -2 -7 -6 4 -13 26 -17 49 -4 24
-9 58 -12 76 -6 31 -5 32 25 32 21 0 30 4 25 11 -4 6 -20 8 -40 4 -21 -3 -34
-2 -34 5 0 6 23 10 53 10 38 0 67 7 98 24 24 14 45 25 47 25 1 1 -2 -8 -8 -18z
m-300 -188 c0 -27 -3 -65 -6 -85 -6 -33 -10 -38 -33 -38 -14 0 -47 7 -74 15
-48 14 -51 15 -66 15 -9 0 -5 75 5 91 3 6 12 8 20 5 16 -6 104 25 104 36 0 4
11 8 25 8 23 0 25 -3 25 -47z m346 -88 c10 -56 10 -56 -22 -80 -18 -14 -37
-25 -42 -25 -6 0 -12 -6 -15 -13 -3 -8 -19 -14 -38 -13 -32 1 -34 3 -44 57 -6
30 -14 60 -18 66 -10 16 13 30 63 37 69 9 79 12 86 19 15 14 20 6 30 -48z
m-398 -42 c57 -6 72 -23 20 -22 -40 0 -170 33 -163 41 3 3 25 1 48 -4 23 -5
66 -12 95 -15z m-75 -19 c12 -4 41 -9 65 -11 37 -4 45 -11 44 -33 0 -3 -2 -30
-3 -60 l-3 -55 -50 -12 c-28 -7 -68 -12 -90 -13 l-38 0 5 78 c4 42 6 87 7 99
0 22 4 23 63 7z m497 -21 c-1 -10 -87 -66 -115 -75 -19 -6 50 -13 103 -10 12
0 22 -3 22 -8 0 -5 -41 -8 -92 -8 -50 1 -86 4 -79 6 8 3 6 8 -6 18 -16 12 -15
13 18 14 26 0 49 10 80 34 42 33 69 45 69 29z m-2 -69 c-5 -4 -32 -6 -53 -5
-18 2 -17 4 10 26 l30 25 8 -22 c4 -11 6 -22 5 -24z m-36 -48 c16 10 49 -8 46
-24 -1 -9 0 -21 4 -27 11 -19 18 -70 10 -81 -19 -28 -86 -43 -125 -28 -8 3
-23 34 -32 69 -17 63 -15 102 5 90 5 -3 10 -2 10 3 0 6 14 7 37 2 20 -5 41 -7
45 -4z m-352 -45 c0 -10 -108 -31 -158 -31 -17 0 -34 5 -38 12 -5 7 -1 9 13 6
12 -3 50 0 84 7 81 16 99 17 99 6z m-10 -41 c0 -11 -3 -20 -7 -20 -22 1 -53
13 -53 22 0 5 10 6 21 3 15 -5 19 -4 15 4 -4 6 0 11 8 11 9 0 16 -9 16 -20z
m-62 -16 c56 -16 89 -34 63 -34 -7 0 -44 9 -82 21 -38 12 -76 19 -84 15 -8 -3
-17 -1 -20 4 -10 15 61 12 123 -6z m-68 -15 c0 -5 4 -8 9 -5 4 3 31 -3 59 -13
28 -10 54 -16 57 -13 3 4 3 -9 -1 -28 -3 -19 -6 -54 -5 -77 2 -35 -2 -43 -16
-44 -24 -2 -99 2 -121 6 -9 2 -23 4 -30 4 -9 1 -11 15 -8 49 2 26 5 64 5 85 1
23 5 36 11 32 6 -3 10 -1 10 4 0 6 7 11 15 11 8 0 15 -5 15 -11z m580 -34 c0
-3 -15 -14 -32 -25 -35 -21 -112 -27 -138 -10 -11 7 3 10 45 10 33 0 71 7 85
14 27 15 40 19 40 11z m-2 -80 c2 -26 -2 -37 -15 -41 -10 -3 -27 -10 -38 -14
-11 -5 -33 -10 -48 -13 -32 -5 -52 21 -44 59 2 13 0 21 -4 18 -5 -3 -9 0 -9 7
0 8 15 10 49 7 30 -3 55 0 66 8 25 19 41 8 43 -31z"/>
<path d="M925 1391 c2 -5 18 -8 34 -9 17 0 52 -10 78 -22 26 -12 71 -23 98
-25 l50 -4 -45 8 c-25 5 -65 18 -90 29 -46 21 -134 37 -125 23z"/>
<path d="M1215 1354 l-30 -15 30 6 c17 4 34 11 40 16 13 13 -5 10 -40 -7z"/>
<path d="M1230 1330 c-13 -8 -13 -10 2 -10 9 0 20 5 23 10 8 13 -5 13 -25 0z"/>
<path d="M1188 1313 c7 -3 16 -2 19 1 4 3 -2 6 -13 5 -11 0 -14 -3 -6 -6z"/>
<path d="M1118 1273 c7 -3 16 -2 19 1 4 3 -2 6 -13 5 -11 0 -14 -3 -6 -6z"/>
<path d="M1230 1070 c0 -5 9 -10 20 -10 11 0 20 5 20 10 0 6 -9 10 -20 10 -11
0 -20 -4 -20 -10z"/>
<path d="M2521 1554 c8 -10 15 -12 17 -5 2 6 8 9 13 5 5 -3 9 0 9 5 0 6 -12
11 -26 11 -23 0 -25 -2 -13 -16z"/>
<path d="M2515 1525 c31 -25 51 -33 40 -15 -3 6 0 10 7 10 11 1 -59 30 -72 30
-3 0 9 -11 25 -25z"/>
<path d="M2498 1502 c18 -15 35 -38 38 -52 3 -14 6 -29 7 -35 2 -5 5 -14 8
-20 3 -5 6 -28 8 -50 1 -22 6 -53 11 -70 4 -16 9 -37 9 -45 1 -22 39 -252 60
-360 5 -25 9 -52 10 -60 3 -38 9 -75 11 -75 1 0 8 -38 16 -85 8 -47 17 -98 20
-115 2 -16 7 -46 9 -65 2 -19 11 -66 19 -105 10 -46 12 -71 5 -76 -18 -11
-107 -10 -115 2 -9 16 -44 172 -70 317 -2 12 -6 32 -9 45 -3 12 -13 58 -23
102 -9 44 -17 92 -17 107 1 15 -2 25 -6 22 -4 -2 -10 13 -14 34 -3 20 -17 82
-30 137 -28 113 -38 168 -38 207 0 15 -4 25 -10 21 -5 -3 -6 3 -2 16 4 13 2
21 -5 21 -6 0 -8 5 -5 10 4 6 2 16 -3 23 -5 7 -12 21 -15 32 -3 13 -5 9 -6
-12 0 -17 15 -110 35 -205 35 -172 179 -853 189 -896 5 -21 8 -22 93 -16 48 4
88 8 89 8 1 1 -20 135 -47 297 -28 162 -73 429 -101 594 -56 336 -56 335 -72
335 -7 0 -23 9 -37 20 -38 30 -49 23 -12 -8z"/>
<path d="M53 1470 c0 -25 2 -35 4 -22 2 12 2 32 0 45 -2 12 -4 2 -4 -23z"/>
<path d="M651 1484 c0 -11 3 -14 6 -6 3 7 2 16 -1 19 -3 4 -6 -2 -5 -13z"/>
<path d="M51 1394 c0 -11 3 -14 6 -6 3 7 2 16 -1 19 -3 4 -6 -2 -5 -13z"/>
<path d="M2329 1395 c-7 -25 -3 -124 6 -187 6 -37 4 -48 -6 -48 -11 0 -11 -2
-2 -8 7 -4 15 -41 18 -82 3 -41 8 -95 10 -120 2 -25 6 -85 10 -135 4 -49 9
-110 11 -135 3 -25 7 -58 9 -75 1 -16 6 -64 9 -105 3 -41 9 -105 12 -142 5
-58 3 -68 -13 -75 -25 -12 -111 -9 -124 4 -7 7 -22 8 -45 1 -19 -5 -39 -6 -44
-3 -6 3 -10 1 -10 -6 0 -10 -3 -10 -11 -2 -6 6 -18 9 -26 6 -10 -4 -14 0 -12
13 1 10 -3 31 -9 46 -6 15 -14 51 -18 80 -4 29 -12 59 -18 67 -9 12 -8 13 4 6
12 -7 13 -6 4 6 -7 8 -20 52 -29 99 -10 46 -21 95 -26 109 -7 16 -5 28 3 39
10 12 10 14 1 9 -8 -5 -14 0 -17 15 -3 13 -12 57 -21 98 -9 41 -18 86 -20 100
-2 14 -11 52 -20 85 -9 33 -14 70 -12 82 2 12 1 20 -4 18 -7 -5 -13 14 -24 80
-10 64 -29 131 -40 143 -17 19 -5 -52 61 -358 104 -482 164 -761 164 -765 0
-3 14 -2 32 2 46 9 28 -10 -40 -44 -47 -23 -75 -29 -157 -34 l-100 -5 100 -2
c55 -1 116 3 135 9 19 6 106 11 193 10 l157 0 0 26 c0 19 -4 24 -16 19 -9 -3
-21 -6 -27 -6 -7 0 -6 -4 3 -10 11 -7 3 -10 -31 -10 -25 0 -51 6 -58 12 -11
11 -13 10 -8 -5 4 -9 2 -17 -4 -17 -5 0 -12 7 -14 15 -17 53 -15 52 -30 32
-10 -14 -15 -15 -21 -6 -5 9 -10 6 -16 -10 -7 -20 -31 -27 -29 -8 1 4 1 15 1
26 0 14 6 18 26 15 15 -1 37 2 50 6 19 8 24 6 24 -7 0 -14 10 -15 82 -9 45 4
84 9 86 11 5 5 -76 942 -92 1060 -6 50 -14 81 -17 70z"/>
<path d="M2783 1384 c23 -28 22 -41 -3 -19 -11 10 -20 15 -20 11 0 -4 9 -19
20 -33 15 -19 20 -21 20 -9 0 9 5 16 10 16 18 0 10 14 -18 34 -27 20 -27 20
-9 0z"/>
<path d="M216 1335 c-15 -19 -23 -35 -18 -35 12 0 42 34 42 47 0 6 6 14 13 16
7 4 8 6 1 6 -7 1 -24 -15 -38 -34z"/>
<path d="M180 1335 c-13 -14 -21 -27 -18 -31 3 -3 16 9 28 25 26 37 22 40 -10
6z"/>
<path d="M2670 1278 c-29 -38 -30 -40 -6 -18 25 23 52 60 43 60 -2 0 -19 -19
-37 -42z"/>
<path d="M80 1295 c0 -5 5 -17 10 -25 5 -8 10 -10 10 -5 0 6 -5 17 -10 25 -5
8 -10 11 -10 5z"/>
<path d="M100 1245 c1 -6 7 -21 15 -35 14 -24 15 -24 12 -2 -3 22 -27 55 -27
37z"/>
<path d="M136 1167 c3 -10 9 -15 12 -12 3 3 0 11 -7 18 -10 9 -11 8 -5 -6z"/>
<path d="M746 1124 c-3 -26 -4 -49 -2 -52 3 -2 8 17 11 43 4 25 5 48 3 51 -3
2 -8 -17 -12 -42z"/>
<path d="M190 1080 c6 -11 16 -20 22 -20 6 0 3 9 -7 20 -10 11 -20 20 -22 20
-2 0 1 -9 7 -20z"/>
<path d="M451 1024 c0 -11 3 -14 6 -6 3 7 2 16 -1 19 -3 4 -6 -2 -5 -13z"/>
<path d="M462 940 c0 -14 2 -19 5 -12 2 6 2 18 0 25 -3 6 -5 1 -5 -13z"/>
<path d="M441 844 c0 -11 3 -14 6 -6 3 7 2 16 -1 19 -3 4 -6 -2 -5 -13z"/>
<path d="M1930 830 c-9 -6 -10 -10 -3 -10 6 0 15 5 18 10 8 12 4 12 -15 0z"/>
<path d="M725 769 c-4 -6 -5 -12 -2 -15 2 -3 7 2 10 11 7 17 1 20 -8 4z"/>
<path d="M1538 743 c12 -2 30 -2 40 0 9 3 -1 5 -23 4 -22 0 -30 -2 -17 -4z"/>
<path d="M1488 733 c7 -3 16 -2 19 1 4 3 -2 6 -13 5 -11 0 -14 -3 -6 -6z"/>
<path d="M1135 720 c3 -5 8 -10 11 -10 2 0 4 5 4 10 0 6 -5 10 -11 10 -5 0 -7
-4 -4 -10z"/>
<path d="M221 357 c-6 -8 -9 -16 -6 -19 9 -9 -21 -92 -48 -135 -49 -78 -35
-80 64 -13 60 40 69 50 84 98 9 30 15 56 13 58 -3 2 -14 -7 -26 -20 -13 -16
-17 -26 -9 -29 13 -4 -18 -48 -56 -77 -23 -18 -26 -18 -38 -3 -12 14 -11 15
11 8 20 -6 23 -5 13 6 -17 17 -16 29 2 29 8 0 15 5 15 10 0 6 -4 10 -10 10 -5
0 -10 7 -10 15 0 8 6 15 13 15 7 0 18 9 25 21 11 18 11 20 -5 17 -10 -2 -17 2
-15 10 3 16 -3 15 -17 -1z m-26 -157 c3 -5 1 -10 -4 -10 -6 0 -11 5 -11 10 0
6 2 10 4 10 3 0 8 -4 11 -10z"/>
<path d="M700 331 c0 -6 -7 -11 -16 -11 -13 0 -14 -3 -4 -15 6 -8 9 -19 5 -25
-3 -5 -1 -10 4 -10 10 0 13 14 10 36 0 4 5 10 11 14 9 5 9 9 1 14 -6 4 -11 2
-11 -3z"/>
<path d="M2630 227 c0 -21 14 -34 85 -86 71 -52 101 -55 70 -7 -15 22 -20 24
-34 14 -14 -11 -14 -10 0 6 16 17 16 21 -3 52 -14 24 -24 31 -36 26 -16 -6
-16 -7 1 -10 20 -4 21 -11 3 -34 -12 -16 -14 -16 -35 3 -12 11 -19 24 -16 28
2 5 -4 11 -15 14 -12 3 -20 0 -20 -6z m114 -52 c-6 -16 -24 -21 -24 -7 0 11
11 22 21 22 5 0 6 -7 3 -15z"/>
<path d="M2468 173 c34 -2 88 -2 120 0 31 2 3 3 -63 3 -66 0 -92 -1 -57 -3z"/>
<path d="M2818 173 c18 -2 45 -2 60 0 15 2 0 4 -33 4 -33 0 -45 -2 -27 -4z"/>
</g>
</svg>
