<?xml version="1.0" standalone="no"?>
<!DOCTYPE svg PUBLIC "-//W3C//DTD SVG 20010904//EN"
 "http://www.w3.org/TR/2001/REC-SVG-20010904/DTD/svg10.dtd">
<svg version="1.0" xmlns="http://www.w3.org/2000/svg"
 width="300.000000pt" height="242.000000pt" viewBox="0 0 300.000000 242.000000"
 preserveAspectRatio="xMidYMid meet">
<metadata>
Created by potrace 1.10, written by Peter Selinger 2001-2011
</metadata>
<g transform="translate(0.000000,242.000000) scale(0.100000,-0.100000)"
fill="#000000" stroke="none">
<path d="M1725 2283 c-140 -19 -303 -83 -432 -169 -118 -78 -279 -241 -259
-261 3 -4 46 34 94 84 158 164 282 235 539 308 12 3 65 10 118 14 261 22 515
-53 720 -213 173 -136 283 -299 352 -524 25 -81 27 -100 27 -277 0 -180 -1
-195 -27 -280 -85 -277 -262 -494 -510 -625 -79 -42 -204 -87 -282 -101 -155
-28 -337 -20 -472 22 -34 10 -71 19 -83 19 -11 0 -20 5 -20 10 0 6 -8 10 -18
10 -10 0 -22 3 -26 7 -7 7 -66 14 -66 7 0 -8 86 -47 154 -70 525 -179 1115 99
1317 621 90 230 93 507 9 738 -129 352 -433 609 -797 672 -78 14 -264 18 -338
8z"/>
<path d="M1868 1950 c-20 -11 -40 -24 -43 -30 -3 -5 -31 -10 -61 -10 -51 0
-66 -6 -194 -81 l-138 -80 -234 46 c-128 25 -255 53 -282 61 -63 18 -172 18
-222 0 -36 -13 -139 -68 -241 -129 -127 -77 -188 -288 -149 -517 69 -403 346
-783 668 -919 55 -22 77 -26 168 -26 117 0 102 -6 284 108 108 67 147 112 185
210 11 28 45 106 76 172 53 111 56 117 51 72 -9 -74 10 -107 81 -145 34 -18
73 -32 87 -32 39 0 105 37 116 65 5 13 21 122 37 242 26 210 28 219 55 245 16
14 36 45 47 67 12 28 33 51 63 70 39 25 49 40 92 134 64 144 75 200 53 269 -9
30 -30 72 -47 95 -52 70 -180 119 -335 129 -67 4 -86 1 -117 -16z m280 -42
c110 -33 159 -77 190 -167 19 -55 14 -80 -25 -128 l-37 -45 -20 64 c-38 115
-119 226 -202 274 -24 14 -44 28 -44 30 0 7 68 -7 138 -28z m-143 -2 c28 -13
73 -48 100 -77 l50 -53 -55 50 c-83 76 -158 98 -232 69 -11 -4 -18 -3 -18 4 0
15 37 30 75 30 17 1 53 -10 80 -23z m-133 -53 c103 -56 242 -245 264 -359 6
-30 4 -32 -97 -91 l-104 -61 -26 73 c-62 177 -191 320 -318 355 -24 6 -40 14
-37 18 4 3 46 28 94 54 77 43 92 48 131 43 24 -3 65 -17 93 -32z m140 11 c71
-37 155 -147 190 -248 l16 -50 -30 -19 c-17 -10 -31 -17 -32 -15 -1 2 -13 28
-26 58 -50 110 -120 201 -202 260 -21 15 -34 31 -30 35 10 10 78 -3 114 -21z
m-1059 -54 c167 -63 372 -259 494 -475 80 -142 159 -364 137 -384 -5 -4 -35
-22 -66 -40 l-57 -32 -11 43 c-75 282 -254 556 -469 720 -109 82 -240 137
-336 139 l-40 1 60 29 c56 28 66 30 145 25 52 -2 108 -13 143 -26z m297 -55
c118 -24 187 -34 215 -30 144 21 336 -178 389 -403 l14 -63 -86 -97 c-48 -54
-104 -117 -124 -141 -25 -29 -39 -39 -42 -30 -2 8 -14 46 -25 84 -26 91 -108
258 -178 364 -69 103 -222 264 -297 311 -30 19 -55 39 -56 43 0 5 4 6 8 3 5
-3 87 -21 182 -41z m385 -33 c108 -54 233 -225 264 -362 19 -84 7 -230 -19
-230 -5 0 -4 14 2 31 17 48 4 176 -25 248 -64 159 -192 302 -291 327 -15 3
-29 10 -32 16 -9 14 45 -2 101 -30z m-863 -6 c146 -52 325 -204 446 -379 68
-98 153 -276 188 -392 25 -81 28 -106 28 -245 1 -141 -1 -160 -23 -214 -106
-263 -401 -254 -689 19 -244 231 -403 587 -390 874 8 171 62 278 167 333 71
37 174 39 273 4z m1480 -162 c15 -73 3 -138 -32 -177 -16 -18 -32 -29 -36 -24
-4 4 2 17 13 30 11 12 26 32 32 44 16 31 14 131 -4 189 -8 27 -14 51 -14 54 2
14 32 -70 41 -116z m74 8 c-17 -32 -34 -48 -43 -39 -3 3 7 22 22 42 32 42 43
40 21 -3z m-106 -53 c0 -19 -24 -48 -41 -49 -19 -1 -15 40 5 54 29 21 36 20
36 -5z m-16 -81 c-15 -30 -18 -31 -24 -13 -5 13 -3 24 8 33 27 21 33 13 16
-20z m-54 -16 c0 -11 -16 -26 -42 -39 -24 -12 -71 -38 -104 -57 -48 -28 -63
-33 -67 -22 -4 10 26 33 96 74 56 33 105 61 110 61 4 1 7 -7 7 -17z m-8 -108
c-11 -19 -206 -136 -210 -125 -1 4 1 24 5 44 7 34 16 42 108 95 l100 58 3 -28
c2 -15 -1 -35 -6 -44z m-42 -76 c-34 -27 -194 -116 -199 -112 -9 8 25 33 119
87 93 54 130 65 80 25z m-240 -58 c0 -6 -9 -29 -20 -50 -19 -38 -33 -49 -135
-110 l-40 -24 51 59 c103 119 144 155 144 125z m191 -46 c-5 -29 -14 -41 -50
-62 -38 -22 -44 -23 -38 -8 4 10 7 28 7 41 0 15 11 30 33 43 47 30 55 27 48
-14z m-132 -219 c-12 -102 -28 -193 -34 -202 -11 -15 -16 -14 -59 7 -26 12
-52 33 -58 46 -12 26 5 193 24 228 11 20 11 20 18 0 18 -48 65 -53 76 -9 3 13
-1 36 -9 51 -15 28 -14 29 21 50 20 13 38 21 40 19 2 -2 -7 -87 -19 -190z
m117 113 c-4 -23 -8 -43 -9 -43 -1 -1 -20 -12 -41 -25 l-39 -24 6 33 c4 19 7
39 7 46 0 12 55 52 74 54 5 1 6 -18 2 -41z m-275 -37 c-24 -46 -40 -64 -75
-84 -25 -14 -47 -22 -50 -19 -3 3 -6 20 -6 38 0 31 6 37 78 78 42 25 78 46 80
46 1 0 -11 -27 -27 -59z m99 13 c0 -13 -4 -24 -9 -24 -11 0 -21 25 -21 52 0
17 3 18 15 8 8 -7 15 -23 15 -36z m166 -60 c-3 -9 -6 -28 -6 -42 0 -21 -9 -32
-40 -49 l-40 -21 0 32 c0 35 12 54 50 80 31 20 44 21 36 0z m-417 -64 c1 -14
-126 -97 -134 -88 -2 2 -5 18 -6 36 -4 30 0 34 61 70 62 36 65 37 72 17 3 -11
6 -27 7 -35z m71 -61 l-39 -84 -1 65 c0 65 0 65 38 86 20 11 38 20 40 19 1 -1
-16 -40 -38 -86z m326 -33 c-3 -12 -24 -33 -47 -46 -36 -20 -41 -21 -36 -6 4
10 7 31 7 47 0 23 7 32 38 48 37 19 37 19 40 -1 2 -11 1 -30 -2 -42z m-396 15
c0 -37 -3 -41 -57 -73 -32 -18 -61 -34 -65 -36 -5 -2 -8 14 -8 36 0 38 3 42
58 75 31 19 60 36 65 36 4 1 7 -17 7 -38z m-7 -120 c-6 -25 -21 -39 -72 -67
-61 -34 -63 -34 -57 -12 3 13 6 33 6 45 0 16 16 30 63 56 67 38 75 35 60 -22z
m387 49 c0 -11 -79 -54 -86 -47 -3 2 14 16 38 30 50 31 48 30 48 17z m-427
-171 c-21 -38 -41 -58 -80 -79 l-51 -29 18 52 c16 45 26 57 77 88 32 20 59 32
61 28 2 -5 -9 -31 -25 -60z m-63 -94 c0 -5 -77 -55 -85 -55 -15 0 9 22 43 40
42 22 42 22 42 15z"/>
<path d="M952 1745 c-7 -14 -12 -31 -12 -38 1 -17 40 32 40 49 0 23 -16 16
-28 -11z"/>
<path d="M610 1631 c-45 -14 -84 -39 -111 -68 -178 -191 -71 -660 217 -948
151 -151 305 -216 442 -185 46 10 65 22 107 64 61 61 84 117 92 228 14 194
-66 427 -215 623 -128 169 -302 284 -439 291 -37 2 -79 0 -93 -5z m15 -38
c-60 -142 -50 -325 29 -518 77 -188 219 -369 368 -467 65 -43 157 -78 203 -78
43 0 44 -9 2 -37 -72 -49 -136 -55 -238 -23 -212 65 -438 337 -519 620 -12 41
-24 118 -27 171 -5 81 -2 108 15 165 24 78 66 135 120 164 46 24 56 25 47 3z
m95 12 c0 -2 -18 -14 -40 -25 -42 -22 -46 -20 -30 11 7 12 21 19 40 19 17 0
30 -2 30 -5z m89 -19 l34 -12 -79 -46 c-43 -25 -96 -56 -117 -68 l-38 -23 5
27 c4 14 8 36 11 49 3 14 25 33 62 54 65 35 74 37 122 19z m82 -43 c16 -10 29
-20 29 -23 0 -3 -17 -14 -38 -26 -20 -11 -88 -51 -151 -87 -62 -37 -115 -67
-117 -67 -2 0 -4 17 -4 39 l0 38 123 71 c67 39 124 71 125 72 2 0 17 -8 33
-17z m109 -82 c0 -3 -24 -19 -54 -34 -30 -16 -111 -62 -182 -103 -133 -79
-144 -80 -143 -24 0 22 21 37 162 116 l161 91 28 -20 c15 -11 28 -23 28 -26z
m53 -75 c-10 -5 -103 -58 -207 -118 -104 -60 -190 -107 -193 -105 -2 2 -7 17
-12 33 l-8 29 191 112 191 111 28 -26 c25 -24 26 -27 10 -36z m37 -14 c0 -8
-159 -111 -217 -141 -13 -6 -26 -25 -30 -42 -7 -24 -24 -39 -83 -73 l-75 -44
-13 31 c-7 17 -9 34 -5 38 5 4 91 55 193 114 102 59 189 111 195 116 11 11 35
12 35 1z m69 -95 c41 -64 111 -198 111 -214 0 -4 -38 -26 -85 -48 l-85 -40 0
45 c-1 76 -58 173 -122 206 l-30 16 73 48 c41 27 79 49 85 49 7 1 30 -28 53
-62z m-198 -82 c65 -34 122 -159 100 -218 -34 -90 -191 52 -191 173 0 27 26
60 47 60 8 0 27 -7 44 -15z m-121 -84 c0 -11 2 -25 5 -33 4 -9 -17 -26 -57
-50 l-63 -36 -17 31 -16 32 61 37 c71 42 87 45 87 19z m48 -125 c-25 -18 -110
-66 -116 -66 -4 0 -15 12 -24 27 l-16 27 61 37 61 37 19 -30 c10 -17 17 -31
15 -32z m402 35 c0 -5 -84 -58 -187 -117 -104 -59 -198 -114 -209 -121 -20
-13 -24 -11 -43 15 l-21 30 76 43 c47 27 86 43 102 41 17 -1 74 21 147 58 126
62 135 66 135 51z m15 -62 c4 -17 3 -35 -1 -39 -5 -4 -89 -54 -187 -110 l-178
-103 -24 23 c-26 25 -32 40 -15 40 6 0 94 49 198 110 103 60 190 110 194 110
3 0 9 -14 13 -31z m-370 -13 l29 -23 -44 -23 c-25 -12 -58 -32 -74 -43 -23
-16 -30 -17 -37 -6 -24 35 -31 53 -23 56 5 2 32 16 59 33 28 16 52 29 55 29 3
1 18 -10 35 -23z m390 -77 c4 -17 3 -35 -1 -39 -11 -10 -304 -180 -310 -180
-3 0 -18 10 -34 22 l-29 21 177 103 c97 57 180 103 184 103 3 1 9 -13 13 -30z
m5 -101 l0 -43 -107 -60 c-59 -33 -113 -61 -121 -63 -7 -2 -26 5 -43 16 l-30
19 148 86 c81 47 149 86 151 86 1 1 2 -18 2 -41z m-10 -117 c-14 -52 -84 -95
-140 -86 -67 11 -66 20 12 63 40 23 87 50 103 60 36 23 40 17 25 -37z"/>
<path d="M1245 395 c35 -29 45 -31 45 -9 0 8 -4 12 -10 9 -5 -3 -10 1 -10 9 0
11 -9 16 -27 16 l-28 -1 30 -24z"/>
</g>
</svg>
